SplineFontDB: 3.2
FontName: Reijima-Black
FullName: Reijima Black
FamilyName: Reijima Black
Weight: Black
Copyright: Copyright (c) 2019 by Coji Morishita. All rights reserved.
Version: 1.000
ItalicAngle: 0
UnderlinePosition: -100
UnderlineWidth: 50
Ascent: 860
Descent: 140
InvalidEm: 0
LayerCount: 2
Layer: 0 0 "Back" 1
Layer: 1 0 "Fore" 0
FSType: 8
OS2Version: 0
OS2_WeightWidthSlopeOnly: 0
OS2_UseTypoMetrics: 0
CreationTime: 1707357820
ModificationTime: 1707357820
OS2TypoAscent: 0
OS2TypoAOffset: 1
OS2TypoDescent: 0
OS2TypoDOffset: 1
OS2TypoLinegap: 0
OS2WinAscent: 0
OS2WinAOffset: 1
OS2WinDescent: 0
OS2WinDOffset: 1
HheadAscent: 0
HheadAOffset: 1
HheadDescent: 0
HheadDOffset: 1
OS2Vendor: 'PfEd'
DEI: 91125
Encoding: UnicodeFull
Compacted: 1
UnicodeInterp: none
NameList: AGL For New Fonts
DisplaySize: -48
AntiAlias: 1
FitToEm: 0
WinInfo: 0 27 9
BeginPrivate: 3
BlueValues 24 [-10 0 520 530 730 750 ]
OtherBlues 12 [-220 -220 ]
ForceBold 4 true
EndPrivate
BeginChars: 1114125 955

StartChar: .notdef
Encoding: 1114112 -1 0
Width: 500
LayerCount: 2
Fore
SplineSet
410 -140 m 1
 93 -140 l 1
 93 860 l 1
 410 860 l 1
 410 -140 l 1
168 793 m 1
 168 760 l 1
 233 760 l 1
 233 723 l 1
 167 723 l 1
 167 690 l 1
 333 690 l 1
 333 723 l 1
 267 723 l 1
 267 760 l 1
 333 760 l 1
 333 793 l 1
 168 793 l 1
167 664 m 1
 167 560 l 1
 333 560 l 1
 333 594 l 1
 267 594 l 1
 267 664 l 1
 167 664 l 1
233 594 m 1
 200 594 l 1
 200 630 l 1
 233 630 l 1
 233 594 l 1
167 533 m 1
 167 500 l 1
 233 500 l 1
 233 463 l 1
 167 463 l 1
 167 430 l 1
 267 430 l 1
 267 500 l 1
 333 500 l 1
 333 533 l 1
 167 533 l 1
300 473 m 1
 300 407 l 1
 167 407 l 1
 167 373 l 1
 333 373 l 1
 333 473 l 1
 300 473 l 1
233 351 m 1
 233 295 l 1
 267 295 l 1
 267 318 l 1
 300 318 l 1
 300 271 l 1
 200 271 l 1
 200 351 l 1
 167 351 l 1
 167 238 l 1
 333 238 l 1
 333 351 l 1
 233 351 l 1
167 178 m 1
 167 65 l 1
 333 65 l 1
 333 178 l 1
 167 178 l 1
300 98 m 1
 200 98 l 1
 200 145 l 1
 300 145 l 1
 300 98 l 1
167 42 m 1
 167 9 l 1
 237 9 l 1
 167 -38 l 1
 167 -71 l 1
 333 -71 l 1
 333 -38 l 1
 231 -38 l 1
 301 9 l 1
 333 9 l 1
 333 42 l 1
 167 42 l 1
EndSplineSet
EndChar

StartChar: A
Encoding: 65 65 2
Width: 704
Flags: W
LayerCount: 2
Fore
SplineSet
477 0 m 1
 447 135 l 1
 257 135 l 1
 227 0 l 1
 7 0 l 1
 217 730 l 1
 487 730 l 1
 697 0 l 1
 477 0 l 1
293 300 m 1
 411 300 l 1
 353 560 l 1
 351 560 l 1
 293 300 l 1
EndSplineSet
EndChar

StartChar: Aacute
Encoding: 193 193 3
Width: 704
Flags: W
LayerCount: 2
Fore
SplineSet
477 0 m 1
 447 135 l 1
 257 135 l 1
 227 0 l 1
 7 0 l 1
 217 730 l 1
 487 730 l 1
 697 0 l 1
 477 0 l 1
293 300 m 1
 411 300 l 1
 353 560 l 1
 351 560 l 1
 293 300 l 1
408 770 m 1
 238 770 l 1
 298 980 l 1
 528 980 l 1
 408 770 l 1
EndSplineSet
EndChar

StartChar: Abreve
Encoding: 258 258 4
Width: 704
Flags: W
LayerCount: 2
Fore
SplineSet
477 0 m 1
 447 135 l 1
 257 135 l 1
 227 0 l 1
 7 0 l 1
 217 730 l 1
 487 730 l 1
 697 0 l 1
 477 0 l 1
293 300 m 1
 411 300 l 1
 353 560 l 1
 351 560 l 1
 293 300 l 1
223 788 m 0
 185 808 155 834 134 867 c 0
 113 900 102 938 102 980 c 1
 272 980 l 1
 275 949 284 927 296 912 c 0
 310 897 328 890 352 890 c 0
 375 890 394 897 406 912 c 0
 420 927 428 949 432 980 c 1
 602 980 l 1
 602 938 591 900 570 867 c 0
 549 834 519 808 481 788 c 0
 443 770 400 760 352 760 c 0
 304 760 261 770 223 788 c 0
EndSplineSet
EndChar

StartChar: uni1EAE
Encoding: 7854 7854 5
Width: 704
Flags: W
LayerCount: 2
Fore
SplineSet
223 788 m 0
 185 808 155 834 134 867 c 0
 113 900 102 938 102 980 c 1
 241 980 l 1
 298 1180 l 1
 528 1180 l 1
 408 970 l 1
 273 970 l 1
 278 943 286 922 299 910 c 0
 312 896 329 890 352 890 c 0
 375 890 394 897 406 912 c 0
 420 927 428 949 432 980 c 1
 602 980 l 1
 602 938 591 900 570 867 c 0
 549 834 519 808 481 788 c 0
 443 770 400 760 352 760 c 0
 304 760 261 770 223 788 c 0
477 0 m 1
 447 135 l 1
 257 135 l 1
 227 0 l 1
 7 0 l 1
 217 730 l 1
 487 730 l 1
 697 0 l 1
 477 0 l 1
293 300 m 1
 411 300 l 1
 353 560 l 1
 351 560 l 1
 293 300 l 1
EndSplineSet
EndChar

StartChar: uni1EB6
Encoding: 7862 7862 6
Width: 704
Flags: W
LayerCount: 2
Fore
SplineSet
477 0 m 1
 447 135 l 1
 257 135 l 1
 227 0 l 1
 7 0 l 1
 217 730 l 1
 487 730 l 1
 697 0 l 1
 477 0 l 1
293 300 m 1
 411 300 l 1
 353 560 l 1
 351 560 l 1
 293 300 l 1
257 -50 m 1
 447 -50 l 1
 447 -240 l 1
 257 -240 l 1
 257 -50 l 1
223 788 m 0
 185 808 155 834 134 867 c 0
 113 900 102 938 102 980 c 1
 272 980 l 1
 275 949 284 927 296 912 c 0
 310 897 328 890 352 890 c 0
 375 890 394 897 406 912 c 0
 420 927 428 949 432 980 c 1
 602 980 l 1
 602 938 591 900 570 867 c 0
 549 834 519 808 481 788 c 0
 443 770 400 760 352 760 c 0
 304 760 261 770 223 788 c 0
EndSplineSet
EndChar

StartChar: uni1EB0
Encoding: 7856 7856 7
Width: 704
Flags: W
LayerCount: 2
Fore
SplineSet
404 910 m 0
 418 922 426 943 431 970 c 1
 296 970 l 1
 176 1180 l 1
 406 1180 l 1
 463 980 l 1
 602 980 l 1
 602 938 591 900 570 867 c 0
 549 834 519 808 481 788 c 0
 443 770 400 760 352 760 c 0
 304 760 261 770 223 788 c 0
 185 808 155 834 134 867 c 0
 113 900 102 938 102 980 c 1
 272 980 l 1
 275 949 284 927 296 912 c 0
 310 897 328 890 352 890 c 0
 374 890 392 896 404 910 c 0
477 0 m 1
 447 135 l 1
 257 135 l 1
 227 0 l 1
 7 0 l 1
 217 730 l 1
 487 730 l 1
 697 0 l 1
 477 0 l 1
293 300 m 1
 411 300 l 1
 353 560 l 1
 351 560 l 1
 293 300 l 1
EndSplineSet
EndChar

StartChar: uni1EB2
Encoding: 7858 7858 8
Width: 704
Flags: W
LayerCount: 2
Fore
SplineSet
404 910 m 0
 418 922 426 943 431 970 c 1
 362 970 l 1
 369 995 372 1015 372 1030 c 0
 372 1042 369 1050 363 1054 c 0
 357 1058 345 1060 327 1060 c 0
 304 1060 279 1058 252 1054 c 0
 224 1049 197 1043 172 1035 c 1
 157 1170 l 1
 185 1176 217 1181 252 1184 c 0
 288 1188 321 1190 352 1190 c 0
 404 1190 444 1187 472 1182 c 0
 499 1176 519 1166 530 1153 c 0
 541 1140 547 1120 547 1095 c 0
 547 1078 545 1058 542 1038 c 0
 538 1016 533 997 526 980 c 1
 602 980 l 1
 602 938 591 900 570 867 c 0
 549 834 519 808 481 788 c 0
 443 770 400 760 352 760 c 0
 304 760 261 770 223 788 c 0
 185 808 155 834 134 867 c 0
 113 900 102 938 102 980 c 1
 272 980 l 1
 275 949 284 927 296 912 c 0
 310 897 328 890 352 890 c 0
 374 890 392 896 404 910 c 0
477 0 m 1
 447 135 l 1
 257 135 l 1
 227 0 l 1
 7 0 l 1
 217 730 l 1
 487 730 l 1
 697 0 l 1
 477 0 l 1
293 300 m 1
 411 300 l 1
 353 560 l 1
 351 560 l 1
 293 300 l 1
EndSplineSet
EndChar

StartChar: uni1EB4
Encoding: 7860 7860 9
Width: 704
Flags: W
LayerCount: 2
Fore
SplineSet
477 0 m 1
 447 135 l 1
 257 135 l 1
 227 0 l 1
 7 0 l 1
 217 730 l 1
 487 730 l 1
 697 0 l 1
 477 0 l 1
293 300 m 1
 411 300 l 1
 353 560 l 1
 351 560 l 1
 293 300 l 1
223 788 m 0
 185 808 155 834 134 867 c 0
 113 900 102 938 102 980 c 1
 272 980 l 1
 275 949 284 927 296 912 c 0
 310 897 328 890 352 890 c 0
 375 890 394 897 406 912 c 0
 420 927 428 949 432 980 c 1
 602 980 l 1
 602 938 591 900 570 867 c 0
 549 834 519 808 481 788 c 0
 443 770 400 760 352 760 c 0
 304 760 261 770 223 788 c 0
329 1062 m 0
 304 1077 285 1085 272 1085 c 0
 263 1085 258 1081 254 1072 c 0
 252 1064 250 1047 250 1020 c 1
 102 1020 l 1
 102 1095 112 1150 132 1186 c 0
 153 1222 184 1240 227 1240 c 0
 270 1240 319 1223 375 1188 c 0
 400 1173 419 1165 432 1165 c 0
 441 1165 446 1169 450 1178 c 0
 452 1186 454 1203 454 1230 c 1
 602 1230 l 1
 602 1155 592 1100 572 1064 c 0
 551 1028 520 1010 477 1010 c 0
 434 1010 385 1027 329 1062 c 0
EndSplineSet
EndChar

StartChar: Acircumflex
Encoding: 194 194 10
Width: 704
Flags: W
LayerCount: 2
Fore
SplineSet
477 0 m 1
 447 135 l 1
 257 135 l 1
 227 0 l 1
 7 0 l 1
 217 730 l 1
 487 730 l 1
 697 0 l 1
 477 0 l 1
293 300 m 1
 411 300 l 1
 353 560 l 1
 351 560 l 1
 293 300 l 1
202 980 m 1
 502 980 l 1
 622 770 l 1
 412 770 l 1
 353 910 l 1
 351 910 l 1
 292 770 l 1
 82 770 l 1
 202 980 l 1
EndSplineSet
EndChar

StartChar: uni1EA4
Encoding: 7844 7844 11
Width: 704
Flags: W
LayerCount: 2
Fore
SplineSet
351 910 m 1
 292 770 l 1
 82 770 l 1
 202 980 l 1
 481 980 l 1
 532 1160 l 1
 762 1160 l 1
 642 950 l 1
 519 950 l 1
 622 770 l 1
 412 770 l 1
 353 910 l 1
 351 910 l 1
217 730 m 1
 487 730 l 1
 697 0 l 1
 477 0 l 1
 447 135 l 1
 257 135 l 1
 227 0 l 1
 7 0 l 1
 217 730 l 1
293 300 m 1
 411 300 l 1
 353 560 l 1
 351 560 l 1
 293 300 l 1
EndSplineSet
EndChar

StartChar: uni1EAC
Encoding: 7852 7852 12
Width: 704
Flags: W
LayerCount: 2
Fore
SplineSet
477 0 m 1
 447 135 l 1
 257 135 l 1
 227 0 l 1
 7 0 l 1
 217 730 l 1
 487 730 l 1
 697 0 l 1
 477 0 l 1
293 300 m 1
 411 300 l 1
 353 560 l 1
 351 560 l 1
 293 300 l 1
257 -50 m 1
 447 -50 l 1
 447 -240 l 1
 257 -240 l 1
 257 -50 l 1
202 980 m 1
 502 980 l 1
 622 770 l 1
 412 770 l 1
 353 910 l 1
 351 910 l 1
 292 770 l 1
 82 770 l 1
 202 980 l 1
EndSplineSet
EndChar

StartChar: uni1EA6
Encoding: 7846 7846 13
Width: 704
Flags: W
LayerCount: 2
Fore
SplineSet
185 950 m 1
 62 950 l 1
 -58 1160 l 1
 172 1160 l 1
 223 980 l 1
 502 980 l 1
 622 770 l 1
 412 770 l 1
 353 910 l 1
 351 910 l 1
 292 770 l 1
 82 770 l 1
 185 950 l 1
477 0 m 1
 447 135 l 1
 257 135 l 1
 227 0 l 1
 7 0 l 1
 217 730 l 1
 487 730 l 1
 697 0 l 1
 477 0 l 1
293 300 m 1
 411 300 l 1
 353 560 l 1
 351 560 l 1
 293 300 l 1
EndSplineSet
EndChar

StartChar: uni1EA8
Encoding: 7848 7848 14
Width: 704
Flags: W
LayerCount: 2
Fore
SplineSet
292 770 m 1
 82 770 l 1
 202 980 l 1
 483 980 l 1
 485 991 486 1001 486 1010 c 0
 486 1022 483 1030 477 1034 c 0
 471 1038 459 1040 441 1040 c 0
 418 1040 393 1038 366 1034 c 0
 338 1029 311 1023 286 1015 c 1
 271 1150 l 1
 299 1156 331 1161 366 1164 c 0
 402 1168 435 1170 466 1170 c 0
 518 1170 558 1167 586 1162 c 0
 613 1156 633 1146 644 1133 c 0
 655 1120 661 1100 661 1075 c 0
 661 1056 659 1035 654 1012 c 0
 649 989 643 968 636 950 c 1
 519 950 l 1
 622 770 l 1
 412 770 l 1
 353 910 l 1
 351 910 l 1
 292 770 l 1
477 0 m 1
 447 135 l 1
 257 135 l 1
 227 0 l 1
 7 0 l 1
 217 730 l 1
 487 730 l 1
 697 0 l 1
 477 0 l 1
293 300 m 1
 411 300 l 1
 353 560 l 1
 351 560 l 1
 293 300 l 1
EndSplineSet
EndChar

StartChar: uni1EAA
Encoding: 7850 7850 15
Width: 704
Flags: W
LayerCount: 2
Fore
SplineSet
477 0 m 1
 447 135 l 1
 257 135 l 1
 227 0 l 1
 7 0 l 1
 217 730 l 1
 487 730 l 1
 697 0 l 1
 477 0 l 1
293 300 m 1
 411 300 l 1
 353 560 l 1
 351 560 l 1
 293 300 l 1
202 980 m 1
 502 980 l 1
 622 770 l 1
 412 770 l 1
 353 910 l 1
 351 910 l 1
 292 770 l 1
 82 770 l 1
 202 980 l 1
329 1062 m 0
 304 1077 285 1085 272 1085 c 0
 263 1085 258 1081 254 1072 c 0
 252 1064 250 1047 250 1020 c 1
 102 1020 l 1
 102 1095 112 1150 132 1186 c 0
 153 1222 184 1240 227 1240 c 0
 270 1240 319 1223 375 1188 c 0
 400 1173 419 1165 432 1165 c 0
 441 1165 446 1169 450 1178 c 0
 452 1186 454 1203 454 1230 c 1
 602 1230 l 1
 602 1155 592 1100 572 1064 c 0
 551 1028 520 1010 477 1010 c 0
 434 1010 385 1027 329 1062 c 0
EndSplineSet
EndChar

StartChar: uni0200
Encoding: 512 512 16
Width: 704
Flags: W
LayerCount: 2
Fore
SplineSet
477 0 m 1
 447 135 l 1
 257 135 l 1
 227 0 l 1
 7 0 l 1
 217 730 l 1
 487 730 l 1
 697 0 l 1
 477 0 l 1
293 300 m 1
 411 300 l 1
 353 560 l 1
 351 560 l 1
 293 300 l 1
38 980 m 1
 268 980 l 1
 328 770 l 1
 158 770 l 1
 38 980 l 1
308 980 m 1
 538 980 l 1
 598 770 l 1
 428 770 l 1
 308 980 l 1
EndSplineSet
EndChar

StartChar: Adieresis
Encoding: 196 196 17
Width: 704
Flags: W
LayerCount: 2
Fore
SplineSet
477 0 m 1
 447 135 l 1
 257 135 l 1
 227 0 l 1
 7 0 l 1
 217 730 l 1
 487 730 l 1
 697 0 l 1
 477 0 l 1
293 300 m 1
 411 300 l 1
 353 560 l 1
 351 560 l 1
 293 300 l 1
122 970 m 1
 312 970 l 1
 312 780 l 1
 122 780 l 1
 122 970 l 1
392 970 m 1
 582 970 l 1
 582 780 l 1
 392 780 l 1
 392 970 l 1
EndSplineSet
EndChar

StartChar: uni1EA0
Encoding: 7840 7840 18
Width: 704
Flags: W
LayerCount: 2
Fore
SplineSet
477 0 m 1
 447 135 l 1
 257 135 l 1
 227 0 l 1
 7 0 l 1
 217 730 l 1
 487 730 l 1
 697 0 l 1
 477 0 l 1
293 300 m 1
 411 300 l 1
 353 560 l 1
 351 560 l 1
 293 300 l 1
257 -50 m 1
 447 -50 l 1
 447 -240 l 1
 257 -240 l 1
 257 -50 l 1
EndSplineSet
EndChar

StartChar: Agrave
Encoding: 192 192 19
Width: 704
Flags: W
LayerCount: 2
Fore
SplineSet
477 0 m 1
 447 135 l 1
 257 135 l 1
 227 0 l 1
 7 0 l 1
 217 730 l 1
 487 730 l 1
 697 0 l 1
 477 0 l 1
293 300 m 1
 411 300 l 1
 353 560 l 1
 351 560 l 1
 293 300 l 1
176 980 m 1
 406 980 l 1
 466 770 l 1
 296 770 l 1
 176 980 l 1
EndSplineSet
EndChar

StartChar: uni1EA2
Encoding: 7842 7842 20
Width: 704
Flags: W
LayerCount: 2
Fore
SplineSet
477 0 m 1
 447 135 l 1
 257 135 l 1
 227 0 l 1
 7 0 l 1
 217 730 l 1
 487 730 l 1
 697 0 l 1
 477 0 l 1
293 300 m 1
 411 300 l 1
 353 560 l 1
 351 560 l 1
 293 300 l 1
372 830 m 0
 372 842 369 850 363 854 c 0
 357 858 345 860 327 860 c 0
 304 860 279 858 252 854 c 0
 224 849 197 843 172 835 c 1
 157 970 l 1
 185 976 217 981 252 984 c 0
 288 988 321 990 352 990 c 0
 404 990 444 987 472 982 c 0
 499 976 519 966 530 953 c 0
 541 940 547 920 547 895 c 0
 547 876 545 855 540 832 c 0
 535 809 529 788 522 770 c 1
 362 770 l 1
 369 795 372 815 372 830 c 0
EndSplineSet
EndChar

StartChar: uni0202
Encoding: 514 514 21
Width: 704
Flags: W
LayerCount: 2
Fore
SplineSet
477 0 m 1
 447 135 l 1
 257 135 l 1
 227 0 l 1
 7 0 l 1
 217 730 l 1
 487 730 l 1
 697 0 l 1
 477 0 l 1
293 300 m 1
 411 300 l 1
 353 560 l 1
 351 560 l 1
 293 300 l 1
481 962 m 0
 519 942 549 916 570 883 c 0
 591 850 602 812 602 770 c 1
 432 770 l 1
 428 801 420 823 406 838 c 0
 394 853 375 860 352 860 c 0
 328 860 310 853 296 838 c 0
 284 823 275 801 272 770 c 1
 102 770 l 1
 102 812 113 850 134 883 c 0
 155 916 185 942 223 962 c 0
 261 980 304 990 352 990 c 0
 400 990 443 980 481 962 c 0
EndSplineSet
EndChar

StartChar: Amacron
Encoding: 256 256 22
Width: 704
Flags: W
LayerCount: 2
Fore
SplineSet
477 0 m 1
 447 135 l 1
 257 135 l 1
 227 0 l 1
 7 0 l 1
 217 730 l 1
 487 730 l 1
 697 0 l 1
 477 0 l 1
293 300 m 1
 411 300 l 1
 353 560 l 1
 351 560 l 1
 293 300 l 1
142 945 m 1
 562 945 l 1
 562 805 l 1
 142 805 l 1
 142 945 l 1
EndSplineSet
EndChar

StartChar: Aogonek
Encoding: 260 260 23
Width: 704
Flags: W
LayerCount: 2
Fore
SplineSet
789 -200 m 1
 753 -213 711 -220 664 -220 c 0
 595 -220 542 -208 505 -184 c 0
 468 -160 449 -126 449 -82 c 0
 449 -53 458 -26 477 1 c 1
 447 135 l 1
 257 135 l 1
 227 0 l 1
 7 0 l 1
 217 730 l 1
 487 730 l 1
 697 0 l 1
 649 -19 625 -38 625 -57 c 0
 625 -66 629 -73 638 -78 c 0
 647 -83 659 -85 676 -85 c 0
 691 -85 707 -83 724 -80 c 0
 742 -76 759 -71 774 -65 c 1
 789 -200 l 1
293 300 m 1
 411 300 l 1
 353 560 l 1
 351 560 l 1
 293 300 l 1
EndSplineSet
EndChar

StartChar: Aring
Encoding: 197 197 24
Width: 704
Flags: W
LayerCount: 2
Fore
SplineSet
447 135 m 1
 257 135 l 1
 227 0 l 1
 7 0 l 1
 217 728 l 1
 194 758 183 792 183 830 c 0
 183 861 191 889 206 915 c 0
 221 941 242 962 268 977 c 0
 294 992 322 1000 353 1000 c 0
 384 1000 412 992 438 977 c 0
 464 962 485 941 500 915 c 0
 515 889 523 861 523 830 c 0
 523 791 511 757 488 727 c 1
 697 0 l 1
 477 0 l 1
 447 135 l 1
314 869 m 0
 303 858 298 845 298 830 c 0
 298 815 303 802 314 791 c 0
 325 780 338 775 353 775 c 0
 368 775 381 780 392 791 c 0
 403 802 408 815 408 830 c 0
 408 845 403 858 392 869 c 0
 381 880 368 885 353 885 c 0
 338 885 325 880 314 869 c 0
293 300 m 1
 411 300 l 1
 353 560 l 1
 351 560 l 1
 293 300 l 1
EndSplineSet
EndChar

StartChar: Aringacute
Encoding: 506 506 25
Width: 704
Flags: W
LayerCount: 2
Fore
SplineSet
447 135 m 1
 257 135 l 1
 227 0 l 1
 7 0 l 1
 217 728 l 1
 194 758 183 792 183 830 c 0
 183 855 188 878 198 900 c 0
 208 921 222 940 239 957 c 1
 299 1165 l 1
 529 1165 l 1
 425 984 l 1
 454 970 478 949 496 922 c 0
 514 894 523 863 523 830 c 0
 523 791 511 757 488 727 c 1
 697 0 l 1
 477 0 l 1
 447 135 l 1
314 869 m 0
 303 858 298 845 298 830 c 0
 298 815 303 802 314 791 c 0
 325 780 338 775 353 775 c 0
 368 775 381 780 392 791 c 0
 403 802 408 815 408 830 c 0
 408 845 403 858 392 869 c 0
 381 880 368 885 353 885 c 0
 338 885 325 880 314 869 c 0
293 300 m 1
 411 300 l 1
 353 560 l 1
 351 560 l 1
 293 300 l 1
EndSplineSet
EndChar

StartChar: Atilde
Encoding: 195 195 26
Width: 704
Flags: W
LayerCount: 2
Fore
SplineSet
477 0 m 1
 447 135 l 1
 257 135 l 1
 227 0 l 1
 7 0 l 1
 217 730 l 1
 487 730 l 1
 697 0 l 1
 477 0 l 1
293 300 m 1
 411 300 l 1
 353 560 l 1
 351 560 l 1
 293 300 l 1
329 812 m 0
 304 827 285 835 272 835 c 0
 263 835 258 831 254 822 c 0
 252 814 250 797 250 770 c 1
 102 770 l 1
 102 845 112 900 132 936 c 0
 153 972 184 990 227 990 c 0
 270 990 319 973 375 938 c 0
 400 923 419 915 432 915 c 0
 441 915 446 919 450 928 c 0
 452 936 454 953 454 980 c 1
 602 980 l 1
 602 905 592 850 572 814 c 0
 551 778 520 760 477 760 c 0
 434 760 385 777 329 812 c 0
EndSplineSet
EndChar

StartChar: AE
Encoding: 198 198 27
Width: 912
Flags: W
LayerCount: 2
Fore
SplineSet
857 570 m 1
 607 570 l 1
 607 453 l 1
 837 453 l 1
 837 298 l 1
 607 298 l 1
 607 160 l 1
 857 160 l 1
 857 0 l 1
 407 0 l 1
 407 135 l 1
 263 135 l 1
 227 0 l 1
 7 0 l 1
 247 730 l 1
 857 730 l 1
 857 570 l 1
306 300 m 1
 407 300 l 1
 407 570 l 1
 377 570 l 1
 306 300 l 1
EndSplineSet
EndChar

StartChar: AEacute
Encoding: 508 508 28
Width: 912
Flags: W
LayerCount: 2
Fore
SplineSet
857 570 m 1
 607 570 l 1
 607 453 l 1
 837 453 l 1
 837 298 l 1
 607 298 l 1
 607 160 l 1
 857 160 l 1
 857 0 l 1
 407 0 l 1
 407 135 l 1
 263 135 l 1
 227 0 l 1
 7 0 l 1
 247 730 l 1
 857 730 l 1
 857 570 l 1
306 300 m 1
 407 300 l 1
 407 570 l 1
 377 570 l 1
 306 300 l 1
536 770 m 1
 366 770 l 1
 426 980 l 1
 656 980 l 1
 536 770 l 1
EndSplineSet
EndChar

StartChar: B
Encoding: 66 66 29
Width: 678
Flags: W
LayerCount: 2
Fore
SplineSet
602 329 m 0
 630 300 645 260 645 210 c 0
 645 141 618 89 563 54 c 0
 508 18 429 0 325 0 c 2
 65 0 l 1
 65 730 l 1
 315 730 l 2
 416 730 493 715 546 684 c 0
 599 653 625 609 625 550 c 0
 625 505 612 469 586 440 c 0
 559 411 522 393 475 386 c 1
 475 384 l 1
 530 377 572 358 602 329 c 0
265 575 m 1
 265 450 l 1
 325 450 l 2
 362 450 388 455 403 464 c 0
 418 473 425 489 425 512 c 0
 425 535 418 551 402 560 c 0
 388 570 362 575 325 575 c 2
 265 575 l 1
412 172 m 0
 431 184 440 203 440 228 c 0
 440 253 431 272 412 283 c 0
 394 294 365 300 325 300 c 2
 265 300 l 1
 265 155 l 1
 325 155 l 2
 364 155 393 161 412 172 c 0
EndSplineSet
EndChar

StartChar: C
Encoding: 67 67 30
Width: 696
Flags: W
LayerCount: 2
Fore
SplineSet
128 87 m 0
 64 152 32 244 32 365 c 0
 32 486 64 578 128 643 c 0
 192 708 283 740 402 740 c 0
 498 740 583 718 657 674 c 1
 577 519 l 1
 546 536 518 549 492 558 c 0
 465 566 439 570 412 570 c 0
 355 570 312 552 282 517 c 0
 252 482 237 431 237 365 c 0
 237 299 252 248 282 213 c 0
 312 178 355 160 412 160 c 0
 439 160 465 164 492 172 c 0
 518 181 546 194 577 211 c 1
 657 56 l 1
 583 12 498 -10 402 -10 c 0
 283 -10 192 22 128 87 c 0
EndSplineSet
EndChar

StartChar: Cacute
Encoding: 262 262 31
Width: 696
Flags: W
LayerCount: 2
Fore
SplineSet
128 87 m 0
 64 152 32 244 32 365 c 0
 32 486 64 578 128 643 c 0
 192 708 283 740 402 740 c 0
 498 740 583 718 657 674 c 1
 577 519 l 1
 546 536 518 549 492 558 c 0
 465 566 439 570 412 570 c 0
 355 570 312 552 282 517 c 0
 252 482 237 431 237 365 c 0
 237 299 252 248 282 213 c 0
 312 178 355 160 412 160 c 0
 439 160 465 164 492 172 c 0
 518 181 546 194 577 211 c 1
 657 56 l 1
 583 12 498 -10 402 -10 c 0
 283 -10 192 22 128 87 c 0
436 770 m 1
 266 770 l 1
 326 980 l 1
 556 980 l 1
 436 770 l 1
EndSplineSet
EndChar

StartChar: Ccaron
Encoding: 268 268 32
Width: 696
Flags: W
LayerCount: 2
Fore
SplineSet
128 87 m 0
 64 152 32 244 32 365 c 0
 32 486 64 578 128 643 c 0
 192 708 283 740 402 740 c 0
 498 740 583 718 657 674 c 1
 577 519 l 1
 546 536 518 549 492 558 c 0
 465 566 439 570 412 570 c 0
 355 570 312 552 282 517 c 0
 252 482 237 431 237 365 c 0
 237 299 252 248 282 213 c 0
 312 178 355 160 412 160 c 0
 439 160 465 164 492 172 c 0
 518 181 546 194 577 211 c 1
 657 56 l 1
 583 12 498 -10 402 -10 c 0
 283 -10 192 22 128 87 c 0
110 980 m 1
 320 980 l 1
 379 840 l 1
 381 840 l 1
 440 980 l 1
 650 980 l 1
 530 770 l 1
 230 770 l 1
 110 980 l 1
EndSplineSet
EndChar

StartChar: Ccedilla
Encoding: 199 199 33
Width: 696
Flags: W
LayerCount: 2
Fore
SplineSet
657 56 m 1
 615 31 570 13 521 2 c 1
 540 -24 550 -52 550 -82 c 0
 550 -126 531 -160 494 -184 c 0
 457 -208 404 -220 335 -220 c 0
 288 -220 246 -213 210 -200 c 1
 225 -65 l 1
 240 -71 257 -76 274 -80 c 0
 292 -83 308 -85 323 -85 c 0
 340 -85 352 -83 361 -78 c 0
 370 -73 374 -66 374 -57 c 0
 374 -38 352 -19 307 -2 c 1
 218 14 150 53 102 116 c 0
 56 179 32 262 32 365 c 0
 32 486 64 578 128 643 c 0
 192 708 283 740 402 740 c 0
 498 740 583 718 657 674 c 1
 577 519 l 1
 546 536 518 549 492 558 c 0
 465 566 439 570 412 570 c 0
 355 570 312 552 282 517 c 0
 252 482 237 431 237 365 c 0
 237 299 252 248 282 213 c 0
 312 178 355 160 412 160 c 0
 439 160 465 164 492 172 c 0
 518 181 546 194 577 211 c 1
 657 56 l 1
EndSplineSet
EndChar

StartChar: Ccircumflex
Encoding: 264 264 34
Width: 696
Flags: W
LayerCount: 2
Fore
SplineSet
128 87 m 0
 64 152 32 244 32 365 c 0
 32 486 64 578 128 643 c 0
 192 708 283 740 402 740 c 0
 498 740 583 718 657 674 c 1
 577 519 l 1
 546 536 518 549 492 558 c 0
 465 566 439 570 412 570 c 0
 355 570 312 552 282 517 c 0
 252 482 237 431 237 365 c 0
 237 299 252 248 282 213 c 0
 312 178 355 160 412 160 c 0
 439 160 465 164 492 172 c 0
 518 181 546 194 577 211 c 1
 657 56 l 1
 583 12 498 -10 402 -10 c 0
 283 -10 192 22 128 87 c 0
230 980 m 1
 530 980 l 1
 650 770 l 1
 440 770 l 1
 381 910 l 1
 379 910 l 1
 320 770 l 1
 110 770 l 1
 230 980 l 1
EndSplineSet
EndChar

StartChar: Cdotaccent
Encoding: 266 266 35
Width: 696
Flags: W
LayerCount: 2
Fore
SplineSet
128 87 m 0
 64 152 32 244 32 365 c 0
 32 486 64 578 128 643 c 0
 192 708 283 740 402 740 c 0
 498 740 583 718 657 674 c 1
 577 519 l 1
 546 536 518 549 492 558 c 0
 465 566 439 570 412 570 c 0
 355 570 312 552 282 517 c 0
 252 482 237 431 237 365 c 0
 237 299 252 248 282 213 c 0
 312 178 355 160 412 160 c 0
 439 160 465 164 492 172 c 0
 518 181 546 194 577 211 c 1
 657 56 l 1
 583 12 498 -10 402 -10 c 0
 283 -10 192 22 128 87 c 0
285 970 m 1
 475 970 l 1
 475 780 l 1
 285 780 l 1
 285 970 l 1
EndSplineSet
EndChar

StartChar: D
Encoding: 68 68 36
Width: 697
Flags: W
LayerCount: 2
Fore
SplineSet
295 730 m 2
 382 730 452 717 506 692 c 0
 561 667 601 627 626 574 c 0
 652 521 665 451 665 365 c 0
 665 279 652 209 626 156 c 0
 601 103 561 63 506 38 c 0
 452 13 382 0 295 0 c 2
 65 0 l 1
 65 730 l 1
 295 730 l 2
400 178 m 0
 422 191 438 212 446 240 c 0
 456 270 460 311 460 365 c 0
 460 419 456 460 446 490 c 0
 438 518 422 539 400 552 c 0
 379 564 348 570 308 570 c 2
 265 570 l 1
 265 160 l 1
 308 160 l 2
 348 160 379 166 400 178 c 0
EndSplineSet
EndChar

StartChar: uni01C4
Encoding: 452 452 37
Width: 1311
Flags: W
LayerCount: 2
Fore
SplineSet
295 730 m 2
 382 730 452 717 506 692 c 0
 561 667 601 627 626 574 c 0
 652 521 665 451 665 365 c 0
 665 279 652 209 626 156 c 0
 601 103 561 63 506 38 c 0
 452 13 382 0 295 0 c 2
 65 0 l 1
 65 730 l 1
 295 730 l 2
400 178 m 0
 422 191 438 212 446 240 c 0
 456 270 460 311 460 365 c 0
 460 419 456 460 446 490 c 0
 438 518 422 539 400 552 c 0
 379 564 348 570 308 570 c 2
 265 570 l 1
 265 160 l 1
 308 160 l 2
 348 160 379 166 400 178 c 0
719 165 m 1
 1024 563 l 1
 1024 565 l 1
 719 565 l 1
 719 730 l 1
 1259 730 l 1
 1259 565 l 1
 954 167 l 1
 954 165 l 1
 1259 165 l 1
 1259 0 l 1
 719 0 l 1
 719 165 l 1
719 980 m 1
 929 980 l 1
 988 840 l 1
 990 840 l 1
 1049 980 l 1
 1259 980 l 1
 1139 770 l 1
 839 770 l 1
 719 980 l 1
EndSplineSet
EndChar

StartChar: Eth
Encoding: 208 208 38
Width: 759
Flags: W
LayerCount: 2
Fore
SplineSet
568 692 m 0
 623 667 663 627 688 574 c 0
 714 521 727 451 727 365 c 0
 727 279 714 209 688 156 c 0
 663 103 623 63 568 38 c 0
 514 13 444 0 357 0 c 2
 127 0 l 1
 127 295 l 1
 22 295 l 1
 22 435 l 1
 127 435 l 1
 127 730 l 1
 357 730 l 2
 444 730 514 717 568 692 c 0
462 178 m 0
 484 191 500 212 508 240 c 0
 518 270 522 311 522 365 c 0
 522 419 518 460 508 490 c 0
 500 518 484 539 462 552 c 0
 441 564 410 570 370 570 c 2
 327 570 l 1
 327 435 l 1
 448 435 l 1
 448 295 l 1
 327 295 l 1
 327 160 l 1
 370 160 l 2
 410 160 441 166 462 178 c 0
EndSplineSet
EndChar

StartChar: Dcaron
Encoding: 270 270 39
Width: 697
Flags: W
LayerCount: 2
Fore
SplineSet
295 730 m 2
 382 730 452 717 506 692 c 0
 561 667 601 627 626 574 c 0
 652 521 665 451 665 365 c 0
 665 279 652 209 626 156 c 0
 601 103 561 63 506 38 c 0
 452 13 382 0 295 0 c 2
 65 0 l 1
 65 730 l 1
 295 730 l 2
400 178 m 0
 422 191 438 212 446 240 c 0
 456 270 460 311 460 365 c 0
 460 419 456 460 446 490 c 0
 438 518 422 539 400 552 c 0
 379 564 348 570 308 570 c 2
 265 570 l 1
 265 160 l 1
 308 160 l 2
 348 160 379 166 400 178 c 0
79 980 m 1
 289 980 l 1
 348 840 l 1
 350 840 l 1
 409 980 l 1
 619 980 l 1
 499 770 l 1
 199 770 l 1
 79 980 l 1
EndSplineSet
EndChar

StartChar: Dcroat
Encoding: 272 272 40
Width: 759
Flags: W
LayerCount: 2
Fore
SplineSet
568 692 m 0
 623 667 663 627 688 574 c 0
 714 521 727 451 727 365 c 0
 727 279 714 209 688 156 c 0
 663 103 623 63 568 38 c 0
 514 13 444 0 357 0 c 2
 127 0 l 1
 127 295 l 1
 22 295 l 1
 22 435 l 1
 127 435 l 1
 127 730 l 1
 357 730 l 2
 444 730 514 717 568 692 c 0
462 178 m 0
 484 191 500 212 508 240 c 0
 518 270 522 311 522 365 c 0
 522 419 518 460 508 490 c 0
 500 518 484 539 462 552 c 0
 441 564 410 570 370 570 c 2
 327 570 l 1
 327 435 l 1
 448 435 l 1
 448 295 l 1
 327 295 l 1
 327 160 l 1
 370 160 l 2
 410 160 441 166 462 178 c 0
EndSplineSet
EndChar

StartChar: uni01C5
Encoding: 453 453 41
Width: 1263
Flags: W
LayerCount: 2
Fore
SplineSet
295 730 m 2
 382 730 452 717 506 692 c 0
 561 667 601 627 626 574 c 0
 652 521 665 451 665 365 c 0
 665 279 652 209 626 156 c 0
 601 103 561 63 506 38 c 0
 452 13 382 0 295 0 c 2
 65 0 l 1
 65 730 l 1
 295 730 l 2
400 178 m 0
 422 191 438 212 446 240 c 0
 456 270 460 311 460 365 c 0
 460 419 456 460 446 490 c 0
 438 518 422 539 400 552 c 0
 379 564 348 570 308 570 c 2
 265 570 l 1
 265 160 l 1
 308 160 l 2
 348 160 379 166 400 178 c 0
740 140 m 1
 963 378 l 1
 963 380 l 1
 740 380 l 1
 740 520 l 1
 1210 520 l 1
 1210 380 l 1
 987 142 l 1
 987 140 l 1
 1210 140 l 1
 1210 0 l 1
 740 0 l 1
 740 140 l 1
705 770 m 1
 915 770 l 1
 974 630 l 1
 976 630 l 1
 1035 770 l 1
 1245 770 l 1
 1125 560 l 1
 825 560 l 1
 705 770 l 1
EndSplineSet
EndChar

StartChar: E
Encoding: 69 69 42
Width: 610
Flags: W
LayerCount: 2
Fore
SplineSet
65 730 m 1
 555 730 l 1
 555 570 l 1
 265 570 l 1
 265 453 l 1
 535 453 l 1
 535 298 l 1
 265 298 l 1
 265 160 l 1
 555 160 l 1
 555 0 l 1
 65 0 l 1
 65 730 l 1
EndSplineSet
EndChar

StartChar: Eacute
Encoding: 201 201 43
Width: 610
Flags: W
LayerCount: 2
Fore
SplineSet
65 730 m 1
 555 730 l 1
 555 570 l 1
 265 570 l 1
 265 453 l 1
 535 453 l 1
 535 298 l 1
 265 298 l 1
 265 160 l 1
 555 160 l 1
 555 0 l 1
 65 0 l 1
 65 730 l 1
366 770 m 1
 196 770 l 1
 256 980 l 1
 486 980 l 1
 366 770 l 1
EndSplineSet
EndChar

StartChar: Ebreve
Encoding: 276 276 44
Width: 610
Flags: W
LayerCount: 2
Fore
SplineSet
65 730 m 1
 555 730 l 1
 555 570 l 1
 265 570 l 1
 265 453 l 1
 535 453 l 1
 535 298 l 1
 265 298 l 1
 265 160 l 1
 555 160 l 1
 555 0 l 1
 65 0 l 1
 65 730 l 1
181 788 m 0
 143 808 113 834 92 867 c 0
 71 900 60 938 60 980 c 1
 230 980 l 1
 233 949 242 927 254 912 c 0
 268 897 286 890 310 890 c 0
 333 890 352 897 364 912 c 0
 378 927 386 949 390 980 c 1
 560 980 l 1
 560 938 549 900 528 867 c 0
 507 834 477 808 439 788 c 0
 401 770 358 760 310 760 c 0
 262 760 219 770 181 788 c 0
EndSplineSet
EndChar

StartChar: Ecaron
Encoding: 282 282 45
Width: 610
Flags: W
LayerCount: 2
Fore
SplineSet
65 730 m 1
 555 730 l 1
 555 570 l 1
 265 570 l 1
 265 453 l 1
 535 453 l 1
 535 298 l 1
 265 298 l 1
 265 160 l 1
 555 160 l 1
 555 0 l 1
 65 0 l 1
 65 730 l 1
40 980 m 1
 250 980 l 1
 309 840 l 1
 311 840 l 1
 370 980 l 1
 580 980 l 1
 460 770 l 1
 160 770 l 1
 40 980 l 1
EndSplineSet
EndChar

StartChar: Ecircumflex
Encoding: 202 202 46
Width: 610
Flags: W
LayerCount: 2
Fore
SplineSet
65 730 m 1
 555 730 l 1
 555 570 l 1
 265 570 l 1
 265 453 l 1
 535 453 l 1
 535 298 l 1
 265 298 l 1
 265 160 l 1
 555 160 l 1
 555 0 l 1
 65 0 l 1
 65 730 l 1
160 980 m 1
 460 980 l 1
 580 770 l 1
 370 770 l 1
 311 910 l 1
 309 910 l 1
 250 770 l 1
 40 770 l 1
 160 980 l 1
EndSplineSet
EndChar

StartChar: uni1EBE
Encoding: 7870 7870 47
Width: 610
Flags: W
LayerCount: 2
Fore
SplineSet
720 1160 m 1
 600 950 l 1
 477 950 l 1
 580 770 l 1
 370 770 l 1
 311 910 l 1
 309 910 l 1
 250 770 l 1
 40 770 l 1
 160 980 l 1
 439 980 l 1
 490 1160 l 1
 720 1160 l 1
65 0 m 1
 65 730 l 1
 555 730 l 1
 555 570 l 1
 265 570 l 1
 265 453 l 1
 535 453 l 1
 535 298 l 1
 265 298 l 1
 265 160 l 1
 555 160 l 1
 555 0 l 1
 65 0 l 1
EndSplineSet
EndChar

StartChar: uni1EC6
Encoding: 7878 7878 48
Width: 610
Flags: W
LayerCount: 2
Fore
SplineSet
65 730 m 1
 555 730 l 1
 555 570 l 1
 265 570 l 1
 265 453 l 1
 535 453 l 1
 535 298 l 1
 265 298 l 1
 265 160 l 1
 555 160 l 1
 555 0 l 1
 65 0 l 1
 65 730 l 1
215 -50 m 1
 405 -50 l 1
 405 -240 l 1
 215 -240 l 1
 215 -50 l 1
160 980 m 1
 460 980 l 1
 580 770 l 1
 370 770 l 1
 311 910 l 1
 309 910 l 1
 250 770 l 1
 40 770 l 1
 160 980 l 1
EndSplineSet
EndChar

StartChar: uni1EC0
Encoding: 7872 7872 49
Width: 610
Flags: W
LayerCount: 2
Fore
SplineSet
250 770 m 1
 40 770 l 1
 143 950 l 1
 20 950 l 1
 -100 1160 l 1
 130 1160 l 1
 181 980 l 1
 460 980 l 1
 580 770 l 1
 370 770 l 1
 311 910 l 1
 309 910 l 1
 250 770 l 1
65 0 m 1
 65 730 l 1
 555 730 l 1
 555 570 l 1
 265 570 l 1
 265 453 l 1
 535 453 l 1
 535 298 l 1
 265 298 l 1
 265 160 l 1
 555 160 l 1
 555 0 l 1
 65 0 l 1
EndSplineSet
EndChar

StartChar: uni1EC2
Encoding: 7874 7874 50
Width: 610
Flags: W
LayerCount: 2
Fore
SplineSet
612 1012 m 0
 607 989 601 968 594 950 c 1
 477 950 l 1
 580 770 l 1
 370 770 l 1
 311 910 l 1
 309 910 l 1
 250 770 l 1
 40 770 l 1
 160 980 l 1
 441 980 l 1
 443 991 444 1001 444 1010 c 0
 444 1022 441 1030 435 1034 c 0
 429 1038 417 1040 399 1040 c 0
 376 1040 351 1038 324 1034 c 0
 296 1029 269 1023 244 1015 c 1
 229 1150 l 1
 257 1156 289 1161 324 1164 c 0
 360 1168 393 1170 424 1170 c 0
 476 1170 516 1167 544 1162 c 0
 571 1156 591 1146 602 1133 c 0
 613 1120 619 1100 619 1075 c 0
 619 1056 617 1035 612 1012 c 0
65 0 m 1
 65 730 l 1
 555 730 l 1
 555 570 l 1
 265 570 l 1
 265 453 l 1
 535 453 l 1
 535 298 l 1
 265 298 l 1
 265 160 l 1
 555 160 l 1
 555 0 l 1
 65 0 l 1
EndSplineSet
EndChar

StartChar: uni1EC4
Encoding: 7876 7876 51
Width: 610
Flags: W
LayerCount: 2
Fore
SplineSet
65 730 m 1
 555 730 l 1
 555 570 l 1
 265 570 l 1
 265 453 l 1
 535 453 l 1
 535 298 l 1
 265 298 l 1
 265 160 l 1
 555 160 l 1
 555 0 l 1
 65 0 l 1
 65 730 l 1
160 980 m 1
 460 980 l 1
 580 770 l 1
 370 770 l 1
 311 910 l 1
 309 910 l 1
 250 770 l 1
 40 770 l 1
 160 980 l 1
287 1062 m 0
 262 1077 243 1085 230 1085 c 0
 221 1085 216 1081 212 1072 c 0
 210 1064 208 1047 208 1020 c 1
 60 1020 l 1
 60 1095 70 1150 90 1186 c 0
 111 1222 142 1240 185 1240 c 0
 228 1240 277 1223 333 1188 c 0
 358 1173 377 1165 390 1165 c 0
 399 1165 404 1169 408 1178 c 0
 410 1186 412 1203 412 1230 c 1
 560 1230 l 1
 560 1155 550 1100 530 1064 c 0
 509 1028 478 1010 435 1010 c 0
 392 1010 343 1027 287 1062 c 0
EndSplineSet
EndChar

StartChar: uni0204
Encoding: 516 516 52
Width: 610
Flags: W
LayerCount: 2
Fore
SplineSet
65 730 m 1
 555 730 l 1
 555 570 l 1
 265 570 l 1
 265 453 l 1
 535 453 l 1
 535 298 l 1
 265 298 l 1
 265 160 l 1
 555 160 l 1
 555 0 l 1
 65 0 l 1
 65 730 l 1
-4 980 m 1
 226 980 l 1
 286 770 l 1
 116 770 l 1
 -4 980 l 1
266 980 m 1
 496 980 l 1
 556 770 l 1
 386 770 l 1
 266 980 l 1
EndSplineSet
EndChar

StartChar: Edieresis
Encoding: 203 203 53
Width: 610
Flags: W
LayerCount: 2
Fore
SplineSet
65 730 m 1
 555 730 l 1
 555 570 l 1
 265 570 l 1
 265 453 l 1
 535 453 l 1
 535 298 l 1
 265 298 l 1
 265 160 l 1
 555 160 l 1
 555 0 l 1
 65 0 l 1
 65 730 l 1
80 970 m 1
 270 970 l 1
 270 780 l 1
 80 780 l 1
 80 970 l 1
350 970 m 1
 540 970 l 1
 540 780 l 1
 350 780 l 1
 350 970 l 1
EndSplineSet
EndChar

StartChar: Edotaccent
Encoding: 278 278 54
Width: 610
Flags: W
LayerCount: 2
Fore
SplineSet
65 730 m 1
 555 730 l 1
 555 570 l 1
 265 570 l 1
 265 453 l 1
 535 453 l 1
 535 298 l 1
 265 298 l 1
 265 160 l 1
 555 160 l 1
 555 0 l 1
 65 0 l 1
 65 730 l 1
215 970 m 1
 405 970 l 1
 405 780 l 1
 215 780 l 1
 215 970 l 1
EndSplineSet
EndChar

StartChar: uni1EB8
Encoding: 7864 7864 55
Width: 610
Flags: W
LayerCount: 2
Fore
SplineSet
65 730 m 1
 555 730 l 1
 555 570 l 1
 265 570 l 1
 265 453 l 1
 535 453 l 1
 535 298 l 1
 265 298 l 1
 265 160 l 1
 555 160 l 1
 555 0 l 1
 65 0 l 1
 65 730 l 1
215 -50 m 1
 405 -50 l 1
 405 -240 l 1
 215 -240 l 1
 215 -50 l 1
EndSplineSet
EndChar

StartChar: Egrave
Encoding: 200 200 56
Width: 610
Flags: W
LayerCount: 2
Fore
SplineSet
65 730 m 1
 555 730 l 1
 555 570 l 1
 265 570 l 1
 265 453 l 1
 535 453 l 1
 535 298 l 1
 265 298 l 1
 265 160 l 1
 555 160 l 1
 555 0 l 1
 65 0 l 1
 65 730 l 1
134 980 m 1
 364 980 l 1
 424 770 l 1
 254 770 l 1
 134 980 l 1
EndSplineSet
EndChar

StartChar: uni1EBA
Encoding: 7866 7866 57
Width: 610
Flags: W
LayerCount: 2
Fore
SplineSet
65 730 m 1
 555 730 l 1
 555 570 l 1
 265 570 l 1
 265 453 l 1
 535 453 l 1
 535 298 l 1
 265 298 l 1
 265 160 l 1
 555 160 l 1
 555 0 l 1
 65 0 l 1
 65 730 l 1
330 830 m 0
 330 842 327 850 321 854 c 0
 315 858 303 860 285 860 c 0
 262 860 237 858 210 854 c 0
 182 849 155 843 130 835 c 1
 115 970 l 1
 143 976 175 981 210 984 c 0
 246 988 279 990 310 990 c 0
 362 990 402 987 430 982 c 0
 457 976 477 966 488 953 c 0
 499 940 505 920 505 895 c 0
 505 876 503 855 498 832 c 0
 493 809 487 788 480 770 c 1
 320 770 l 1
 327 795 330 815 330 830 c 0
EndSplineSet
EndChar

StartChar: uni0206
Encoding: 518 518 58
Width: 610
Flags: W
LayerCount: 2
Fore
SplineSet
65 730 m 1
 555 730 l 1
 555 570 l 1
 265 570 l 1
 265 453 l 1
 535 453 l 1
 535 298 l 1
 265 298 l 1
 265 160 l 1
 555 160 l 1
 555 0 l 1
 65 0 l 1
 65 730 l 1
439 962 m 0
 477 942 507 916 528 883 c 0
 549 850 560 812 560 770 c 1
 390 770 l 1
 386 801 378 823 364 838 c 0
 352 853 333 860 310 860 c 0
 286 860 268 853 254 838 c 0
 242 823 233 801 230 770 c 1
 60 770 l 1
 60 812 71 850 92 883 c 0
 113 916 143 942 181 962 c 0
 219 980 262 990 310 990 c 0
 358 990 401 980 439 962 c 0
EndSplineSet
EndChar

StartChar: Emacron
Encoding: 274 274 59
Width: 610
Flags: W
LayerCount: 2
Fore
SplineSet
65 730 m 1
 555 730 l 1
 555 570 l 1
 265 570 l 1
 265 453 l 1
 535 453 l 1
 535 298 l 1
 265 298 l 1
 265 160 l 1
 555 160 l 1
 555 0 l 1
 65 0 l 1
 65 730 l 1
100 945 m 1
 520 945 l 1
 520 805 l 1
 100 805 l 1
 100 945 l 1
EndSplineSet
EndChar

StartChar: Eogonek
Encoding: 280 280 60
Width: 610
Flags: W
LayerCount: 2
Fore
SplineSet
647 -200 m 1
 611 -213 569 -220 522 -220 c 0
 453 -220 400 -208 363 -184 c 0
 326 -160 307 -126 307 -82 c 0
 307 -54 316 -27 335 0 c 1
 65 0 l 1
 65 730 l 1
 555 730 l 1
 555 570 l 1
 265 570 l 1
 265 453 l 1
 535 453 l 1
 535 298 l 1
 265 298 l 1
 265 160 l 1
 555 160 l 1
 555 0 l 1
 507 -19 483 -38 483 -57 c 0
 483 -66 487 -73 496 -78 c 0
 505 -83 517 -85 534 -85 c 0
 549 -85 565 -83 582 -80 c 0
 600 -76 617 -71 632 -65 c 1
 647 -200 l 1
EndSplineSet
EndChar

StartChar: uni1EBC
Encoding: 7868 7868 61
Width: 610
Flags: W
LayerCount: 2
Fore
SplineSet
65 730 m 1
 555 730 l 1
 555 570 l 1
 265 570 l 1
 265 453 l 1
 535 453 l 1
 535 298 l 1
 265 298 l 1
 265 160 l 1
 555 160 l 1
 555 0 l 1
 65 0 l 1
 65 730 l 1
287 812 m 0
 262 827 243 835 230 835 c 0
 221 835 216 831 212 822 c 0
 210 814 208 797 208 770 c 1
 60 770 l 1
 60 845 70 900 90 936 c 0
 111 972 142 990 185 990 c 0
 228 990 277 973 333 938 c 0
 358 923 377 915 390 915 c 0
 399 915 404 919 408 928 c 0
 410 936 412 953 412 980 c 1
 560 980 l 1
 560 905 550 850 530 814 c 0
 509 778 478 760 435 760 c 0
 392 760 343 777 287 812 c 0
EndSplineSet
EndChar

StartChar: F
Encoding: 70 70 62
Width: 604
Flags: W
LayerCount: 2
Fore
SplineSet
65 730 m 1
 555 730 l 1
 555 565 l 1
 265 565 l 1
 265 430 l 1
 535 430 l 1
 535 270 l 1
 265 270 l 1
 265 0 l 1
 65 0 l 1
 65 730 l 1
EndSplineSet
EndChar

StartChar: G
Encoding: 71 71 63
Width: 767
Flags: W
LayerCount: 2
Fore
SplineSet
712 452 m 1
 712 50 l 1
 674 31 631 16 584 6 c 0
 536 -5 485 -10 432 -10 c 0
 349 -10 277 5 217 34 c 0
 157 64 111 107 80 164 c 0
 48 220 32 287 32 365 c 0
 32 443 48 510 80 566 c 0
 111 623 157 666 217 696 c 0
 277 725 349 740 432 740 c 0
 535 740 620 718 687 674 c 1
 612 524 l 1
 554 558 494 575 432 575 c 0
 302 575 237 505 237 365 c 0
 237 225 302 155 432 155 c 0
 459 155 486 159 512 166 c 1
 512 287 l 1
 367 287 l 1
 367 452 l 1
 712 452 l 1
EndSplineSet
EndChar

StartChar: Gbreve
Encoding: 286 286 64
Width: 767
Flags: W
LayerCount: 2
Fore
SplineSet
712 452 m 1
 712 50 l 1
 674 31 631 16 584 6 c 0
 536 -5 485 -10 432 -10 c 0
 349 -10 277 5 217 34 c 0
 157 64 111 107 80 164 c 0
 48 220 32 287 32 365 c 0
 32 443 48 510 80 566 c 0
 111 623 157 666 217 696 c 0
 277 725 349 740 432 740 c 0
 535 740 620 718 687 674 c 1
 612 524 l 1
 554 558 494 575 432 575 c 0
 302 575 237 505 237 365 c 0
 237 225 302 155 432 155 c 0
 459 155 486 159 512 166 c 1
 512 287 l 1
 367 287 l 1
 367 452 l 1
 712 452 l 1
271 788 m 0
 233 808 203 834 182 867 c 0
 161 900 150 938 150 980 c 1
 320 980 l 1
 323 949 332 927 344 912 c 0
 358 897 376 890 400 890 c 0
 423 890 442 897 454 912 c 0
 468 927 476 949 480 980 c 1
 650 980 l 1
 650 938 639 900 618 867 c 0
 597 834 567 808 529 788 c 0
 491 770 448 760 400 760 c 0
 352 760 309 770 271 788 c 0
EndSplineSet
EndChar

StartChar: Gcaron
Encoding: 486 486 65
Width: 767
Flags: W
LayerCount: 2
Fore
SplineSet
712 452 m 1
 712 50 l 1
 674 31 631 16 584 6 c 0
 536 -5 485 -10 432 -10 c 0
 349 -10 277 5 217 34 c 0
 157 64 111 107 80 164 c 0
 48 220 32 287 32 365 c 0
 32 443 48 510 80 566 c 0
 111 623 157 666 217 696 c 0
 277 725 349 740 432 740 c 0
 535 740 620 718 687 674 c 1
 612 524 l 1
 554 558 494 575 432 575 c 0
 302 575 237 505 237 365 c 0
 237 225 302 155 432 155 c 0
 459 155 486 159 512 166 c 1
 512 287 l 1
 367 287 l 1
 367 452 l 1
 712 452 l 1
130 980 m 1
 340 980 l 1
 399 840 l 1
 401 840 l 1
 460 980 l 1
 670 980 l 1
 550 770 l 1
 250 770 l 1
 130 980 l 1
EndSplineSet
EndChar

StartChar: Gcircumflex
Encoding: 284 284 66
Width: 767
Flags: W
LayerCount: 2
Fore
SplineSet
712 452 m 1
 712 50 l 1
 674 31 631 16 584 6 c 0
 536 -5 485 -10 432 -10 c 0
 349 -10 277 5 217 34 c 0
 157 64 111 107 80 164 c 0
 48 220 32 287 32 365 c 0
 32 443 48 510 80 566 c 0
 111 623 157 666 217 696 c 0
 277 725 349 740 432 740 c 0
 535 740 620 718 687 674 c 1
 612 524 l 1
 554 558 494 575 432 575 c 0
 302 575 237 505 237 365 c 0
 237 225 302 155 432 155 c 0
 459 155 486 159 512 166 c 1
 512 287 l 1
 367 287 l 1
 367 452 l 1
 712 452 l 1
250 980 m 1
 550 980 l 1
 670 770 l 1
 460 770 l 1
 401 910 l 1
 399 910 l 1
 340 770 l 1
 130 770 l 1
 250 980 l 1
EndSplineSet
EndChar

StartChar: uni0122
Encoding: 290 290 67
Width: 767
Flags: W
LayerCount: 2
Fore
SplineSet
712 452 m 1
 712 50 l 1
 674 31 631 16 584 6 c 0
 536 -5 485 -10 432 -10 c 0
 349 -10 277 5 217 34 c 0
 157 64 111 107 80 164 c 0
 48 220 32 287 32 365 c 0
 32 443 48 510 80 566 c 0
 111 623 157 666 217 696 c 0
 277 725 349 740 432 740 c 0
 535 740 620 718 687 674 c 1
 612 524 l 1
 554 558 494 575 432 575 c 0
 302 575 237 505 237 365 c 0
 237 225 302 155 432 155 c 0
 459 155 486 159 512 166 c 1
 512 287 l 1
 367 287 l 1
 367 452 l 1
 712 452 l 1
425 -250 m 1
 255 -250 l 1
 315 -40 l 1
 545 -40 l 1
 425 -250 l 1
EndSplineSet
EndChar

StartChar: Gdotaccent
Encoding: 288 288 68
Width: 767
Flags: W
LayerCount: 2
Fore
SplineSet
712 452 m 1
 712 50 l 1
 674 31 631 16 584 6 c 0
 536 -5 485 -10 432 -10 c 0
 349 -10 277 5 217 34 c 0
 157 64 111 107 80 164 c 0
 48 220 32 287 32 365 c 0
 32 443 48 510 80 566 c 0
 111 623 157 666 217 696 c 0
 277 725 349 740 432 740 c 0
 535 740 620 718 687 674 c 1
 612 524 l 1
 554 558 494 575 432 575 c 0
 302 575 237 505 237 365 c 0
 237 225 302 155 432 155 c 0
 459 155 486 159 512 166 c 1
 512 287 l 1
 367 287 l 1
 367 452 l 1
 712 452 l 1
305 970 m 1
 495 970 l 1
 495 780 l 1
 305 780 l 1
 305 970 l 1
EndSplineSet
EndChar

StartChar: H
Encoding: 72 72 69
Width: 730
Flags: W
LayerCount: 2
Fore
SplineSet
465 730 m 1
 665 730 l 1
 665 0 l 1
 465 0 l 1
 465 295 l 1
 265 295 l 1
 265 0 l 1
 65 0 l 1
 65 730 l 1
 265 730 l 1
 265 465 l 1
 465 465 l 1
 465 730 l 1
EndSplineSet
EndChar

StartChar: Hbar
Encoding: 294 294 70
Width: 822
Flags: W
LayerCount: 2
Fore
SplineSet
801 666 m 1
 801 526 l 1
 711 526 l 1
 711 0 l 1
 511 0 l 1
 511 295 l 1
 311 295 l 1
 311 0 l 1
 111 0 l 1
 111 526 l 1
 21 526 l 1
 21 666 l 1
 111 666 l 1
 111 730 l 1
 311 730 l 1
 311 666 l 1
 511 666 l 1
 511 730 l 1
 711 730 l 1
 711 666 l 1
 801 666 l 1
511 465 m 1
 511 526 l 1
 311 526 l 1
 311 465 l 1
 511 465 l 1
EndSplineSet
EndChar

StartChar: Hcircumflex
Encoding: 292 292 71
Width: 730
Flags: W
LayerCount: 2
Fore
SplineSet
465 730 m 1
 665 730 l 1
 665 0 l 1
 465 0 l 1
 465 295 l 1
 265 295 l 1
 265 0 l 1
 65 0 l 1
 65 730 l 1
 265 730 l 1
 265 465 l 1
 465 465 l 1
 465 730 l 1
215 980 m 1
 515 980 l 1
 635 770 l 1
 425 770 l 1
 366 910 l 1
 364 910 l 1
 305 770 l 1
 95 770 l 1
 215 980 l 1
EndSplineSet
EndChar

StartChar: I
Encoding: 73 73 72
Width: 354
Flags: W
LayerCount: 2
Fore
SplineSet
72 730 m 1
 282 730 l 1
 282 0 l 1
 72 0 l 1
 72 730 l 1
EndSplineSet
EndChar

StartChar: Iacute
Encoding: 205 205 73
Width: 354
Flags: W
LayerCount: 2
Fore
SplineSet
72 730 m 1
 282 730 l 1
 282 0 l 1
 72 0 l 1
 72 730 l 1
233 770 m 1
 63 770 l 1
 123 980 l 1
 353 980 l 1
 233 770 l 1
EndSplineSet
EndChar

StartChar: Ibreve
Encoding: 300 300 74
Width: 354
Flags: W
LayerCount: 2
Fore
SplineSet
72 730 m 1
 282 730 l 1
 282 0 l 1
 72 0 l 1
 72 730 l 1
48 788 m 0
 10 808 -20 834 -41 867 c 0
 -62 900 -73 938 -73 980 c 1
 97 980 l 1
 100 949 108 927 122 912 c 0
 134 897 153 890 177 890 c 0
 200 890 218 897 232 912 c 0
 244 927 253 949 257 980 c 1
 427 980 l 1
 427 938 416 900 395 867 c 0
 374 834 344 808 306 788 c 0
 268 770 225 760 177 760 c 0
 129 760 86 770 48 788 c 0
EndSplineSet
EndChar

StartChar: Icircumflex
Encoding: 206 206 75
Width: 354
Flags: W
LayerCount: 2
Fore
SplineSet
72 730 m 1
 282 730 l 1
 282 0 l 1
 72 0 l 1
 72 730 l 1
27 980 m 1
 327 980 l 1
 447 770 l 1
 237 770 l 1
 178 910 l 1
 176 910 l 1
 117 770 l 1
 -93 770 l 1
 27 980 l 1
EndSplineSet
EndChar

StartChar: uni0208
Encoding: 520 520 76
Width: 354
Flags: W
LayerCount: 2
Fore
SplineSet
72 730 m 1
 282 730 l 1
 282 0 l 1
 72 0 l 1
 72 730 l 1
-137 980 m 1
 93 980 l 1
 153 770 l 1
 -17 770 l 1
 -137 980 l 1
133 980 m 1
 363 980 l 1
 423 770 l 1
 253 770 l 1
 133 980 l 1
EndSplineSet
EndChar

StartChar: Idieresis
Encoding: 207 207 77
Width: 354
Flags: W
LayerCount: 2
Fore
SplineSet
72 730 m 1
 282 730 l 1
 282 0 l 1
 72 0 l 1
 72 730 l 1
-53 970 m 1
 137 970 l 1
 137 780 l 1
 -53 780 l 1
 -53 970 l 1
217 970 m 1
 407 970 l 1
 407 780 l 1
 217 780 l 1
 217 970 l 1
EndSplineSet
EndChar

StartChar: Idotaccent
Encoding: 304 304 78
Width: 354
Flags: W
LayerCount: 2
Fore
SplineSet
72 730 m 1
 282 730 l 1
 282 0 l 1
 72 0 l 1
 72 730 l 1
82 970 m 1
 272 970 l 1
 272 780 l 1
 82 780 l 1
 82 970 l 1
EndSplineSet
EndChar

StartChar: uni1ECA
Encoding: 7882 7882 79
Width: 354
Flags: W
LayerCount: 2
Fore
SplineSet
72 730 m 1
 282 730 l 1
 282 0 l 1
 72 0 l 1
 72 730 l 1
82 -50 m 1
 272 -50 l 1
 272 -240 l 1
 82 -240 l 1
 82 -50 l 1
EndSplineSet
EndChar

StartChar: Igrave
Encoding: 204 204 80
Width: 354
Flags: W
LayerCount: 2
Fore
SplineSet
72 730 m 1
 282 730 l 1
 282 0 l 1
 72 0 l 1
 72 730 l 1
1 980 m 1
 231 980 l 1
 291 770 l 1
 121 770 l 1
 1 980 l 1
EndSplineSet
EndChar

StartChar: uni1EC8
Encoding: 7880 7880 81
Width: 354
Flags: W
LayerCount: 2
Fore
SplineSet
72 730 m 1
 282 730 l 1
 282 0 l 1
 72 0 l 1
 72 730 l 1
197 830 m 0
 197 842 194 850 188 854 c 0
 182 858 170 860 152 860 c 0
 129 860 104 858 76 854 c 0
 49 849 22 843 -3 835 c 1
 -18 970 l 1
 10 976 42 981 78 984 c 0
 113 988 146 990 177 990 c 0
 229 990 269 987 296 982 c 0
 324 976 344 966 355 953 c 0
 366 940 372 920 372 895 c 0
 372 876 370 855 365 832 c 0
 360 809 354 788 347 770 c 1
 187 770 l 1
 194 795 197 815 197 830 c 0
EndSplineSet
EndChar

StartChar: uni020A
Encoding: 522 522 82
Width: 354
Flags: W
LayerCount: 2
Fore
SplineSet
72 730 m 1
 282 730 l 1
 282 0 l 1
 72 0 l 1
 72 730 l 1
306 962 m 0
 344 942 374 916 395 883 c 0
 416 850 427 812 427 770 c 1
 257 770 l 1
 253 801 244 823 232 838 c 0
 218 853 200 860 177 860 c 0
 153 860 134 853 122 838 c 0
 108 823 100 801 97 770 c 1
 -73 770 l 1
 -73 812 -62 850 -41 883 c 0
 -20 916 10 942 48 962 c 0
 86 980 129 990 177 990 c 0
 225 990 268 980 306 962 c 0
EndSplineSet
EndChar

StartChar: Imacron
Encoding: 298 298 83
Width: 354
Flags: W
LayerCount: 2
Fore
SplineSet
72 730 m 1
 282 730 l 1
 282 0 l 1
 72 0 l 1
 72 730 l 1
-33 945 m 1
 387 945 l 1
 387 805 l 1
 -33 805 l 1
 -33 945 l 1
EndSplineSet
EndChar

StartChar: Iogonek
Encoding: 302 302 84
Width: 354
Flags: W
LayerCount: 2
Fore
SplineSet
374 -200 m 1
 338 -213 296 -220 249 -220 c 0
 180 -220 127 -208 90 -184 c 0
 53 -160 34 -126 34 -82 c 0
 34 -49 47 -17 72 14 c 1
 72 730 l 1
 282 730 l 1
 282 0 l 1
 234 -19 210 -38 210 -57 c 0
 210 -66 214 -73 223 -78 c 0
 232 -83 244 -85 261 -85 c 0
 276 -85 292 -83 310 -80 c 0
 327 -76 344 -71 359 -65 c 1
 374 -200 l 1
EndSplineSet
EndChar

StartChar: Itilde
Encoding: 296 296 85
Width: 354
Flags: W
LayerCount: 2
Fore
SplineSet
72 730 m 1
 282 730 l 1
 282 0 l 1
 72 0 l 1
 72 730 l 1
154 812 m 0
 129 827 110 835 97 835 c 0
 88 835 82 831 80 822 c 0
 76 814 75 797 75 770 c 1
 -73 770 l 1
 -73 845 -63 900 -42 936 c 0
 -22 972 9 990 52 990 c 0
 95 990 144 973 200 938 c 0
 225 923 244 915 257 915 c 0
 266 915 272 919 274 928 c 0
 278 936 279 953 279 980 c 1
 427 980 l 1
 427 905 417 850 396 814 c 0
 376 778 345 760 302 760 c 0
 259 760 210 777 154 812 c 0
EndSplineSet
EndChar

StartChar: J
Encoding: 74 74 86
Width: 585
Flags: W
LayerCount: 2
Fore
SplineSet
119 2 m 0
 77 11 38 23 3 39 c 1
 48 209 l 1
 121 180 178 165 221 165 c 0
 255 165 280 174 296 193 c 0
 313 212 321 241 321 280 c 2
 321 730 l 1
 526 730 l 1
 526 280 l 2
 526 179 503 105 458 59 c 0
 413 13 340 -10 241 -10 c 0
 202 -10 161 -6 119 2 c 0
EndSplineSet
EndChar

StartChar: Jcircumflex
Encoding: 308 308 87
Width: 585
Flags: W
LayerCount: 2
Fore
SplineSet
119 2 m 0
 77 11 38 23 3 39 c 1
 48 209 l 1
 121 180 178 165 221 165 c 0
 255 165 280 174 296 193 c 0
 313 212 321 241 321 280 c 2
 321 730 l 1
 526 730 l 1
 526 280 l 2
 526 179 503 105 458 59 c 0
 413 13 340 -10 241 -10 c 0
 202 -10 161 -6 119 2 c 0
143 980 m 1
 443 980 l 1
 563 770 l 1
 353 770 l 1
 294 910 l 1
 292 910 l 1
 233 770 l 1
 23 770 l 1
 143 980 l 1
EndSplineSet
EndChar

StartChar: K
Encoding: 75 75 88
Width: 708
Flags: W
LayerCount: 2
Fore
SplineSet
65 730 m 1
 265 730 l 1
 265 420 l 1
 267 420 l 1
 455 730 l 1
 685 730 l 1
 455 380 l 1
 695 0 l 1
 465 0 l 1
 267 340 l 1
 265 340 l 1
 265 0 l 1
 65 0 l 1
 65 730 l 1
EndSplineSet
EndChar

StartChar: uni0136
Encoding: 310 310 89
Width: 708
Flags: W
LayerCount: 2
Fore
SplineSet
65 730 m 1
 265 730 l 1
 265 420 l 1
 267 420 l 1
 455 730 l 1
 685 730 l 1
 455 380 l 1
 695 0 l 1
 465 0 l 1
 267 340 l 1
 265 340 l 1
 265 0 l 1
 65 0 l 1
 65 730 l 1
365 -250 m 1
 195 -250 l 1
 255 -40 l 1
 485 -40 l 1
 365 -250 l 1
EndSplineSet
EndChar

StartChar: L
Encoding: 76 76 90
Width: 591
Flags: W
LayerCount: 2
Fore
SplineSet
65 730 m 1
 270 730 l 1
 270 170 l 1
 565 170 l 1
 565 0 l 1
 65 0 l 1
 65 730 l 1
EndSplineSet
EndChar

StartChar: uni01C7
Encoding: 455 455 91
Width: 1196
Flags: W
LayerCount: 2
Fore
SplineSet
65 730 m 1
 270 730 l 1
 270 170 l 1
 565 170 l 1
 565 0 l 1
 65 0 l 1
 65 730 l 1
730 2 m 0
 688 11 649 23 614 39 c 1
 659 209 l 1
 732 180 789 165 832 165 c 0
 866 165 891 174 908 193 c 0
 924 212 932 241 932 280 c 2
 932 730 l 1
 1137 730 l 1
 1137 280 l 2
 1137 179 1114 105 1069 59 c 0
 1024 13 951 -10 852 -10 c 0
 813 -10 772 -6 730 2 c 0
EndSplineSet
EndChar

StartChar: Lacute
Encoding: 313 313 92
Width: 591
Flags: W
LayerCount: 2
Fore
SplineSet
65 730 m 1
 270 730 l 1
 270 170 l 1
 565 170 l 1
 565 0 l 1
 65 0 l 1
 65 730 l 1
352 770 m 1
 182 770 l 1
 242 980 l 1
 472 980 l 1
 352 770 l 1
EndSplineSet
EndChar

StartChar: Lcaron
Encoding: 317 317 93
Width: 629
Flags: W
LayerCount: 2
Fore
SplineSet
65 730 m 1
 270 730 l 1
 270 170 l 1
 565 170 l 1
 565 0 l 1
 65 0 l 1
 65 730 l 1
406 770 m 1
 616 770 l 1
 496 470 l 1
 346 470 l 1
 406 770 l 1
EndSplineSet
EndChar

StartChar: uni013B
Encoding: 315 315 94
Width: 591
Flags: W
LayerCount: 2
Fore
SplineSet
65 730 m 1
 270 730 l 1
 270 170 l 1
 565 170 l 1
 565 0 l 1
 65 0 l 1
 65 730 l 1
321 -250 m 1
 151 -250 l 1
 211 -40 l 1
 441 -40 l 1
 321 -250 l 1
EndSplineSet
EndChar

StartChar: Ldot
Encoding: 319 319 95
Width: 626
Flags: W
LayerCount: 2
Fore
SplineSet
65 730 m 1
 270 730 l 1
 270 170 l 1
 565 170 l 1
 565 0 l 1
 65 0 l 1
 65 730 l 1
358 475 m 1
 558 475 l 1
 558 275 l 1
 358 275 l 1
 358 475 l 1
EndSplineSet
EndChar

StartChar: uni01C8
Encoding: 456 456 96
Width: 966
Flags: W
LayerCount: 2
Fore
SplineSet
65 730 m 1
 270 730 l 1
 270 170 l 1
 565 170 l 1
 565 0 l 1
 65 0 l 1
 65 730 l 1
701 750 m 1
 901 750 l 1
 901 590 l 1
 701 590 l 1
 701 750 l 1
646 -77 m 0
 668 -72 683 -61 690 -44 c 0
 697 -28 701 0 701 40 c 2
 701 520 l 1
 901 520 l 1
 901 40 l 2
 901 -31 890 -85 868 -124 c 0
 847 -162 810 -189 759 -206 c 0
 708 -222 635 -230 541 -230 c 1
 531 -85 l 1
 585 -85 623 -82 646 -77 c 0
EndSplineSet
EndChar

StartChar: Lslash
Encoding: 321 321 97
Width: 690
Flags: W
LayerCount: 2
Fore
SplineSet
369 170 m 1
 664 170 l 1
 664 0 l 1
 164 0 l 1
 164 247 l 1
 62 207 l 1
 7 337 l 1
 164 399 l 1
 164 730 l 1
 369 730 l 1
 369 481 l 1
 476 523 l 1
 531 393 l 1
 369 329 l 1
 369 170 l 1
EndSplineSet
EndChar

StartChar: M
Encoding: 77 77 98
Width: 890
Flags: W
LayerCount: 2
Fore
SplineSet
65 730 m 1
 313 730 l 1
 444 340 l 1
 446 340 l 1
 577 730 l 1
 825 730 l 1
 825 0 l 1
 625 0 l 1
 625 420 l 1
 623 420 l 1
 535 155 l 1
 355 155 l 1
 267 420 l 1
 265 420 l 1
 265 0 l 1
 65 0 l 1
 65 730 l 1
EndSplineSet
EndChar

StartChar: N
Encoding: 78 78 99
Width: 740
Flags: W
LayerCount: 2
Fore
SplineSet
65 730 m 1
 265 730 l 1
 473 330 l 1
 475 330 l 1
 475 730 l 1
 675 730 l 1
 675 0 l 1
 475 0 l 1
 267 400 l 1
 265 400 l 1
 265 0 l 1
 65 0 l 1
 65 730 l 1
EndSplineSet
EndChar

StartChar: uni01CA
Encoding: 458 458 100
Width: 1325
Flags: W
LayerCount: 2
Fore
SplineSet
65 730 m 1
 265 730 l 1
 473 330 l 1
 475 330 l 1
 475 730 l 1
 675 730 l 1
 675 0 l 1
 475 0 l 1
 267 400 l 1
 265 400 l 1
 265 0 l 1
 65 0 l 1
 65 730 l 1
859 2 m 0
 817 11 778 23 743 39 c 1
 788 209 l 1
 861 180 918 165 961 165 c 0
 995 165 1020 174 1036 193 c 0
 1053 212 1061 241 1061 280 c 2
 1061 730 l 1
 1266 730 l 1
 1266 280 l 2
 1266 179 1243 105 1198 59 c 0
 1153 13 1080 -10 981 -10 c 0
 942 -10 901 -6 859 2 c 0
EndSplineSet
EndChar

StartChar: Nacute
Encoding: 323 323 101
Width: 740
Flags: W
LayerCount: 2
Fore
SplineSet
65 730 m 1
 265 730 l 1
 473 330 l 1
 475 330 l 1
 475 730 l 1
 675 730 l 1
 675 0 l 1
 475 0 l 1
 267 400 l 1
 265 400 l 1
 265 0 l 1
 65 0 l 1
 65 730 l 1
426 770 m 1
 256 770 l 1
 316 980 l 1
 546 980 l 1
 426 770 l 1
EndSplineSet
EndChar

StartChar: Ncaron
Encoding: 327 327 102
Width: 740
Flags: W
LayerCount: 2
Fore
SplineSet
65 730 m 1
 265 730 l 1
 473 330 l 1
 475 330 l 1
 475 730 l 1
 675 730 l 1
 675 0 l 1
 475 0 l 1
 267 400 l 1
 265 400 l 1
 265 0 l 1
 65 0 l 1
 65 730 l 1
100 980 m 1
 310 980 l 1
 369 840 l 1
 371 840 l 1
 430 980 l 1
 640 980 l 1
 520 770 l 1
 220 770 l 1
 100 980 l 1
EndSplineSet
EndChar

StartChar: uni0145
Encoding: 325 325 103
Width: 740
Flags: W
LayerCount: 2
Fore
SplineSet
65 730 m 1
 265 730 l 1
 473 330 l 1
 475 330 l 1
 475 730 l 1
 675 730 l 1
 675 0 l 1
 475 0 l 1
 267 400 l 1
 265 400 l 1
 265 0 l 1
 65 0 l 1
 65 730 l 1
395 -250 m 1
 225 -250 l 1
 285 -40 l 1
 515 -40 l 1
 395 -250 l 1
EndSplineSet
EndChar

StartChar: Eng
Encoding: 330 330 104
Width: 740
Flags: W
LayerCount: 2
Fore
SplineSet
675 730 m 1
 675 0 l 2
 674 -57 667 -102 653 -134 c 0
 639 -168 617 -192 586 -206 c 0
 556 -222 515 -229 463 -229 c 0
 419 -229 370 -224 317 -214 c 1
 337 -59 l 1
 366 -66 394 -70 420 -70 c 0
 441 -70 455 -65 462 -56 c 0
 470 -46 474 -27 475 1 c 1
 267 380 l 1
 265 380 l 1
 265 0 l 1
 65 0 l 1
 65 730 l 1
 265 730 l 1
 473 350 l 1
 475 350 l 1
 475 730 l 1
 675 730 l 1
EndSplineSet
EndChar

StartChar: uni01CB
Encoding: 459 459 105
Width: 1115
Flags: W
LayerCount: 2
Fore
SplineSet
65 730 m 1
 265 730 l 1
 473 330 l 1
 475 330 l 1
 475 730 l 1
 675 730 l 1
 675 0 l 1
 475 0 l 1
 267 400 l 1
 265 400 l 1
 265 0 l 1
 65 0 l 1
 65 730 l 1
850 750 m 1
 1050 750 l 1
 1050 590 l 1
 850 590 l 1
 850 750 l 1
794 -77 m 0
 817 -72 832 -61 839 -44 c 0
 846 -28 850 0 850 40 c 2
 850 520 l 1
 1050 520 l 1
 1050 40 l 2
 1050 -31 1039 -85 1018 -124 c 0
 996 -162 959 -189 908 -206 c 0
 857 -222 784 -230 690 -230 c 1
 680 -85 l 1
 734 -85 772 -82 794 -77 c 0
EndSplineSet
EndChar

StartChar: Ntilde
Encoding: 209 209 106
Width: 740
Flags: W
LayerCount: 2
Fore
SplineSet
65 730 m 1
 265 730 l 1
 473 330 l 1
 475 330 l 1
 475 730 l 1
 675 730 l 1
 675 0 l 1
 475 0 l 1
 267 400 l 1
 265 400 l 1
 265 0 l 1
 65 0 l 1
 65 730 l 1
347 812 m 0
 322 827 303 835 290 835 c 0
 281 835 276 831 272 822 c 0
 270 814 268 797 268 770 c 1
 120 770 l 1
 120 845 130 900 150 936 c 0
 171 972 202 990 245 990 c 0
 288 990 337 973 393 938 c 0
 418 923 437 915 450 915 c 0
 459 915 464 919 468 928 c 0
 470 936 472 953 472 980 c 1
 620 980 l 1
 620 905 610 850 590 814 c 0
 569 778 538 760 495 760 c 0
 452 760 403 777 347 812 c 0
EndSplineSet
EndChar

StartChar: O
Encoding: 79 79 107
Width: 814
Flags: W
LayerCount: 2
Fore
SplineSet
206 34 m 0
 149 64 106 107 76 164 c 0
 47 220 32 287 32 365 c 0
 32 443 47 510 76 566 c 0
 106 623 149 666 206 696 c 0
 262 725 329 740 407 740 c 0
 485 740 552 725 608 696 c 0
 665 666 708 623 738 566 c 0
 767 510 782 443 782 365 c 0
 782 287 767 220 738 164 c 0
 708 107 665 64 608 34 c 0
 552 5 485 -10 407 -10 c 0
 329 -10 262 5 206 34 c 0
577 365 m 0
 577 502 520 570 407 570 c 0
 294 570 237 502 237 365 c 0
 237 228 294 160 407 160 c 0
 520 160 577 228 577 365 c 0
EndSplineSet
EndChar

StartChar: Oacute
Encoding: 211 211 108
Width: 814
Flags: W
LayerCount: 2
Fore
SplineSet
206 34 m 0
 149 64 106 107 76 164 c 0
 47 220 32 287 32 365 c 0
 32 443 47 510 76 566 c 0
 106 623 149 666 206 696 c 0
 262 725 329 740 407 740 c 0
 485 740 552 725 608 696 c 0
 665 666 708 623 738 566 c 0
 767 510 782 443 782 365 c 0
 782 287 767 220 738 164 c 0
 708 107 665 64 608 34 c 0
 552 5 485 -10 407 -10 c 0
 329 -10 262 5 206 34 c 0
577 365 m 0
 577 502 520 570 407 570 c 0
 294 570 237 502 237 365 c 0
 237 228 294 160 407 160 c 0
 520 160 577 228 577 365 c 0
463 770 m 1
 293 770 l 1
 353 980 l 1
 583 980 l 1
 463 770 l 1
EndSplineSet
EndChar

StartChar: Obreve
Encoding: 334 334 109
Width: 814
Flags: W
LayerCount: 2
Fore
SplineSet
206 34 m 0
 149 64 106 107 76 164 c 0
 47 220 32 287 32 365 c 0
 32 443 47 510 76 566 c 0
 106 623 149 666 206 696 c 0
 262 725 329 740 407 740 c 0
 485 740 552 725 608 696 c 0
 665 666 708 623 738 566 c 0
 767 510 782 443 782 365 c 0
 782 287 767 220 738 164 c 0
 708 107 665 64 608 34 c 0
 552 5 485 -10 407 -10 c 0
 329 -10 262 5 206 34 c 0
577 365 m 0
 577 502 520 570 407 570 c 0
 294 570 237 502 237 365 c 0
 237 228 294 160 407 160 c 0
 520 160 577 228 577 365 c 0
278 788 m 0
 240 808 210 834 189 867 c 0
 168 900 157 938 157 980 c 1
 327 980 l 1
 330 949 338 927 352 912 c 0
 364 897 383 890 407 890 c 0
 430 890 448 897 462 912 c 0
 474 927 483 949 487 980 c 1
 657 980 l 1
 657 938 646 900 625 867 c 0
 604 834 574 808 536 788 c 0
 498 770 455 760 407 760 c 0
 359 760 316 770 278 788 c 0
EndSplineSet
EndChar

StartChar: Ocircumflex
Encoding: 212 212 110
Width: 814
Flags: W
LayerCount: 2
Fore
SplineSet
206 34 m 0
 149 64 106 107 76 164 c 0
 47 220 32 287 32 365 c 0
 32 443 47 510 76 566 c 0
 106 623 149 666 206 696 c 0
 262 725 329 740 407 740 c 0
 485 740 552 725 608 696 c 0
 665 666 708 623 738 566 c 0
 767 510 782 443 782 365 c 0
 782 287 767 220 738 164 c 0
 708 107 665 64 608 34 c 0
 552 5 485 -10 407 -10 c 0
 329 -10 262 5 206 34 c 0
577 365 m 0
 577 502 520 570 407 570 c 0
 294 570 237 502 237 365 c 0
 237 228 294 160 407 160 c 0
 520 160 577 228 577 365 c 0
257 980 m 1
 557 980 l 1
 677 770 l 1
 467 770 l 1
 408 910 l 1
 406 910 l 1
 347 770 l 1
 137 770 l 1
 257 980 l 1
EndSplineSet
EndChar

StartChar: uni1ED0
Encoding: 7888 7888 111
Width: 814
Flags: W
LayerCount: 2
Fore
SplineSet
406 910 m 1
 347 770 l 1
 137 770 l 1
 257 980 l 1
 536 980 l 1
 587 1160 l 1
 817 1160 l 1
 697 950 l 1
 574 950 l 1
 677 770 l 1
 467 770 l 1
 408 910 l 1
 406 910 l 1
608 696 m 0
 665 666 708 623 738 566 c 0
 767 510 782 443 782 365 c 0
 782 287 767 220 738 164 c 0
 708 107 665 64 608 34 c 0
 552 5 485 -10 407 -10 c 0
 329 -10 262 5 206 34 c 0
 149 64 106 107 76 164 c 0
 47 220 32 287 32 365 c 0
 32 443 47 510 76 566 c 0
 106 623 149 666 206 696 c 0
 262 725 329 740 407 740 c 0
 485 740 552 725 608 696 c 0
577 365 m 0
 577 502 520 570 407 570 c 0
 294 570 237 502 237 365 c 0
 237 228 294 160 407 160 c 0
 520 160 577 228 577 365 c 0
EndSplineSet
EndChar

StartChar: uni1ED8
Encoding: 7896 7896 112
Width: 814
Flags: W
LayerCount: 2
Fore
SplineSet
206 34 m 0
 149 64 106 107 76 164 c 0
 47 220 32 287 32 365 c 0
 32 443 47 510 76 566 c 0
 106 623 149 666 206 696 c 0
 262 725 329 740 407 740 c 0
 485 740 552 725 608 696 c 0
 665 666 708 623 738 566 c 0
 767 510 782 443 782 365 c 0
 782 287 767 220 738 164 c 0
 708 107 665 64 608 34 c 0
 552 5 485 -10 407 -10 c 0
 329 -10 262 5 206 34 c 0
577 365 m 0
 577 502 520 570 407 570 c 0
 294 570 237 502 237 365 c 0
 237 228 294 160 407 160 c 0
 520 160 577 228 577 365 c 0
312 -50 m 1
 502 -50 l 1
 502 -240 l 1
 312 -240 l 1
 312 -50 l 1
257 980 m 1
 557 980 l 1
 677 770 l 1
 467 770 l 1
 408 910 l 1
 406 910 l 1
 347 770 l 1
 137 770 l 1
 257 980 l 1
EndSplineSet
EndChar

StartChar: uni1ED2
Encoding: 7890 7890 113
Width: 814
Flags: W
LayerCount: 2
Fore
SplineSet
240 950 m 1
 117 950 l 1
 -3 1160 l 1
 227 1160 l 1
 278 980 l 1
 557 980 l 1
 677 770 l 1
 467 770 l 1
 408 910 l 1
 406 910 l 1
 347 770 l 1
 137 770 l 1
 240 950 l 1
608 696 m 0
 665 666 708 623 738 566 c 0
 767 510 782 443 782 365 c 0
 782 287 767 220 738 164 c 0
 708 107 665 64 608 34 c 0
 552 5 485 -10 407 -10 c 0
 329 -10 262 5 206 34 c 0
 149 64 106 107 76 164 c 0
 47 220 32 287 32 365 c 0
 32 443 47 510 76 566 c 0
 106 623 149 666 206 696 c 0
 262 725 329 740 407 740 c 0
 485 740 552 725 608 696 c 0
577 365 m 0
 577 502 520 570 407 570 c 0
 294 570 237 502 237 365 c 0
 237 228 294 160 407 160 c 0
 520 160 577 228 577 365 c 0
EndSplineSet
EndChar

StartChar: uni1ED4
Encoding: 7892 7892 114
Width: 814
Flags: W
LayerCount: 2
Fore
SplineSet
347 770 m 1
 137 770 l 1
 257 980 l 1
 538 980 l 1
 540 991 541 1001 541 1010 c 0
 541 1022 538 1030 532 1034 c 0
 526 1038 514 1040 496 1040 c 0
 473 1040 448 1038 420 1034 c 0
 393 1029 366 1023 341 1015 c 1
 326 1150 l 1
 354 1156 386 1161 422 1164 c 0
 457 1168 490 1170 521 1170 c 0
 573 1170 613 1167 640 1162 c 0
 668 1156 688 1146 699 1133 c 0
 710 1120 716 1100 716 1075 c 0
 716 1056 714 1035 709 1012 c 0
 704 989 698 968 691 950 c 1
 574 950 l 1
 677 770 l 1
 467 770 l 1
 408 910 l 1
 406 910 l 1
 347 770 l 1
608 696 m 0
 665 666 708 623 738 566 c 0
 767 510 782 443 782 365 c 0
 782 287 767 220 738 164 c 0
 708 107 665 64 608 34 c 0
 552 5 485 -10 407 -10 c 0
 329 -10 262 5 206 34 c 0
 149 64 106 107 76 164 c 0
 47 220 32 287 32 365 c 0
 32 443 47 510 76 566 c 0
 106 623 149 666 206 696 c 0
 262 725 329 740 407 740 c 0
 485 740 552 725 608 696 c 0
577 365 m 0
 577 502 520 570 407 570 c 0
 294 570 237 502 237 365 c 0
 237 228 294 160 407 160 c 0
 520 160 577 228 577 365 c 0
EndSplineSet
EndChar

StartChar: uni1ED6
Encoding: 7894 7894 115
Width: 814
Flags: W
LayerCount: 2
Fore
SplineSet
206 34 m 0
 149 64 106 107 76 164 c 0
 47 220 32 287 32 365 c 0
 32 443 47 510 76 566 c 0
 106 623 149 666 206 696 c 0
 262 725 329 740 407 740 c 0
 485 740 552 725 608 696 c 0
 665 666 708 623 738 566 c 0
 767 510 782 443 782 365 c 0
 782 287 767 220 738 164 c 0
 708 107 665 64 608 34 c 0
 552 5 485 -10 407 -10 c 0
 329 -10 262 5 206 34 c 0
577 365 m 0
 577 502 520 570 407 570 c 0
 294 570 237 502 237 365 c 0
 237 228 294 160 407 160 c 0
 520 160 577 228 577 365 c 0
257 980 m 1
 557 980 l 1
 677 770 l 1
 467 770 l 1
 408 910 l 1
 406 910 l 1
 347 770 l 1
 137 770 l 1
 257 980 l 1
384 1062 m 0
 359 1077 340 1085 327 1085 c 0
 318 1085 312 1081 310 1072 c 0
 306 1064 305 1047 305 1020 c 1
 157 1020 l 1
 157 1095 167 1150 188 1186 c 0
 208 1222 239 1240 282 1240 c 0
 325 1240 374 1223 430 1188 c 0
 455 1173 474 1165 487 1165 c 0
 496 1165 502 1169 504 1178 c 0
 508 1186 509 1203 509 1230 c 1
 657 1230 l 1
 657 1155 647 1100 626 1064 c 0
 606 1028 575 1010 532 1010 c 0
 489 1010 440 1027 384 1062 c 0
EndSplineSet
EndChar

StartChar: uni020C
Encoding: 524 524 116
Width: 814
Flags: W
LayerCount: 2
Fore
SplineSet
206 34 m 0
 149 64 106 107 76 164 c 0
 47 220 32 287 32 365 c 0
 32 443 47 510 76 566 c 0
 106 623 149 666 206 696 c 0
 262 725 329 740 407 740 c 0
 485 740 552 725 608 696 c 0
 665 666 708 623 738 566 c 0
 767 510 782 443 782 365 c 0
 782 287 767 220 738 164 c 0
 708 107 665 64 608 34 c 0
 552 5 485 -10 407 -10 c 0
 329 -10 262 5 206 34 c 0
577 365 m 0
 577 502 520 570 407 570 c 0
 294 570 237 502 237 365 c 0
 237 228 294 160 407 160 c 0
 520 160 577 228 577 365 c 0
93 980 m 1
 323 980 l 1
 383 770 l 1
 213 770 l 1
 93 980 l 1
363 980 m 1
 593 980 l 1
 653 770 l 1
 483 770 l 1
 363 980 l 1
EndSplineSet
EndChar

StartChar: Odieresis
Encoding: 214 214 117
Width: 814
Flags: W
LayerCount: 2
Fore
SplineSet
206 34 m 0
 149 64 106 107 76 164 c 0
 47 220 32 287 32 365 c 0
 32 443 47 510 76 566 c 0
 106 623 149 666 206 696 c 0
 262 725 329 740 407 740 c 0
 485 740 552 725 608 696 c 0
 665 666 708 623 738 566 c 0
 767 510 782 443 782 365 c 0
 782 287 767 220 738 164 c 0
 708 107 665 64 608 34 c 0
 552 5 485 -10 407 -10 c 0
 329 -10 262 5 206 34 c 0
577 365 m 0
 577 502 520 570 407 570 c 0
 294 570 237 502 237 365 c 0
 237 228 294 160 407 160 c 0
 520 160 577 228 577 365 c 0
177 970 m 1
 367 970 l 1
 367 780 l 1
 177 780 l 1
 177 970 l 1
447 970 m 1
 637 970 l 1
 637 780 l 1
 447 780 l 1
 447 970 l 1
EndSplineSet
EndChar

StartChar: uni022A
Encoding: 554 554 118
Width: 814
Flags: W
LayerCount: 2
Fore
SplineSet
206 34 m 0
 149 64 106 107 76 164 c 0
 47 220 32 287 32 365 c 0
 32 443 47 510 76 566 c 0
 106 623 149 666 206 696 c 0
 262 725 329 740 407 740 c 0
 485 740 552 725 608 696 c 0
 665 666 708 623 738 566 c 0
 767 510 782 443 782 365 c 0
 782 287 767 220 738 164 c 0
 708 107 665 64 608 34 c 0
 552 5 485 -10 407 -10 c 0
 329 -10 262 5 206 34 c 0
577 365 m 0
 577 502 520 570 407 570 c 0
 294 570 237 502 237 365 c 0
 237 228 294 160 407 160 c 0
 520 160 577 228 577 365 c 0
177 970 m 1
 367 970 l 1
 367 780 l 1
 177 780 l 1
 177 970 l 1
447 970 m 1
 637 970 l 1
 637 780 l 1
 447 780 l 1
 447 970 l 1
197 1185 m 1
 617 1185 l 1
 617 1045 l 1
 197 1045 l 1
 197 1185 l 1
EndSplineSet
EndChar

StartChar: uni0230
Encoding: 560 560 119
Width: 814
Flags: W
LayerCount: 2
Fore
SplineSet
206 34 m 0
 149 64 106 107 76 164 c 0
 47 220 32 287 32 365 c 0
 32 443 47 510 76 566 c 0
 106 623 149 666 206 696 c 0
 262 725 329 740 407 740 c 0
 485 740 552 725 608 696 c 0
 665 666 708 623 738 566 c 0
 767 510 782 443 782 365 c 0
 782 287 767 220 738 164 c 0
 708 107 665 64 608 34 c 0
 552 5 485 -10 407 -10 c 0
 329 -10 262 5 206 34 c 0
577 365 m 0
 577 502 520 570 407 570 c 0
 294 570 237 502 237 365 c 0
 237 228 294 160 407 160 c 0
 520 160 577 228 577 365 c 0
312 970 m 1
 502 970 l 1
 502 780 l 1
 312 780 l 1
 312 970 l 1
197 1185 m 1
 617 1185 l 1
 617 1045 l 1
 197 1045 l 1
 197 1185 l 1
EndSplineSet
EndChar

StartChar: uni1ECC
Encoding: 7884 7884 120
Width: 814
Flags: W
LayerCount: 2
Fore
SplineSet
206 34 m 0
 149 64 106 107 76 164 c 0
 47 220 32 287 32 365 c 0
 32 443 47 510 76 566 c 0
 106 623 149 666 206 696 c 0
 262 725 329 740 407 740 c 0
 485 740 552 725 608 696 c 0
 665 666 708 623 738 566 c 0
 767 510 782 443 782 365 c 0
 782 287 767 220 738 164 c 0
 708 107 665 64 608 34 c 0
 552 5 485 -10 407 -10 c 0
 329 -10 262 5 206 34 c 0
577 365 m 0
 577 502 520 570 407 570 c 0
 294 570 237 502 237 365 c 0
 237 228 294 160 407 160 c 0
 520 160 577 228 577 365 c 0
312 -50 m 1
 502 -50 l 1
 502 -240 l 1
 312 -240 l 1
 312 -50 l 1
EndSplineSet
EndChar

StartChar: Ograve
Encoding: 210 210 121
Width: 814
Flags: W
LayerCount: 2
Fore
SplineSet
206 34 m 0
 149 64 106 107 76 164 c 0
 47 220 32 287 32 365 c 0
 32 443 47 510 76 566 c 0
 106 623 149 666 206 696 c 0
 262 725 329 740 407 740 c 0
 485 740 552 725 608 696 c 0
 665 666 708 623 738 566 c 0
 767 510 782 443 782 365 c 0
 782 287 767 220 738 164 c 0
 708 107 665 64 608 34 c 0
 552 5 485 -10 407 -10 c 0
 329 -10 262 5 206 34 c 0
577 365 m 0
 577 502 520 570 407 570 c 0
 294 570 237 502 237 365 c 0
 237 228 294 160 407 160 c 0
 520 160 577 228 577 365 c 0
231 980 m 1
 461 980 l 1
 521 770 l 1
 351 770 l 1
 231 980 l 1
EndSplineSet
EndChar

StartChar: uni1ECE
Encoding: 7886 7886 122
Width: 814
Flags: W
LayerCount: 2
Fore
SplineSet
206 34 m 0
 149 64 106 107 76 164 c 0
 47 220 32 287 32 365 c 0
 32 443 47 510 76 566 c 0
 106 623 149 666 206 696 c 0
 262 725 329 740 407 740 c 0
 485 740 552 725 608 696 c 0
 665 666 708 623 738 566 c 0
 767 510 782 443 782 365 c 0
 782 287 767 220 738 164 c 0
 708 107 665 64 608 34 c 0
 552 5 485 -10 407 -10 c 0
 329 -10 262 5 206 34 c 0
577 365 m 0
 577 502 520 570 407 570 c 0
 294 570 237 502 237 365 c 0
 237 228 294 160 407 160 c 0
 520 160 577 228 577 365 c 0
427 830 m 0
 427 842 424 850 418 854 c 0
 412 858 400 860 382 860 c 0
 359 860 334 858 306 854 c 0
 279 849 252 843 227 835 c 1
 212 970 l 1
 240 976 272 981 308 984 c 0
 343 988 376 990 407 990 c 0
 459 990 499 987 526 982 c 0
 554 976 574 966 585 953 c 0
 596 940 602 920 602 895 c 0
 602 876 600 855 595 832 c 0
 590 809 584 788 577 770 c 1
 417 770 l 1
 424 795 427 815 427 830 c 0
EndSplineSet
EndChar

StartChar: Ohorn
Encoding: 416 416 123
Width: 844
Flags: W
LayerCount: 2
Fore
SplineSet
838 580 m 0
 819 550 792 530 757 521 c 1
 774 476 782 424 782 365 c 0
 782 287 767 220 738 164 c 0
 708 107 665 64 608 34 c 0
 552 5 485 -10 407 -10 c 0
 329 -10 262 5 206 34 c 0
 149 64 106 107 76 164 c 0
 47 220 32 287 32 365 c 0
 32 443 47 510 76 566 c 0
 106 623 149 666 206 696 c 0
 262 725 329 740 407 740 c 0
 511 740 595 714 659 662 c 1
 668 665 676 672 681 681 c 0
 686 690 689 702 689 715 c 0
 689 730 686 749 682 774 c 0
 676 798 671 818 664 835 c 1
 844 835 l 1
 859 793 866 747 866 697 c 0
 866 648 857 609 838 580 c 0
577 365 m 0
 577 502 520 570 407 570 c 0
 294 570 237 502 237 365 c 0
 237 228 294 160 407 160 c 0
 520 160 577 228 577 365 c 0
EndSplineSet
EndChar

StartChar: uni1EDA
Encoding: 7898 7898 124
Width: 844
Flags: W
LayerCount: 2
Fore
SplineSet
838 580 m 0
 819 550 792 530 757 521 c 1
 774 476 782 424 782 365 c 0
 782 287 767 220 738 164 c 0
 708 107 665 64 608 34 c 0
 552 5 485 -10 407 -10 c 0
 329 -10 262 5 206 34 c 0
 149 64 106 107 76 164 c 0
 47 220 32 287 32 365 c 0
 32 443 47 510 76 566 c 0
 106 623 149 666 206 696 c 0
 262 725 329 740 407 740 c 0
 511 740 595 714 659 662 c 1
 668 665 676 672 681 681 c 0
 686 690 689 702 689 715 c 0
 689 730 686 749 682 774 c 0
 676 798 671 818 664 835 c 1
 844 835 l 1
 859 793 866 747 866 697 c 0
 866 648 857 609 838 580 c 0
577 365 m 0
 577 502 520 570 407 570 c 0
 294 570 237 502 237 365 c 0
 237 228 294 160 407 160 c 0
 520 160 577 228 577 365 c 0
463 770 m 1
 293 770 l 1
 353 980 l 1
 583 980 l 1
 463 770 l 1
EndSplineSet
EndChar

StartChar: uni1EE2
Encoding: 7906 7906 125
Width: 844
Flags: W
LayerCount: 2
Fore
SplineSet
838 580 m 0
 819 550 792 530 757 521 c 1
 774 476 782 424 782 365 c 0
 782 287 767 220 738 164 c 0
 708 107 665 64 608 34 c 0
 552 5 485 -10 407 -10 c 0
 329 -10 262 5 206 34 c 0
 149 64 106 107 76 164 c 0
 47 220 32 287 32 365 c 0
 32 443 47 510 76 566 c 0
 106 623 149 666 206 696 c 0
 262 725 329 740 407 740 c 0
 511 740 595 714 659 662 c 1
 668 665 676 672 681 681 c 0
 686 690 689 702 689 715 c 0
 689 730 686 749 682 774 c 0
 676 798 671 818 664 835 c 1
 844 835 l 1
 859 793 866 747 866 697 c 0
 866 648 857 609 838 580 c 0
577 365 m 0
 577 502 520 570 407 570 c 0
 294 570 237 502 237 365 c 0
 237 228 294 160 407 160 c 0
 520 160 577 228 577 365 c 0
312 -50 m 1
 502 -50 l 1
 502 -240 l 1
 312 -240 l 1
 312 -50 l 1
EndSplineSet
EndChar

StartChar: uni1EDC
Encoding: 7900 7900 126
Width: 844
Flags: W
LayerCount: 2
Fore
SplineSet
838 580 m 0
 819 550 792 530 757 521 c 1
 774 476 782 424 782 365 c 0
 782 287 767 220 738 164 c 0
 708 107 665 64 608 34 c 0
 552 5 485 -10 407 -10 c 0
 329 -10 262 5 206 34 c 0
 149 64 106 107 76 164 c 0
 47 220 32 287 32 365 c 0
 32 443 47 510 76 566 c 0
 106 623 149 666 206 696 c 0
 262 725 329 740 407 740 c 0
 511 740 595 714 659 662 c 1
 668 665 676 672 681 681 c 0
 686 690 689 702 689 715 c 0
 689 730 686 749 682 774 c 0
 676 798 671 818 664 835 c 1
 844 835 l 1
 859 793 866 747 866 697 c 0
 866 648 857 609 838 580 c 0
577 365 m 0
 577 502 520 570 407 570 c 0
 294 570 237 502 237 365 c 0
 237 228 294 160 407 160 c 0
 520 160 577 228 577 365 c 0
231 980 m 1
 461 980 l 1
 521 770 l 1
 351 770 l 1
 231 980 l 1
EndSplineSet
EndChar

StartChar: uni1EDE
Encoding: 7902 7902 127
Width: 844
Flags: W
LayerCount: 2
Fore
SplineSet
838 580 m 0
 819 550 792 530 757 521 c 1
 774 476 782 424 782 365 c 0
 782 287 767 220 738 164 c 0
 708 107 665 64 608 34 c 0
 552 5 485 -10 407 -10 c 0
 329 -10 262 5 206 34 c 0
 149 64 106 107 76 164 c 0
 47 220 32 287 32 365 c 0
 32 443 47 510 76 566 c 0
 106 623 149 666 206 696 c 0
 262 725 329 740 407 740 c 0
 511 740 595 714 659 662 c 1
 668 665 676 672 681 681 c 0
 686 690 689 702 689 715 c 0
 689 730 686 749 682 774 c 0
 676 798 671 818 664 835 c 1
 844 835 l 1
 859 793 866 747 866 697 c 0
 866 648 857 609 838 580 c 0
577 365 m 0
 577 502 520 570 407 570 c 0
 294 570 237 502 237 365 c 0
 237 228 294 160 407 160 c 0
 520 160 577 228 577 365 c 0
427 830 m 0
 427 842 424 850 418 854 c 0
 412 858 400 860 382 860 c 0
 359 860 334 858 306 854 c 0
 279 849 252 843 227 835 c 1
 212 970 l 1
 240 976 272 981 308 984 c 0
 343 988 376 990 407 990 c 0
 459 990 499 987 526 982 c 0
 554 976 574 966 585 953 c 0
 596 940 602 920 602 895 c 0
 602 876 600 855 595 832 c 0
 590 809 584 788 577 770 c 1
 417 770 l 1
 424 795 427 815 427 830 c 0
EndSplineSet
EndChar

StartChar: uni1EE0
Encoding: 7904 7904 128
Width: 844
Flags: W
LayerCount: 2
Fore
SplineSet
838 580 m 0
 819 550 792 530 757 521 c 1
 774 476 782 424 782 365 c 0
 782 287 767 220 738 164 c 0
 708 107 665 64 608 34 c 0
 552 5 485 -10 407 -10 c 0
 329 -10 262 5 206 34 c 0
 149 64 106 107 76 164 c 0
 47 220 32 287 32 365 c 0
 32 443 47 510 76 566 c 0
 106 623 149 666 206 696 c 0
 262 725 329 740 407 740 c 0
 511 740 595 714 659 662 c 1
 668 665 676 672 681 681 c 0
 686 690 689 702 689 715 c 0
 689 730 686 749 682 774 c 0
 676 798 671 818 664 835 c 1
 844 835 l 1
 859 793 866 747 866 697 c 0
 866 648 857 609 838 580 c 0
577 365 m 0
 577 502 520 570 407 570 c 0
 294 570 237 502 237 365 c 0
 237 228 294 160 407 160 c 0
 520 160 577 228 577 365 c 0
384 812 m 0
 359 827 340 835 327 835 c 0
 318 835 312 831 310 822 c 0
 306 814 305 797 305 770 c 1
 157 770 l 1
 157 845 167 900 188 936 c 0
 208 972 239 990 282 990 c 0
 325 990 374 973 430 938 c 0
 455 923 474 915 487 915 c 0
 496 915 502 919 504 928 c 0
 508 936 509 953 509 980 c 1
 657 980 l 1
 657 905 647 850 626 814 c 0
 606 778 575 760 532 760 c 0
 489 760 440 777 384 812 c 0
EndSplineSet
EndChar

StartChar: Ohungarumlaut
Encoding: 336 336 129
Width: 814
Flags: W
LayerCount: 2
Fore
SplineSet
206 34 m 0
 149 64 106 107 76 164 c 0
 47 220 32 287 32 365 c 0
 32 443 47 510 76 566 c 0
 106 623 149 666 206 696 c 0
 262 725 329 740 407 740 c 0
 485 740 552 725 608 696 c 0
 665 666 708 623 738 566 c 0
 767 510 782 443 782 365 c 0
 782 287 767 220 738 164 c 0
 708 107 665 64 608 34 c 0
 552 5 485 -10 407 -10 c 0
 329 -10 262 5 206 34 c 0
577 365 m 0
 577 502 520 570 407 570 c 0
 294 570 237 502 237 365 c 0
 237 228 294 160 407 160 c 0
 520 160 577 228 577 365 c 0
333 770 m 1
 163 770 l 1
 223 980 l 1
 453 980 l 1
 333 770 l 1
603 770 m 1
 433 770 l 1
 493 980 l 1
 723 980 l 1
 603 770 l 1
EndSplineSet
EndChar

StartChar: uni020E
Encoding: 526 526 130
Width: 814
Flags: W
LayerCount: 2
Fore
SplineSet
206 34 m 0
 149 64 106 107 76 164 c 0
 47 220 32 287 32 365 c 0
 32 443 47 510 76 566 c 0
 106 623 149 666 206 696 c 0
 262 725 329 740 407 740 c 0
 485 740 552 725 608 696 c 0
 665 666 708 623 738 566 c 0
 767 510 782 443 782 365 c 0
 782 287 767 220 738 164 c 0
 708 107 665 64 608 34 c 0
 552 5 485 -10 407 -10 c 0
 329 -10 262 5 206 34 c 0
577 365 m 0
 577 502 520 570 407 570 c 0
 294 570 237 502 237 365 c 0
 237 228 294 160 407 160 c 0
 520 160 577 228 577 365 c 0
536 962 m 0
 574 942 604 916 625 883 c 0
 646 850 657 812 657 770 c 1
 487 770 l 1
 483 801 474 823 462 838 c 0
 448 853 430 860 407 860 c 0
 383 860 364 853 352 838 c 0
 338 823 330 801 327 770 c 1
 157 770 l 1
 157 812 168 850 189 883 c 0
 210 916 240 942 278 962 c 0
 316 980 359 990 407 990 c 0
 455 990 498 980 536 962 c 0
EndSplineSet
EndChar

StartChar: Omacron
Encoding: 332 332 131
Width: 814
Flags: W
LayerCount: 2
Fore
SplineSet
206 34 m 0
 149 64 106 107 76 164 c 0
 47 220 32 287 32 365 c 0
 32 443 47 510 76 566 c 0
 106 623 149 666 206 696 c 0
 262 725 329 740 407 740 c 0
 485 740 552 725 608 696 c 0
 665 666 708 623 738 566 c 0
 767 510 782 443 782 365 c 0
 782 287 767 220 738 164 c 0
 708 107 665 64 608 34 c 0
 552 5 485 -10 407 -10 c 0
 329 -10 262 5 206 34 c 0
577 365 m 0
 577 502 520 570 407 570 c 0
 294 570 237 502 237 365 c 0
 237 228 294 160 407 160 c 0
 520 160 577 228 577 365 c 0
197 945 m 1
 617 945 l 1
 617 805 l 1
 197 805 l 1
 197 945 l 1
EndSplineSet
EndChar

StartChar: uni01EA
Encoding: 490 490 132
Width: 814
Flags: W
LayerCount: 2
Fore
SplineSet
408 -57 m 0
 408 -66 412 -73 421 -78 c 0
 430 -83 442 -85 459 -85 c 0
 474 -85 490 -83 508 -80 c 0
 525 -76 542 -71 557 -65 c 1
 572 -200 l 1
 536 -213 494 -220 447 -220 c 0
 378 -220 325 -208 288 -184 c 0
 251 -160 232 -126 232 -82 c 0
 232 -51 244 -20 267 9 c 1
 192 32 134 75 93 136 c 0
 52 197 32 274 32 365 c 0
 32 443 47 510 76 566 c 0
 106 623 149 666 206 696 c 0
 262 725 329 740 407 740 c 0
 485 740 552 725 608 696 c 0
 665 666 708 623 738 566 c 0
 767 510 782 443 782 365 c 0
 782 256 754 170 698 105 c 0
 642 40 563 3 462 -7 c 1
 426 -24 408 -40 408 -57 c 0
237 365 m 0
 237 228 294 160 407 160 c 0
 520 160 577 228 577 365 c 0
 577 502 520 570 407 570 c 0
 294 570 237 502 237 365 c 0
EndSplineSet
EndChar

StartChar: Oslash
Encoding: 216 216 133
Width: 814
Flags: W
LayerCount: 2
Fore
SplineSet
782 365 m 0
 782 287 767 220 738 164 c 0
 708 107 665 64 608 34 c 0
 552 5 485 -10 407 -10 c 0
 347 -10 292 -1 242 18 c 1
 187 -55 l 1
 67 35 l 1
 118 103 l 1
 61 168 32 256 32 365 c 0
 32 443 47 510 76 566 c 0
 106 623 149 666 206 696 c 0
 262 725 329 740 407 740 c 0
 467 740 522 731 572 712 c 1
 627 785 l 1
 747 695 l 1
 696 627 l 1
 753 562 782 474 782 365 c 0
247 277 m 1
 462 564 l 1
 445 568 427 570 407 570 c 0
 294 570 237 502 237 365 c 0
 237 330 240 301 247 277 c 1
577 365 m 0
 577 400 574 429 567 453 c 1
 352 166 l 1
 369 162 387 160 407 160 c 0
 520 160 577 228 577 365 c 0
EndSplineSet
EndChar

StartChar: Oslashacute
Encoding: 510 510 134
Width: 814
Flags: W
LayerCount: 2
Fore
SplineSet
782 365 m 0
 782 287 767 220 738 164 c 0
 708 107 665 64 608 34 c 0
 552 5 485 -10 407 -10 c 0
 347 -10 292 -1 242 18 c 1
 187 -55 l 1
 67 35 l 1
 118 103 l 1
 61 168 32 256 32 365 c 0
 32 443 47 510 76 566 c 0
 106 623 149 666 206 696 c 0
 262 725 329 740 407 740 c 0
 467 740 522 731 572 712 c 1
 627 785 l 1
 747 695 l 1
 696 627 l 1
 753 562 782 474 782 365 c 0
247 277 m 1
 462 564 l 1
 445 568 427 570 407 570 c 0
 294 570 237 502 237 365 c 0
 237 330 240 301 247 277 c 1
577 365 m 0
 577 400 574 429 567 453 c 1
 352 166 l 1
 369 162 387 160 407 160 c 0
 520 160 577 228 577 365 c 0
463 770 m 1
 293 770 l 1
 353 980 l 1
 583 980 l 1
 463 770 l 1
EndSplineSet
EndChar

StartChar: Otilde
Encoding: 213 213 135
Width: 814
Flags: W
LayerCount: 2
Fore
SplineSet
206 34 m 0
 149 64 106 107 76 164 c 0
 47 220 32 287 32 365 c 0
 32 443 47 510 76 566 c 0
 106 623 149 666 206 696 c 0
 262 725 329 740 407 740 c 0
 485 740 552 725 608 696 c 0
 665 666 708 623 738 566 c 0
 767 510 782 443 782 365 c 0
 782 287 767 220 738 164 c 0
 708 107 665 64 608 34 c 0
 552 5 485 -10 407 -10 c 0
 329 -10 262 5 206 34 c 0
577 365 m 0
 577 502 520 570 407 570 c 0
 294 570 237 502 237 365 c 0
 237 228 294 160 407 160 c 0
 520 160 577 228 577 365 c 0
384 812 m 0
 359 827 340 835 327 835 c 0
 318 835 312 831 310 822 c 0
 306 814 305 797 305 770 c 1
 157 770 l 1
 157 845 167 900 188 936 c 0
 208 972 239 990 282 990 c 0
 325 990 374 973 430 938 c 0
 455 923 474 915 487 915 c 0
 496 915 502 919 504 928 c 0
 508 936 509 953 509 980 c 1
 657 980 l 1
 657 905 647 850 626 814 c 0
 606 778 575 760 532 760 c 0
 489 760 440 777 384 812 c 0
EndSplineSet
EndChar

StartChar: uni022C
Encoding: 556 556 136
Width: 814
Flags: W
LayerCount: 2
Fore
SplineSet
206 34 m 0
 149 64 106 107 76 164 c 0
 47 220 32 287 32 365 c 0
 32 443 47 510 76 566 c 0
 106 623 149 666 206 696 c 0
 262 725 329 740 407 740 c 0
 485 740 552 725 608 696 c 0
 665 666 708 623 738 566 c 0
 767 510 782 443 782 365 c 0
 782 287 767 220 738 164 c 0
 708 107 665 64 608 34 c 0
 552 5 485 -10 407 -10 c 0
 329 -10 262 5 206 34 c 0
577 365 m 0
 577 502 520 570 407 570 c 0
 294 570 237 502 237 365 c 0
 237 228 294 160 407 160 c 0
 520 160 577 228 577 365 c 0
384 812 m 0
 359 827 340 835 327 835 c 0
 318 835 312 831 310 822 c 0
 306 814 305 797 305 770 c 1
 157 770 l 1
 157 845 167 900 188 936 c 0
 208 972 239 990 282 990 c 0
 325 990 374 973 430 938 c 0
 455 923 474 915 487 915 c 0
 496 915 502 919 504 928 c 0
 508 936 509 953 509 980 c 1
 657 980 l 1
 657 905 647 850 626 814 c 0
 606 778 575 760 532 760 c 0
 489 760 440 777 384 812 c 0
197 1205 m 1
 617 1205 l 1
 617 1065 l 1
 197 1065 l 1
 197 1205 l 1
EndSplineSet
EndChar

StartChar: OE
Encoding: 338 338 137
Width: 1055
Flags: W
LayerCount: 2
Fore
SplineSet
710 570 m 1
 710 453 l 1
 980 453 l 1
 980 298 l 1
 710 298 l 1
 710 160 l 1
 1000 160 l 1
 1000 0 l 1
 511 0 l 1
 480 -7 445 -10 407 -10 c 0
 329 -10 262 5 206 34 c 0
 149 64 106 107 76 164 c 0
 47 220 32 287 32 365 c 0
 32 443 47 510 76 566 c 0
 106 623 149 666 206 696 c 0
 262 725 329 740 407 740 c 0
 445 740 480 737 511 730 c 1
 1000 730 l 1
 1000 570 l 1
 710 570 l 1
407 160 m 0
 448 160 483 170 510 189 c 1
 510 541 l 1
 483 560 448 570 407 570 c 0
 294 570 237 502 237 365 c 0
 237 228 294 160 407 160 c 0
EndSplineSet
EndChar

StartChar: P
Encoding: 80 80 138
Width: 661
Flags: W
LayerCount: 2
Fore
SplineSet
551 667 m 0
 607 625 635 561 635 475 c 0
 635 392 609 329 558 286 c 0
 507 242 432 220 335 220 c 2
 265 220 l 1
 265 0 l 1
 65 0 l 1
 65 730 l 1
 295 730 l 2
 410 730 495 709 551 667 c 0
400 403 m 0
 420 418 430 442 430 475 c 0
 430 508 420 532 400 547 c 0
 379 562 348 570 305 570 c 2
 265 570 l 1
 265 380 l 1
 305 380 l 2
 348 380 379 388 400 403 c 0
EndSplineSet
EndChar

StartChar: Thorn
Encoding: 222 222 139
Width: 661
Flags: W
LayerCount: 2
Fore
SplineSet
551 567 m 0
 607 525 635 461 635 375 c 0
 635 292 609 229 558 186 c 0
 507 142 432 120 335 120 c 2
 265 120 l 1
 265 0 l 1
 65 0 l 1
 65 730 l 1
 265 730 l 1
 265 630 l 1
 295 630 l 2
 410 630 495 609 551 567 c 0
400 303 m 0
 420 318 430 342 430 375 c 0
 430 408 420 432 400 447 c 0
 379 462 348 470 305 470 c 2
 265 470 l 1
 265 280 l 1
 305 280 l 2
 348 280 379 288 400 303 c 0
EndSplineSet
EndChar

StartChar: Q
Encoding: 81 81 140
Width: 817
Flags: W
LayerCount: 2
Fore
SplineSet
797 -40 m 1
 637 -150 l 1
 614 -113 592 -84 571 -64 c 0
 550 -45 527 -31 502 -22 c 0
 477 -14 445 -10 407 -10 c 0
 329 -10 262 5 206 34 c 0
 150 64 107 107 77 164 c 0
 47 220 32 287 32 365 c 0
 32 443 47 510 77 566 c 0
 107 623 150 666 206 696 c 0
 262 725 329 740 407 740 c 0
 486 740 553 725 610 696 c 0
 666 666 709 623 738 566 c 0
 767 510 782 443 782 365 c 0
 783 301 772 244 751 195 c 0
 730 146 698 105 657 74 c 1
 714 45 761 7 797 -40 c 1
535 212 m 0
 564 246 578 297 577 365 c 0
 578 502 522 570 407 570 c 0
 295 570 238 502 237 365 c 0
 238 228 295 160 407 160 c 0
 464 160 506 177 535 212 c 0
EndSplineSet
EndChar

StartChar: R
Encoding: 82 82 141
Width: 691
Flags: W
LayerCount: 2
Fore
SplineSet
267 255 m 1
 265 255 l 1
 265 0 l 1
 65 0 l 1
 65 730 l 1
 295 730 l 2
 410 730 495 711 551 672 c 0
 607 633 635 574 635 495 c 0
 635 437 621 389 592 352 c 0
 564 314 523 287 468 272 c 1
 665 0 l 1
 451 0 l 1
 267 255 l 1
265 570 m 1
 265 400 l 1
 305 400 l 2
 348 400 379 407 400 421 c 0
 420 435 430 456 430 485 c 0
 430 514 420 535 400 549 c 0
 379 563 348 570 305 570 c 2
 265 570 l 1
EndSplineSet
EndChar

StartChar: Racute
Encoding: 340 340 142
Width: 691
Flags: W
LayerCount: 2
Fore
SplineSet
267 255 m 1
 265 255 l 1
 265 0 l 1
 65 0 l 1
 65 730 l 1
 295 730 l 2
 410 730 495 711 551 672 c 0
 607 633 635 574 635 495 c 0
 635 437 621 389 592 352 c 0
 564 314 523 287 468 272 c 1
 665 0 l 1
 451 0 l 1
 267 255 l 1
265 570 m 1
 265 400 l 1
 305 400 l 2
 348 400 379 407 400 421 c 0
 420 435 430 456 430 485 c 0
 430 514 420 535 400 549 c 0
 379 563 348 570 305 570 c 2
 265 570 l 1
386 770 m 1
 216 770 l 1
 276 980 l 1
 506 980 l 1
 386 770 l 1
EndSplineSet
EndChar

StartChar: Rcaron
Encoding: 344 344 143
Width: 691
Flags: W
LayerCount: 2
Fore
SplineSet
267 255 m 1
 265 255 l 1
 265 0 l 1
 65 0 l 1
 65 730 l 1
 295 730 l 2
 410 730 495 711 551 672 c 0
 607 633 635 574 635 495 c 0
 635 437 621 389 592 352 c 0
 564 314 523 287 468 272 c 1
 665 0 l 1
 451 0 l 1
 267 255 l 1
265 570 m 1
 265 400 l 1
 305 400 l 2
 348 400 379 407 400 421 c 0
 420 435 430 456 430 485 c 0
 430 514 420 535 400 549 c 0
 379 563 348 570 305 570 c 2
 265 570 l 1
60 980 m 1
 270 980 l 1
 329 840 l 1
 331 840 l 1
 390 980 l 1
 600 980 l 1
 480 770 l 1
 180 770 l 1
 60 980 l 1
EndSplineSet
EndChar

StartChar: uni0156
Encoding: 342 342 144
Width: 691
Flags: W
LayerCount: 2
Fore
SplineSet
267 255 m 1
 265 255 l 1
 265 0 l 1
 65 0 l 1
 65 730 l 1
 295 730 l 2
 410 730 495 711 551 672 c 0
 607 633 635 574 635 495 c 0
 635 437 621 389 592 352 c 0
 564 314 523 287 468 272 c 1
 665 0 l 1
 451 0 l 1
 267 255 l 1
265 570 m 1
 265 400 l 1
 305 400 l 2
 348 400 379 407 400 421 c 0
 420 435 430 456 430 485 c 0
 430 514 420 535 400 549 c 0
 379 563 348 570 305 570 c 2
 265 570 l 1
355 -250 m 1
 185 -250 l 1
 245 -40 l 1
 475 -40 l 1
 355 -250 l 1
EndSplineSet
EndChar

StartChar: uni0210
Encoding: 528 528 145
Width: 691
Flags: W
LayerCount: 2
Fore
SplineSet
267 255 m 1
 265 255 l 1
 265 0 l 1
 65 0 l 1
 65 730 l 1
 295 730 l 2
 410 730 495 711 551 672 c 0
 607 633 635 574 635 495 c 0
 635 437 621 389 592 352 c 0
 564 314 523 287 468 272 c 1
 665 0 l 1
 451 0 l 1
 267 255 l 1
265 570 m 1
 265 400 l 1
 305 400 l 2
 348 400 379 407 400 421 c 0
 420 435 430 456 430 485 c 0
 430 514 420 535 400 549 c 0
 379 563 348 570 305 570 c 2
 265 570 l 1
16 980 m 1
 246 980 l 1
 306 770 l 1
 136 770 l 1
 16 980 l 1
286 980 m 1
 516 980 l 1
 576 770 l 1
 406 770 l 1
 286 980 l 1
EndSplineSet
EndChar

StartChar: uni0212
Encoding: 530 530 146
Width: 691
Flags: W
LayerCount: 2
Fore
SplineSet
267 255 m 1
 265 255 l 1
 265 0 l 1
 65 0 l 1
 65 730 l 1
 295 730 l 2
 410 730 495 711 551 672 c 0
 607 633 635 574 635 495 c 0
 635 437 621 389 592 352 c 0
 564 314 523 287 468 272 c 1
 665 0 l 1
 451 0 l 1
 267 255 l 1
265 570 m 1
 265 400 l 1
 305 400 l 2
 348 400 379 407 400 421 c 0
 420 435 430 456 430 485 c 0
 430 514 420 535 400 549 c 0
 379 563 348 570 305 570 c 2
 265 570 l 1
459 962 m 0
 497 942 527 916 548 883 c 0
 569 850 580 812 580 770 c 1
 410 770 l 1
 406 801 398 823 384 838 c 0
 372 853 353 860 330 860 c 0
 306 860 288 853 274 838 c 0
 262 823 253 801 250 770 c 1
 80 770 l 1
 80 812 91 850 112 883 c 0
 133 916 163 942 201 962 c 0
 239 980 282 990 330 990 c 0
 378 990 421 980 459 962 c 0
EndSplineSet
EndChar

StartChar: S
Encoding: 83 83 147
Width: 638
Flags: W
LayerCount: 2
Fore
SplineSet
154 6 m 0
 109 18 70 33 39 54 c 1
 99 212 l 1
 131 194 165 180 202 170 c 0
 238 160 272 155 304 155 c 0
 331 155 352 160 367 169 c 0
 382 178 389 192 389 210 c 0
 389 225 383 236 372 246 c 0
 361 254 340 264 309 275 c 0
 244 297 192 320 154 344 c 0
 115 367 87 394 70 422 c 0
 53 452 44 486 44 525 c 0
 44 594 69 648 118 684 c 0
 168 722 240 740 334 740 c 0
 379 740 423 736 467 727 c 0
 511 718 549 707 581 692 c 1
 521 534 l 1
 461 561 402 575 344 575 c 0
 284 575 254 558 254 525 c 0
 254 511 260 499 273 490 c 0
 286 480 308 469 339 458 c 0
 404 435 455 411 492 388 c 0
 529 364 556 338 574 310 c 0
 590 281 599 248 599 210 c 0
 599 139 574 85 522 47 c 0
 472 9 399 -10 304 -10 c 0
 249 -10 199 -4 154 6 c 0
EndSplineSet
EndChar

StartChar: Sacute
Encoding: 346 346 148
Width: 638
Flags: W
LayerCount: 2
Fore
SplineSet
154 6 m 0
 109 18 70 33 39 54 c 1
 99 212 l 1
 131 194 165 180 202 170 c 0
 238 160 272 155 304 155 c 0
 331 155 352 160 367 169 c 0
 382 178 389 192 389 210 c 0
 389 225 383 236 372 246 c 0
 361 254 340 264 309 275 c 0
 244 297 192 320 154 344 c 0
 115 367 87 394 70 422 c 0
 53 452 44 486 44 525 c 0
 44 594 69 648 118 684 c 0
 168 722 240 740 334 740 c 0
 379 740 423 736 467 727 c 0
 511 718 549 707 581 692 c 1
 521 534 l 1
 461 561 402 575 344 575 c 0
 284 575 254 558 254 525 c 0
 254 511 260 499 273 490 c 0
 286 480 308 469 339 458 c 0
 404 435 455 411 492 388 c 0
 529 364 556 338 574 310 c 0
 590 281 599 248 599 210 c 0
 599 139 574 85 522 47 c 0
 472 9 399 -10 304 -10 c 0
 249 -10 199 -4 154 6 c 0
374 770 m 1
 204 770 l 1
 264 980 l 1
 494 980 l 1
 374 770 l 1
EndSplineSet
EndChar

StartChar: Scaron
Encoding: 352 352 149
Width: 638
Flags: W
LayerCount: 2
Fore
SplineSet
154 6 m 0
 109 18 70 33 39 54 c 1
 99 212 l 1
 131 194 165 180 202 170 c 0
 238 160 272 155 304 155 c 0
 331 155 352 160 367 169 c 0
 382 178 389 192 389 210 c 0
 389 225 383 236 372 246 c 0
 361 254 340 264 309 275 c 0
 244 297 192 320 154 344 c 0
 115 367 87 394 70 422 c 0
 53 452 44 486 44 525 c 0
 44 594 69 648 118 684 c 0
 168 722 240 740 334 740 c 0
 379 740 423 736 467 727 c 0
 511 718 549 707 581 692 c 1
 521 534 l 1
 461 561 402 575 344 575 c 0
 284 575 254 558 254 525 c 0
 254 511 260 499 273 490 c 0
 286 480 308 469 339 458 c 0
 404 435 455 411 492 388 c 0
 529 364 556 338 574 310 c 0
 590 281 599 248 599 210 c 0
 599 139 574 85 522 47 c 0
 472 9 399 -10 304 -10 c 0
 249 -10 199 -4 154 6 c 0
48 980 m 1
 258 980 l 1
 317 840 l 1
 319 840 l 1
 378 980 l 1
 588 980 l 1
 468 770 l 1
 168 770 l 1
 48 980 l 1
EndSplineSet
EndChar

StartChar: Scedilla
Encoding: 350 350 150
Width: 638
Flags: W
LayerCount: 2
Fore
SplineSet
562 87 m 0
 537 54 501 29 454 12 c 1
 479 -17 491 -49 491 -82 c 0
 491 -126 472 -160 435 -184 c 0
 398 -208 345 -220 276 -220 c 0
 229 -220 187 -213 151 -200 c 1
 166 -65 l 1
 181 -71 198 -76 216 -80 c 0
 233 -83 249 -85 264 -85 c 0
 281 -85 293 -83 302 -78 c 0
 311 -73 315 -66 315 -57 c 0
 315 -40 298 -24 264 -9 c 1
 169 -4 94 17 39 54 c 1
 99 212 l 1
 131 194 165 180 202 170 c 0
 238 160 272 155 304 155 c 0
 331 155 352 160 367 169 c 0
 382 178 389 192 389 210 c 0
 389 225 383 236 372 246 c 0
 361 254 340 264 309 275 c 0
 244 297 192 320 154 344 c 0
 115 367 87 394 70 422 c 0
 53 452 44 486 44 525 c 0
 44 594 69 648 118 684 c 0
 168 722 240 740 334 740 c 0
 379 740 423 736 467 727 c 0
 511 718 549 707 581 692 c 1
 521 534 l 1
 461 561 402 575 344 575 c 0
 284 575 254 558 254 525 c 0
 254 511 260 499 273 490 c 0
 286 480 308 469 339 458 c 0
 404 435 455 411 492 388 c 0
 529 364 556 338 574 310 c 0
 590 281 599 248 599 210 c 0
 599 161 587 120 562 87 c 0
EndSplineSet
EndChar

StartChar: Scircumflex
Encoding: 348 348 151
Width: 638
Flags: W
LayerCount: 2
Fore
SplineSet
154 6 m 0
 109 18 70 33 39 54 c 1
 99 212 l 1
 131 194 165 180 202 170 c 0
 238 160 272 155 304 155 c 0
 331 155 352 160 367 169 c 0
 382 178 389 192 389 210 c 0
 389 225 383 236 372 246 c 0
 361 254 340 264 309 275 c 0
 244 297 192 320 154 344 c 0
 115 367 87 394 70 422 c 0
 53 452 44 486 44 525 c 0
 44 594 69 648 118 684 c 0
 168 722 240 740 334 740 c 0
 379 740 423 736 467 727 c 0
 511 718 549 707 581 692 c 1
 521 534 l 1
 461 561 402 575 344 575 c 0
 284 575 254 558 254 525 c 0
 254 511 260 499 273 490 c 0
 286 480 308 469 339 458 c 0
 404 435 455 411 492 388 c 0
 529 364 556 338 574 310 c 0
 590 281 599 248 599 210 c 0
 599 139 574 85 522 47 c 0
 472 9 399 -10 304 -10 c 0
 249 -10 199 -4 154 6 c 0
168 980 m 1
 468 980 l 1
 588 770 l 1
 378 770 l 1
 319 910 l 1
 317 910 l 1
 258 770 l 1
 48 770 l 1
 168 980 l 1
EndSplineSet
EndChar

StartChar: uni0218
Encoding: 536 536 152
Width: 638
Flags: W
LayerCount: 2
Fore
SplineSet
154 6 m 0
 109 18 70 33 39 54 c 1
 99 212 l 1
 131 194 165 180 202 170 c 0
 238 160 272 155 304 155 c 0
 331 155 352 160 367 169 c 0
 382 178 389 192 389 210 c 0
 389 225 383 236 372 246 c 0
 361 254 340 264 309 275 c 0
 244 297 192 320 154 344 c 0
 115 367 87 394 70 422 c 0
 53 452 44 486 44 525 c 0
 44 594 69 648 118 684 c 0
 168 722 240 740 334 740 c 0
 379 740 423 736 467 727 c 0
 511 718 549 707 581 692 c 1
 521 534 l 1
 461 561 402 575 344 575 c 0
 284 575 254 558 254 525 c 0
 254 511 260 499 273 490 c 0
 286 480 308 469 339 458 c 0
 404 435 455 411 492 388 c 0
 529 364 556 338 574 310 c 0
 590 281 599 248 599 210 c 0
 599 139 574 85 522 47 c 0
 472 9 399 -10 304 -10 c 0
 249 -10 199 -4 154 6 c 0
343 -250 m 1
 173 -250 l 1
 233 -40 l 1
 463 -40 l 1
 343 -250 l 1
EndSplineSet
EndChar

StartChar: uni1E9E
Encoding: 7838 7838 153
Width: 718
Flags: W
LayerCount: 2
Fore
SplineSet
315 15 m 1
 340 180 l 1
 373 167 401 160 425 160 c 0
 468 160 490 180 490 220 c 0
 490 236 486 248 478 256 c 0
 471 265 458 271 440 274 c 0
 421 278 395 280 360 280 c 1
 360 400 l 1
 435 500 l 1
 435 525 428 543 416 554 c 0
 402 565 381 570 350 570 c 0
 319 570 298 565 284 554 c 0
 272 543 265 525 265 500 c 2
 265 0 l 1
 65 0 l 1
 65 500 l 2
 65 660 160 740 350 740 c 0
 540 740 635 660 635 500 c 1
 548 397 l 1
 548 395 l 1
 597 386 633 365 658 334 c 0
 683 303 695 261 695 210 c 0
 695 139 674 84 633 46 c 0
 592 9 532 -10 455 -10 c 0
 406 -10 359 -2 315 15 c 1
EndSplineSet
EndChar

StartChar: uni018F
Encoding: 399 399 154
Width: 762
Flags: W
LayerCount: 2
Fore
SplineSet
624 643 m 0
 694 578 730 486 730 365 c 0
 730 288 716 221 687 164 c 0
 658 108 617 65 564 35 c 0
 510 5 446 -10 373 -10 c 0
 302 -10 240 4 188 32 c 0
 137 61 98 102 70 156 c 0
 44 211 30 276 30 351 c 0
 30 369 30 388 32 408 c 0
 32 427 34 441 35 448 c 1
 529 448 l 1
 526 492 510 523 479 542 c 0
 448 561 400 570 333 570 c 0
 258 570 186 559 116 536 c 1
 82 701 l 1
 113 713 149 722 192 730 c 0
 234 736 277 740 320 740 c 0
 451 740 552 708 624 643 c 0
482 192 m 0
 506 212 521 245 527 290 c 1
 233 290 l 1
 239 245 254 212 278 192 c 0
 302 170 336 160 380 160 c 0
 424 160 458 170 482 192 c 0
EndSplineSet
EndChar

StartChar: T
Encoding: 84 84 155
Width: 649
Flags: W
LayerCount: 2
Fore
SplineSet
222 560 m 1
 26 560 l 1
 26 730 l 1
 623 730 l 1
 623 560 l 1
 427 560 l 1
 427 0 l 1
 222 0 l 1
 222 560 l 1
EndSplineSet
EndChar

StartChar: Tbar
Encoding: 358 358 156
Width: 701
Flags: W
LayerCount: 2
Fore
SplineSet
649 560 m 1
 453 560 l 1
 453 385 l 1
 601 385 l 1
 601 245 l 1
 453 245 l 1
 453 0 l 1
 248 0 l 1
 248 245 l 1
 101 245 l 1
 101 385 l 1
 248 385 l 1
 248 560 l 1
 52 560 l 1
 52 730 l 1
 649 730 l 1
 649 560 l 1
EndSplineSet
EndChar

StartChar: Tcaron
Encoding: 356 356 157
Width: 649
Flags: W
LayerCount: 2
Fore
SplineSet
222 560 m 1
 26 560 l 1
 26 730 l 1
 623 730 l 1
 623 560 l 1
 427 560 l 1
 427 0 l 1
 222 0 l 1
 222 560 l 1
55 980 m 1
 265 980 l 1
 324 840 l 1
 326 840 l 1
 385 980 l 1
 595 980 l 1
 475 770 l 1
 175 770 l 1
 55 980 l 1
EndSplineSet
EndChar

StartChar: uni0162
Encoding: 354 354 158
Width: 649
Flags: W
LayerCount: 2
Fore
SplineSet
427 560 m 1
 427 20 l 1
 456 -13 470 -47 470 -82 c 0
 470 -126 451 -160 414 -184 c 0
 377 -208 324 -220 255 -220 c 0
 208 -220 166 -213 130 -200 c 1
 145 -65 l 1
 160 -71 177 -76 194 -80 c 0
 212 -83 228 -85 243 -85 c 0
 260 -85 272 -83 281 -78 c 0
 290 -73 294 -66 294 -57 c 0
 294 -38 270 -19 222 0 c 1
 222 560 l 1
 26 560 l 1
 26 730 l 1
 623 730 l 1
 623 560 l 1
 427 560 l 1
EndSplineSet
EndChar

StartChar: uni021A
Encoding: 538 538 159
Width: 649
Flags: W
LayerCount: 2
Fore
SplineSet
222 560 m 1
 26 560 l 1
 26 730 l 1
 623 730 l 1
 623 560 l 1
 427 560 l 1
 427 0 l 1
 222 0 l 1
 222 560 l 1
350 -250 m 1
 180 -250 l 1
 240 -40 l 1
 470 -40 l 1
 350 -250 l 1
EndSplineSet
EndChar

StartChar: U
Encoding: 85 85 160
Width: 718
Flags: W
LayerCount: 2
Fore
SplineSet
136 62 m 0
 85 110 59 179 59 270 c 2
 59 730 l 1
 259 730 l 1
 259 295 l 2
 259 244 266 209 281 190 c 0
 296 170 322 160 359 160 c 0
 396 160 422 170 437 190 c 0
 452 209 459 244 459 295 c 2
 459 730 l 1
 659 730 l 1
 659 270 l 2
 659 179 633 110 582 62 c 0
 531 14 456 -10 359 -10 c 0
 262 -10 187 14 136 62 c 0
EndSplineSet
EndChar

StartChar: Uacute
Encoding: 218 218 161
Width: 718
Flags: W
LayerCount: 2
Fore
SplineSet
136 62 m 0
 85 110 59 179 59 270 c 2
 59 730 l 1
 259 730 l 1
 259 295 l 2
 259 244 266 209 281 190 c 0
 296 170 322 160 359 160 c 0
 396 160 422 170 437 190 c 0
 452 209 459 244 459 295 c 2
 459 730 l 1
 659 730 l 1
 659 270 l 2
 659 179 633 110 582 62 c 0
 531 14 456 -10 359 -10 c 0
 262 -10 187 14 136 62 c 0
415 770 m 1
 245 770 l 1
 305 980 l 1
 535 980 l 1
 415 770 l 1
EndSplineSet
EndChar

StartChar: Ubreve
Encoding: 364 364 162
Width: 718
Flags: W
LayerCount: 2
Fore
SplineSet
136 62 m 0
 85 110 59 179 59 270 c 2
 59 730 l 1
 259 730 l 1
 259 295 l 2
 259 244 266 209 281 190 c 0
 296 170 322 160 359 160 c 0
 396 160 422 170 437 190 c 0
 452 209 459 244 459 295 c 2
 459 730 l 1
 659 730 l 1
 659 270 l 2
 659 179 633 110 582 62 c 0
 531 14 456 -10 359 -10 c 0
 262 -10 187 14 136 62 c 0
230 788 m 0
 192 808 162 834 141 867 c 0
 120 900 109 938 109 980 c 1
 279 980 l 1
 282 949 290 927 304 912 c 0
 316 897 335 890 359 890 c 0
 382 890 400 897 414 912 c 0
 426 927 435 949 439 980 c 1
 609 980 l 1
 609 938 598 900 577 867 c 0
 556 834 526 808 488 788 c 0
 450 770 407 760 359 760 c 0
 311 760 268 770 230 788 c 0
EndSplineSet
EndChar

StartChar: Ucircumflex
Encoding: 219 219 163
Width: 718
Flags: W
LayerCount: 2
Fore
SplineSet
136 62 m 0
 85 110 59 179 59 270 c 2
 59 730 l 1
 259 730 l 1
 259 295 l 2
 259 244 266 209 281 190 c 0
 296 170 322 160 359 160 c 0
 396 160 422 170 437 190 c 0
 452 209 459 244 459 295 c 2
 459 730 l 1
 659 730 l 1
 659 270 l 2
 659 179 633 110 582 62 c 0
 531 14 456 -10 359 -10 c 0
 262 -10 187 14 136 62 c 0
209 980 m 1
 509 980 l 1
 629 770 l 1
 419 770 l 1
 360 910 l 1
 358 910 l 1
 299 770 l 1
 89 770 l 1
 209 980 l 1
EndSplineSet
EndChar

StartChar: uni0214
Encoding: 532 532 164
Width: 718
Flags: W
LayerCount: 2
Fore
SplineSet
136 62 m 0
 85 110 59 179 59 270 c 2
 59 730 l 1
 259 730 l 1
 259 295 l 2
 259 244 266 209 281 190 c 0
 296 170 322 160 359 160 c 0
 396 160 422 170 437 190 c 0
 452 209 459 244 459 295 c 2
 459 730 l 1
 659 730 l 1
 659 270 l 2
 659 179 633 110 582 62 c 0
 531 14 456 -10 359 -10 c 0
 262 -10 187 14 136 62 c 0
45 980 m 1
 275 980 l 1
 335 770 l 1
 165 770 l 1
 45 980 l 1
315 980 m 1
 545 980 l 1
 605 770 l 1
 435 770 l 1
 315 980 l 1
EndSplineSet
EndChar

StartChar: Udieresis
Encoding: 220 220 165
Width: 718
Flags: W
LayerCount: 2
Fore
SplineSet
136 62 m 0
 85 110 59 179 59 270 c 2
 59 730 l 1
 259 730 l 1
 259 295 l 2
 259 244 266 209 281 190 c 0
 296 170 322 160 359 160 c 0
 396 160 422 170 437 190 c 0
 452 209 459 244 459 295 c 2
 459 730 l 1
 659 730 l 1
 659 270 l 2
 659 179 633 110 582 62 c 0
 531 14 456 -10 359 -10 c 0
 262 -10 187 14 136 62 c 0
129 970 m 1
 319 970 l 1
 319 780 l 1
 129 780 l 1
 129 970 l 1
399 970 m 1
 589 970 l 1
 589 780 l 1
 399 780 l 1
 399 970 l 1
EndSplineSet
EndChar

StartChar: uni1EE4
Encoding: 7908 7908 166
Width: 718
Flags: W
LayerCount: 2
Fore
SplineSet
136 62 m 0
 85 110 59 179 59 270 c 2
 59 730 l 1
 259 730 l 1
 259 295 l 2
 259 244 266 209 281 190 c 0
 296 170 322 160 359 160 c 0
 396 160 422 170 437 190 c 0
 452 209 459 244 459 295 c 2
 459 730 l 1
 659 730 l 1
 659 270 l 2
 659 179 633 110 582 62 c 0
 531 14 456 -10 359 -10 c 0
 262 -10 187 14 136 62 c 0
264 -50 m 1
 454 -50 l 1
 454 -240 l 1
 264 -240 l 1
 264 -50 l 1
EndSplineSet
EndChar

StartChar: Ugrave
Encoding: 217 217 167
Width: 718
Flags: W
LayerCount: 2
Fore
SplineSet
136 62 m 0
 85 110 59 179 59 270 c 2
 59 730 l 1
 259 730 l 1
 259 295 l 2
 259 244 266 209 281 190 c 0
 296 170 322 160 359 160 c 0
 396 160 422 170 437 190 c 0
 452 209 459 244 459 295 c 2
 459 730 l 1
 659 730 l 1
 659 270 l 2
 659 179 633 110 582 62 c 0
 531 14 456 -10 359 -10 c 0
 262 -10 187 14 136 62 c 0
183 980 m 1
 413 980 l 1
 473 770 l 1
 303 770 l 1
 183 980 l 1
EndSplineSet
EndChar

StartChar: uni1EE6
Encoding: 7910 7910 168
Width: 718
Flags: W
LayerCount: 2
Fore
SplineSet
136 62 m 0
 85 110 59 179 59 270 c 2
 59 730 l 1
 259 730 l 1
 259 295 l 2
 259 244 266 209 281 190 c 0
 296 170 322 160 359 160 c 0
 396 160 422 170 437 190 c 0
 452 209 459 244 459 295 c 2
 459 730 l 1
 659 730 l 1
 659 270 l 2
 659 179 633 110 582 62 c 0
 531 14 456 -10 359 -10 c 0
 262 -10 187 14 136 62 c 0
379 830 m 0
 379 842 376 850 370 854 c 0
 364 858 352 860 334 860 c 0
 311 860 286 858 258 854 c 0
 231 849 204 843 179 835 c 1
 164 970 l 1
 192 976 224 981 260 984 c 0
 295 988 328 990 359 990 c 0
 411 990 451 987 478 982 c 0
 506 976 526 966 537 953 c 0
 548 940 554 920 554 895 c 0
 554 876 552 855 547 832 c 0
 542 809 536 788 529 770 c 1
 369 770 l 1
 376 795 379 815 379 830 c 0
EndSplineSet
EndChar

StartChar: Uhorn
Encoding: 431 431 169
Width: 878
Flags: W
LayerCount: 2
Fore
SplineSet
891 697 m 0
 891 638 878 592 850 562 c 0
 824 530 785 515 734 515 c 0
 710 515 685 519 659 527 c 1
 659 270 l 2
 659 179 633 110 582 62 c 0
 531 14 456 -10 359 -10 c 0
 262 -10 187 14 136 62 c 0
 85 110 59 179 59 270 c 2
 59 730 l 1
 259 730 l 1
 259 295 l 2
 259 244 266 209 281 190 c 0
 296 170 322 160 359 160 c 0
 396 160 422 170 437 190 c 0
 452 209 459 244 459 295 c 2
 459 730 l 1
 659 730 l 1
 659 661 l 2
 661 660 664 660 669 660 c 0
 683 660 694 665 702 674 c 0
 710 684 714 698 714 715 c 0
 714 730 712 749 706 774 c 0
 702 798 696 818 689 835 c 1
 869 835 l 1
 884 793 891 747 891 697 c 0
EndSplineSet
EndChar

StartChar: uni1EE8
Encoding: 7912 7912 170
Width: 878
Flags: W
LayerCount: 2
Fore
SplineSet
891 697 m 0
 891 638 878 592 850 562 c 0
 824 530 785 515 734 515 c 0
 710 515 685 519 659 527 c 1
 659 270 l 2
 659 179 633 110 582 62 c 0
 531 14 456 -10 359 -10 c 0
 262 -10 187 14 136 62 c 0
 85 110 59 179 59 270 c 2
 59 730 l 1
 259 730 l 1
 259 295 l 2
 259 244 266 209 281 190 c 0
 296 170 322 160 359 160 c 0
 396 160 422 170 437 190 c 0
 452 209 459 244 459 295 c 2
 459 730 l 1
 659 730 l 1
 659 661 l 2
 661 660 664 660 669 660 c 0
 683 660 694 665 702 674 c 0
 710 684 714 698 714 715 c 0
 714 730 712 749 706 774 c 0
 702 798 696 818 689 835 c 1
 869 835 l 1
 884 793 891 747 891 697 c 0
415 770 m 1
 245 770 l 1
 305 980 l 1
 535 980 l 1
 415 770 l 1
EndSplineSet
EndChar

StartChar: uni1EF0
Encoding: 7920 7920 171
Width: 878
Flags: W
LayerCount: 2
Fore
SplineSet
891 697 m 0
 891 638 878 592 850 562 c 0
 824 530 785 515 734 515 c 0
 710 515 685 519 659 527 c 1
 659 270 l 2
 659 179 633 110 582 62 c 0
 531 14 456 -10 359 -10 c 0
 262 -10 187 14 136 62 c 0
 85 110 59 179 59 270 c 2
 59 730 l 1
 259 730 l 1
 259 295 l 2
 259 244 266 209 281 190 c 0
 296 170 322 160 359 160 c 0
 396 160 422 170 437 190 c 0
 452 209 459 244 459 295 c 2
 459 730 l 1
 659 730 l 1
 659 661 l 2
 661 660 664 660 669 660 c 0
 683 660 694 665 702 674 c 0
 710 684 714 698 714 715 c 0
 714 730 712 749 706 774 c 0
 702 798 696 818 689 835 c 1
 869 835 l 1
 884 793 891 747 891 697 c 0
264 -50 m 1
 454 -50 l 1
 454 -240 l 1
 264 -240 l 1
 264 -50 l 1
EndSplineSet
EndChar

StartChar: uni1EEA
Encoding: 7914 7914 172
Width: 878
Flags: W
LayerCount: 2
Fore
SplineSet
891 697 m 0
 891 638 878 592 850 562 c 0
 824 530 785 515 734 515 c 0
 710 515 685 519 659 527 c 1
 659 270 l 2
 659 179 633 110 582 62 c 0
 531 14 456 -10 359 -10 c 0
 262 -10 187 14 136 62 c 0
 85 110 59 179 59 270 c 2
 59 730 l 1
 259 730 l 1
 259 295 l 2
 259 244 266 209 281 190 c 0
 296 170 322 160 359 160 c 0
 396 160 422 170 437 190 c 0
 452 209 459 244 459 295 c 2
 459 730 l 1
 659 730 l 1
 659 661 l 2
 661 660 664 660 669 660 c 0
 683 660 694 665 702 674 c 0
 710 684 714 698 714 715 c 0
 714 730 712 749 706 774 c 0
 702 798 696 818 689 835 c 1
 869 835 l 1
 884 793 891 747 891 697 c 0
183 980 m 1
 413 980 l 1
 473 770 l 1
 303 770 l 1
 183 980 l 1
EndSplineSet
EndChar

StartChar: uni1EEC
Encoding: 7916 7916 173
Width: 878
Flags: W
LayerCount: 2
Fore
SplineSet
891 697 m 0
 891 638 878 592 850 562 c 0
 824 530 785 515 734 515 c 0
 710 515 685 519 659 527 c 1
 659 270 l 2
 659 179 633 110 582 62 c 0
 531 14 456 -10 359 -10 c 0
 262 -10 187 14 136 62 c 0
 85 110 59 179 59 270 c 2
 59 730 l 1
 259 730 l 1
 259 295 l 2
 259 244 266 209 281 190 c 0
 296 170 322 160 359 160 c 0
 396 160 422 170 437 190 c 0
 452 209 459 244 459 295 c 2
 459 730 l 1
 659 730 l 1
 659 661 l 2
 661 660 664 660 669 660 c 0
 683 660 694 665 702 674 c 0
 710 684 714 698 714 715 c 0
 714 730 712 749 706 774 c 0
 702 798 696 818 689 835 c 1
 869 835 l 1
 884 793 891 747 891 697 c 0
379 830 m 0
 379 842 376 850 370 854 c 0
 364 858 352 860 334 860 c 0
 311 860 286 858 258 854 c 0
 231 849 204 843 179 835 c 1
 164 970 l 1
 192 976 224 981 260 984 c 0
 295 988 328 990 359 990 c 0
 411 990 451 987 478 982 c 0
 506 976 526 966 537 953 c 0
 548 940 554 920 554 895 c 0
 554 876 552 855 547 832 c 0
 542 809 536 788 529 770 c 1
 369 770 l 1
 376 795 379 815 379 830 c 0
EndSplineSet
EndChar

StartChar: uni1EEE
Encoding: 7918 7918 174
Width: 878
Flags: W
LayerCount: 2
Fore
SplineSet
891 697 m 0
 891 638 878 592 850 562 c 0
 824 530 785 515 734 515 c 0
 710 515 685 519 659 527 c 1
 659 270 l 2
 659 179 633 110 582 62 c 0
 531 14 456 -10 359 -10 c 0
 262 -10 187 14 136 62 c 0
 85 110 59 179 59 270 c 2
 59 730 l 1
 259 730 l 1
 259 295 l 2
 259 244 266 209 281 190 c 0
 296 170 322 160 359 160 c 0
 396 160 422 170 437 190 c 0
 452 209 459 244 459 295 c 2
 459 730 l 1
 659 730 l 1
 659 661 l 2
 661 660 664 660 669 660 c 0
 683 660 694 665 702 674 c 0
 710 684 714 698 714 715 c 0
 714 730 712 749 706 774 c 0
 702 798 696 818 689 835 c 1
 869 835 l 1
 884 793 891 747 891 697 c 0
336 812 m 0
 311 827 292 835 279 835 c 0
 270 835 264 831 262 822 c 0
 258 814 257 797 257 770 c 1
 109 770 l 1
 109 845 119 900 140 936 c 0
 160 972 191 990 234 990 c 0
 277 990 326 973 382 938 c 0
 407 923 426 915 439 915 c 0
 448 915 454 919 456 928 c 0
 460 936 461 953 461 980 c 1
 609 980 l 1
 609 905 599 850 578 814 c 0
 558 778 527 760 484 760 c 0
 441 760 392 777 336 812 c 0
EndSplineSet
EndChar

StartChar: Uhungarumlaut
Encoding: 368 368 175
Width: 718
Flags: W
LayerCount: 2
Fore
SplineSet
136 62 m 0
 85 110 59 179 59 270 c 2
 59 730 l 1
 259 730 l 1
 259 295 l 2
 259 244 266 209 281 190 c 0
 296 170 322 160 359 160 c 0
 396 160 422 170 437 190 c 0
 452 209 459 244 459 295 c 2
 459 730 l 1
 659 730 l 1
 659 270 l 2
 659 179 633 110 582 62 c 0
 531 14 456 -10 359 -10 c 0
 262 -10 187 14 136 62 c 0
285 770 m 1
 115 770 l 1
 175 980 l 1
 405 980 l 1
 285 770 l 1
555 770 m 1
 385 770 l 1
 445 980 l 1
 675 980 l 1
 555 770 l 1
EndSplineSet
EndChar

StartChar: uni0216
Encoding: 534 534 176
Width: 718
Flags: W
LayerCount: 2
Fore
SplineSet
136 62 m 0
 85 110 59 179 59 270 c 2
 59 730 l 1
 259 730 l 1
 259 295 l 2
 259 244 266 209 281 190 c 0
 296 170 322 160 359 160 c 0
 396 160 422 170 437 190 c 0
 452 209 459 244 459 295 c 2
 459 730 l 1
 659 730 l 1
 659 270 l 2
 659 179 633 110 582 62 c 0
 531 14 456 -10 359 -10 c 0
 262 -10 187 14 136 62 c 0
488 962 m 0
 526 942 556 916 577 883 c 0
 598 850 609 812 609 770 c 1
 439 770 l 1
 435 801 426 823 414 838 c 0
 400 853 382 860 359 860 c 0
 335 860 316 853 304 838 c 0
 290 823 282 801 279 770 c 1
 109 770 l 1
 109 812 120 850 141 883 c 0
 162 916 192 942 230 962 c 0
 268 980 311 990 359 990 c 0
 407 990 450 980 488 962 c 0
EndSplineSet
EndChar

StartChar: Umacron
Encoding: 362 362 177
Width: 718
Flags: W
LayerCount: 2
Fore
SplineSet
136 62 m 0
 85 110 59 179 59 270 c 2
 59 730 l 1
 259 730 l 1
 259 295 l 2
 259 244 266 209 281 190 c 0
 296 170 322 160 359 160 c 0
 396 160 422 170 437 190 c 0
 452 209 459 244 459 295 c 2
 459 730 l 1
 659 730 l 1
 659 270 l 2
 659 179 633 110 582 62 c 0
 531 14 456 -10 359 -10 c 0
 262 -10 187 14 136 62 c 0
149 945 m 1
 569 945 l 1
 569 805 l 1
 149 805 l 1
 149 945 l 1
EndSplineSet
EndChar

StartChar: Uogonek
Encoding: 370 370 178
Width: 718
Flags: W
LayerCount: 2
Fore
SplineSet
659 730 m 1
 659 270 l 2
 659 201 644 145 614 100 c 0
 585 55 541 24 484 7 c 1
 441 -11 420 -29 420 -47 c 0
 420 -56 424 -63 433 -68 c 0
 442 -73 454 -75 471 -75 c 0
 486 -75 502 -73 520 -70 c 0
 537 -66 554 -61 569 -55 c 1
 584 -190 l 1
 548 -203 506 -210 459 -210 c 0
 390 -210 337 -198 300 -174 c 0
 263 -150 244 -116 244 -72 c 0
 244 -47 251 -23 264 -1 c 1
 197 13 146 43 111 89 c 0
 76 135 59 195 59 270 c 2
 59 730 l 1
 259 730 l 1
 259 295 l 2
 259 244 266 209 281 190 c 0
 296 170 322 160 359 160 c 0
 396 160 422 170 437 190 c 0
 452 209 459 244 459 295 c 2
 459 730 l 1
 659 730 l 1
EndSplineSet
EndChar

StartChar: Uring
Encoding: 366 366 179
Width: 718
Flags: W
LayerCount: 2
Fore
SplineSet
659 730 m 1
 659 270 l 2
 659 179 633 110 582 62 c 0
 531 14 456 -10 359 -10 c 0
 262 -10 187 14 136 62 c 0
 85 110 59 179 59 270 c 2
 59 730 l 1
 234 730 l 1
 220 745 209 763 201 782 c 0
 193 802 189 823 189 845 c 0
 189 876 197 904 212 930 c 0
 227 956 248 977 274 992 c 0
 300 1007 328 1015 359 1015 c 0
 390 1015 418 1007 444 992 c 0
 470 977 491 956 506 930 c 0
 521 904 529 876 529 845 c 0
 529 823 525 802 517 782 c 0
 509 763 498 745 484 730 c 1
 659 730 l 1
320 884 m 0
 309 873 304 860 304 845 c 0
 304 830 309 817 320 806 c 0
 331 795 344 790 359 790 c 0
 374 790 387 795 398 806 c 0
 409 817 414 830 414 845 c 0
 414 860 409 873 398 884 c 0
 387 895 374 900 359 900 c 0
 344 900 331 895 320 884 c 0
437 190 m 0
 452 209 459 244 459 295 c 2
 459 707 l 1
 429 686 396 675 359 675 c 0
 322 675 289 686 259 707 c 1
 259 295 l 2
 259 244 266 209 281 190 c 0
 296 170 322 160 359 160 c 0
 396 160 422 170 437 190 c 0
EndSplineSet
EndChar

StartChar: Utilde
Encoding: 360 360 180
Width: 718
Flags: W
LayerCount: 2
Fore
SplineSet
136 62 m 0
 85 110 59 179 59 270 c 2
 59 730 l 1
 259 730 l 1
 259 295 l 2
 259 244 266 209 281 190 c 0
 296 170 322 160 359 160 c 0
 396 160 422 170 437 190 c 0
 452 209 459 244 459 295 c 2
 459 730 l 1
 659 730 l 1
 659 270 l 2
 659 179 633 110 582 62 c 0
 531 14 456 -10 359 -10 c 0
 262 -10 187 14 136 62 c 0
336 812 m 0
 311 827 292 835 279 835 c 0
 270 835 264 831 262 822 c 0
 258 814 257 797 257 770 c 1
 109 770 l 1
 109 845 119 900 140 936 c 0
 160 972 191 990 234 990 c 0
 277 990 326 973 382 938 c 0
 407 923 426 915 439 915 c 0
 448 915 454 919 456 928 c 0
 460 936 461 953 461 980 c 1
 609 980 l 1
 609 905 599 850 578 814 c 0
 558 778 527 760 484 760 c 0
 441 760 392 777 336 812 c 0
EndSplineSet
EndChar

StartChar: V
Encoding: 86 86 181
Width: 704
Flags: W
LayerCount: 2
Fore
SplineSet
7 730 m 1
 227 730 l 1
 351 200 l 1
 353 200 l 1
 477 730 l 1
 697 730 l 1
 482 0 l 1
 222 0 l 1
 7 730 l 1
EndSplineSet
EndChar

StartChar: W
Encoding: 87 87 182
Width: 962
Flags: W
LayerCount: 2
Fore
SplineSet
477 530 m 1
 475 530 l 1
 401 0 l 1
 171 0 l 1
 16 730 l 1
 218 730 l 1
 292 200 l 1
 294 200 l 1
 358 730 l 1
 598 730 l 1
 662 200 l 1
 664 200 l 1
 738 730 l 1
 936 730 l 1
 781 0 l 1
 551 0 l 1
 477 530 l 1
EndSplineSet
EndChar

StartChar: Wacute
Encoding: 7810 7810 183
Width: 962
Flags: W
LayerCount: 2
Fore
SplineSet
477 530 m 1
 475 530 l 1
 401 0 l 1
 171 0 l 1
 16 730 l 1
 218 730 l 1
 292 200 l 1
 294 200 l 1
 358 730 l 1
 598 730 l 1
 662 200 l 1
 664 200 l 1
 738 730 l 1
 936 730 l 1
 781 0 l 1
 551 0 l 1
 477 530 l 1
537 770 m 1
 367 770 l 1
 427 980 l 1
 657 980 l 1
 537 770 l 1
EndSplineSet
EndChar

StartChar: Wcircumflex
Encoding: 372 372 184
Width: 962
Flags: W
LayerCount: 2
Fore
SplineSet
477 530 m 1
 475 530 l 1
 401 0 l 1
 171 0 l 1
 16 730 l 1
 218 730 l 1
 292 200 l 1
 294 200 l 1
 358 730 l 1
 598 730 l 1
 662 200 l 1
 664 200 l 1
 738 730 l 1
 936 730 l 1
 781 0 l 1
 551 0 l 1
 477 530 l 1
331 980 m 1
 631 980 l 1
 751 770 l 1
 541 770 l 1
 482 910 l 1
 480 910 l 1
 421 770 l 1
 211 770 l 1
 331 980 l 1
EndSplineSet
EndChar

StartChar: Wdieresis
Encoding: 7812 7812 185
Width: 962
Flags: W
LayerCount: 2
Fore
SplineSet
477 530 m 1
 475 530 l 1
 401 0 l 1
 171 0 l 1
 16 730 l 1
 218 730 l 1
 292 200 l 1
 294 200 l 1
 358 730 l 1
 598 730 l 1
 662 200 l 1
 664 200 l 1
 738 730 l 1
 936 730 l 1
 781 0 l 1
 551 0 l 1
 477 530 l 1
251 970 m 1
 441 970 l 1
 441 780 l 1
 251 780 l 1
 251 970 l 1
521 970 m 1
 711 970 l 1
 711 780 l 1
 521 780 l 1
 521 970 l 1
EndSplineSet
EndChar

StartChar: Wgrave
Encoding: 7808 7808 186
Width: 962
Flags: W
LayerCount: 2
Fore
SplineSet
477 530 m 1
 475 530 l 1
 401 0 l 1
 171 0 l 1
 16 730 l 1
 218 730 l 1
 292 200 l 1
 294 200 l 1
 358 730 l 1
 598 730 l 1
 662 200 l 1
 664 200 l 1
 738 730 l 1
 936 730 l 1
 781 0 l 1
 551 0 l 1
 477 530 l 1
305 980 m 1
 535 980 l 1
 595 770 l 1
 425 770 l 1
 305 980 l 1
EndSplineSet
EndChar

StartChar: X
Encoding: 88 88 187
Width: 698
Flags: W
LayerCount: 2
Fore
SplineSet
199 365 m 1
 29 730 l 1
 254 730 l 1
 348 475 l 1
 350 475 l 1
 444 730 l 1
 669 730 l 1
 499 365 l 1
 669 0 l 1
 444 0 l 1
 350 255 l 1
 348 255 l 1
 254 0 l 1
 29 0 l 1
 199 365 l 1
EndSplineSet
EndChar

StartChar: Y
Encoding: 89 89 188
Width: 688
Flags: W
LayerCount: 2
Fore
SplineSet
239 270 m 1
 4 730 l 1
 224 730 l 1
 343 440 l 1
 345 440 l 1
 464 730 l 1
 684 730 l 1
 449 270 l 1
 449 0 l 1
 239 0 l 1
 239 270 l 1
EndSplineSet
EndChar

StartChar: Yacute
Encoding: 221 221 189
Width: 688
Flags: W
LayerCount: 2
Fore
SplineSet
239 270 m 1
 4 730 l 1
 224 730 l 1
 343 440 l 1
 345 440 l 1
 464 730 l 1
 684 730 l 1
 449 270 l 1
 449 0 l 1
 239 0 l 1
 239 270 l 1
400 770 m 1
 230 770 l 1
 290 980 l 1
 520 980 l 1
 400 770 l 1
EndSplineSet
EndChar

StartChar: Ycircumflex
Encoding: 374 374 190
Width: 688
Flags: W
LayerCount: 2
Fore
SplineSet
239 270 m 1
 4 730 l 1
 224 730 l 1
 343 440 l 1
 345 440 l 1
 464 730 l 1
 684 730 l 1
 449 270 l 1
 449 0 l 1
 239 0 l 1
 239 270 l 1
194 980 m 1
 494 980 l 1
 614 770 l 1
 404 770 l 1
 345 910 l 1
 343 910 l 1
 284 770 l 1
 74 770 l 1
 194 980 l 1
EndSplineSet
EndChar

StartChar: Ydieresis
Encoding: 376 376 191
Width: 688
Flags: W
LayerCount: 2
Fore
SplineSet
239 270 m 1
 4 730 l 1
 224 730 l 1
 343 440 l 1
 345 440 l 1
 464 730 l 1
 684 730 l 1
 449 270 l 1
 449 0 l 1
 239 0 l 1
 239 270 l 1
114 970 m 1
 304 970 l 1
 304 780 l 1
 114 780 l 1
 114 970 l 1
384 970 m 1
 574 970 l 1
 574 780 l 1
 384 780 l 1
 384 970 l 1
EndSplineSet
EndChar

StartChar: uni1EF4
Encoding: 7924 7924 192
Width: 688
Flags: W
LayerCount: 2
Fore
SplineSet
239 270 m 1
 4 730 l 1
 224 730 l 1
 343 440 l 1
 345 440 l 1
 464 730 l 1
 684 730 l 1
 449 270 l 1
 449 0 l 1
 239 0 l 1
 239 270 l 1
249 -50 m 1
 439 -50 l 1
 439 -240 l 1
 249 -240 l 1
 249 -50 l 1
EndSplineSet
EndChar

StartChar: Ygrave
Encoding: 7922 7922 193
Width: 688
Flags: W
LayerCount: 2
Fore
SplineSet
239 270 m 1
 4 730 l 1
 224 730 l 1
 343 440 l 1
 345 440 l 1
 464 730 l 1
 684 730 l 1
 449 270 l 1
 449 0 l 1
 239 0 l 1
 239 270 l 1
168 980 m 1
 398 980 l 1
 458 770 l 1
 288 770 l 1
 168 980 l 1
EndSplineSet
EndChar

StartChar: uni1EF6
Encoding: 7926 7926 194
Width: 688
Flags: W
LayerCount: 2
Fore
SplineSet
239 270 m 1
 4 730 l 1
 224 730 l 1
 343 440 l 1
 345 440 l 1
 464 730 l 1
 684 730 l 1
 449 270 l 1
 449 0 l 1
 239 0 l 1
 239 270 l 1
364 830 m 0
 364 842 361 850 355 854 c 0
 349 858 337 860 319 860 c 0
 296 860 271 858 244 854 c 0
 216 849 189 843 164 835 c 1
 149 970 l 1
 177 976 209 981 244 984 c 0
 280 988 313 990 344 990 c 0
 396 990 436 987 464 982 c 0
 491 976 511 966 522 953 c 0
 533 940 539 920 539 895 c 0
 539 876 537 855 532 832 c 0
 527 809 521 788 514 770 c 1
 354 770 l 1
 361 795 364 815 364 830 c 0
EndSplineSet
EndChar

StartChar: uni0232
Encoding: 562 562 195
Width: 688
Flags: W
LayerCount: 2
Fore
SplineSet
239 270 m 1
 4 730 l 1
 224 730 l 1
 343 440 l 1
 345 440 l 1
 464 730 l 1
 684 730 l 1
 449 270 l 1
 449 0 l 1
 239 0 l 1
 239 270 l 1
134 945 m 1
 554 945 l 1
 554 805 l 1
 134 805 l 1
 134 945 l 1
EndSplineSet
EndChar

StartChar: uni1EF8
Encoding: 7928 7928 196
Width: 688
Flags: W
LayerCount: 2
Fore
SplineSet
239 270 m 1
 4 730 l 1
 224 730 l 1
 343 440 l 1
 345 440 l 1
 464 730 l 1
 684 730 l 1
 449 270 l 1
 449 0 l 1
 239 0 l 1
 239 270 l 1
321 812 m 0
 296 827 277 835 264 835 c 0
 255 835 250 831 246 822 c 0
 244 814 242 797 242 770 c 1
 94 770 l 1
 94 845 104 900 124 936 c 0
 145 972 176 990 219 990 c 0
 262 990 311 973 367 938 c 0
 392 923 411 915 424 915 c 0
 433 915 438 919 442 928 c 0
 444 936 446 953 446 980 c 1
 594 980 l 1
 594 905 584 850 564 814 c 0
 543 778 512 760 469 760 c 0
 426 760 377 777 321 812 c 0
EndSplineSet
EndChar

StartChar: Z
Encoding: 90 90 197
Width: 644
Flags: W
LayerCount: 2
Fore
SplineSet
52 165 m 1
 357 563 l 1
 357 565 l 1
 52 565 l 1
 52 730 l 1
 592 730 l 1
 592 565 l 1
 287 167 l 1
 287 165 l 1
 592 165 l 1
 592 0 l 1
 52 0 l 1
 52 165 l 1
EndSplineSet
EndChar

StartChar: Zacute
Encoding: 377 377 198
Width: 644
Flags: W
LayerCount: 2
Fore
SplineSet
52 165 m 1
 357 563 l 1
 357 565 l 1
 52 565 l 1
 52 730 l 1
 592 730 l 1
 592 565 l 1
 287 167 l 1
 287 165 l 1
 592 165 l 1
 592 0 l 1
 52 0 l 1
 52 165 l 1
378 770 m 1
 208 770 l 1
 268 980 l 1
 498 980 l 1
 378 770 l 1
EndSplineSet
EndChar

StartChar: Zcaron
Encoding: 381 381 199
Width: 644
Flags: W
LayerCount: 2
Fore
SplineSet
52 165 m 1
 357 563 l 1
 357 565 l 1
 52 565 l 1
 52 730 l 1
 592 730 l 1
 592 565 l 1
 287 167 l 1
 287 165 l 1
 592 165 l 1
 592 0 l 1
 52 0 l 1
 52 165 l 1
52 980 m 1
 262 980 l 1
 321 840 l 1
 323 840 l 1
 382 980 l 1
 592 980 l 1
 472 770 l 1
 172 770 l 1
 52 980 l 1
EndSplineSet
EndChar

StartChar: Zdotaccent
Encoding: 379 379 200
Width: 644
Flags: W
LayerCount: 2
Fore
SplineSet
52 165 m 1
 357 563 l 1
 357 565 l 1
 52 565 l 1
 52 730 l 1
 592 730 l 1
 592 565 l 1
 287 167 l 1
 287 165 l 1
 592 165 l 1
 592 0 l 1
 52 0 l 1
 52 165 l 1
227 970 m 1
 417 970 l 1
 417 780 l 1
 227 780 l 1
 227 970 l 1
EndSplineSet
EndChar

StartChar: a
Encoding: 97 97 201
Width: 582
Flags: W
LayerCount: 2
Fore
SplineSet
473 481 m 0
 510 448 529 395 529 320 c 2
 529 0 l 1
 343 0 l 1
 341 60 l 1
 339 60 l 1
 300 13 250 -10 189 -10 c 0
 140 -10 101 5 70 34 c 0
 39 64 24 103 24 150 c 0
 24 207 49 252 98 283 c 0
 147 314 218 330 309 330 c 2
 333 330 l 1
 333 355 329 371 322 378 c 0
 314 386 298 390 273 390 c 0
 243 390 211 386 178 378 c 0
 145 371 112 360 80 346 c 1
 40 481 l 1
 76 497 116 509 158 518 c 0
 202 526 245 530 289 530 c 0
 374 530 436 514 473 481 c 0
312 144 m 0
 326 157 333 174 333 195 c 2
 333 225 l 1
 309 225 l 2
 271 225 243 221 226 212 c 0
 209 203 200 189 200 170 c 0
 200 155 205 144 214 136 c 0
 223 129 237 125 255 125 c 0
 278 125 297 131 312 144 c 0
EndSplineSet
EndChar

StartChar: aacute
Encoding: 225 225 202
Width: 582
Flags: W
LayerCount: 2
Fore
SplineSet
473 481 m 0
 510 448 529 395 529 320 c 2
 529 0 l 1
 343 0 l 1
 341 60 l 1
 339 60 l 1
 300 13 250 -10 189 -10 c 0
 140 -10 101 5 70 34 c 0
 39 64 24 103 24 150 c 0
 24 207 49 252 98 283 c 0
 147 314 218 330 309 330 c 2
 333 330 l 1
 333 355 329 371 322 378 c 0
 314 386 298 390 273 390 c 0
 243 390 211 386 178 378 c 0
 145 371 112 360 80 346 c 1
 40 481 l 1
 76 497 116 509 158 518 c 0
 202 526 245 530 289 530 c 0
 374 530 436 514 473 481 c 0
312 144 m 0
 326 157 333 174 333 195 c 2
 333 225 l 1
 309 225 l 2
 271 225 243 221 226 212 c 0
 209 203 200 189 200 170 c 0
 200 155 205 144 214 136 c 0
 223 129 237 125 255 125 c 0
 278 125 297 131 312 144 c 0
336 560 m 1
 166 560 l 1
 226 770 l 1
 456 770 l 1
 336 560 l 1
EndSplineSet
EndChar

StartChar: abreve
Encoding: 259 259 203
Width: 582
Flags: W
LayerCount: 2
Fore
SplineSet
473 481 m 0
 510 448 529 395 529 320 c 2
 529 0 l 1
 343 0 l 1
 341 60 l 1
 339 60 l 1
 300 13 250 -10 189 -10 c 0
 140 -10 101 5 70 34 c 0
 39 64 24 103 24 150 c 0
 24 207 49 252 98 283 c 0
 147 314 218 330 309 330 c 2
 333 330 l 1
 333 355 329 371 322 378 c 0
 314 386 298 390 273 390 c 0
 243 390 211 386 178 378 c 0
 145 371 112 360 80 346 c 1
 40 481 l 1
 76 497 116 509 158 518 c 0
 202 526 245 530 289 530 c 0
 374 530 436 514 473 481 c 0
312 144 m 0
 326 157 333 174 333 195 c 2
 333 225 l 1
 309 225 l 2
 271 225 243 221 226 212 c 0
 209 203 200 189 200 170 c 0
 200 155 205 144 214 136 c 0
 223 129 237 125 255 125 c 0
 278 125 297 131 312 144 c 0
151 578 m 0
 113 598 83 624 62 657 c 0
 41 690 30 728 30 770 c 1
 200 770 l 1
 203 739 212 717 224 702 c 0
 238 687 256 680 280 680 c 0
 303 680 322 687 334 702 c 0
 348 717 356 739 360 770 c 1
 530 770 l 1
 530 728 519 690 498 657 c 0
 477 624 447 598 409 578 c 0
 371 560 328 550 280 550 c 0
 232 550 189 560 151 578 c 0
EndSplineSet
EndChar

StartChar: uni1EAF
Encoding: 7855 7855 204
Width: 582
Flags: W
LayerCount: 2
Fore
SplineSet
151 578 m 0
 113 598 83 624 62 657 c 0
 41 690 30 728 30 770 c 1
 169 770 l 1
 226 970 l 1
 456 970 l 1
 336 760 l 1
 201 760 l 1
 206 733 214 712 227 700 c 0
 240 686 257 680 280 680 c 0
 303 680 322 687 334 702 c 0
 348 717 356 739 360 770 c 1
 530 770 l 1
 530 728 519 690 498 657 c 0
 477 624 447 598 409 578 c 0
 371 560 328 550 280 550 c 0
 232 550 189 560 151 578 c 0
473 481 m 0
 510 448 529 395 529 320 c 2
 529 0 l 1
 343 0 l 1
 341 60 l 1
 339 60 l 1
 300 13 250 -10 189 -10 c 0
 140 -10 101 5 70 34 c 0
 39 64 24 103 24 150 c 0
 24 207 49 252 98 283 c 0
 147 314 218 330 309 330 c 2
 333 330 l 1
 333 355 329 371 322 378 c 0
 314 386 298 390 273 390 c 0
 243 390 211 386 178 378 c 0
 145 371 112 360 80 346 c 1
 40 481 l 1
 76 497 116 509 158 518 c 0
 202 526 245 530 289 530 c 0
 374 530 436 514 473 481 c 0
312 144 m 0
 326 157 333 174 333 195 c 2
 333 225 l 1
 309 225 l 2
 271 225 243 221 226 212 c 0
 209 203 200 189 200 170 c 0
 200 155 205 144 214 136 c 0
 223 129 237 125 255 125 c 0
 278 125 297 131 312 144 c 0
EndSplineSet
EndChar

StartChar: uni1EB7
Encoding: 7863 7863 205
Width: 582
Flags: W
LayerCount: 2
Fore
SplineSet
473 481 m 0
 510 448 529 395 529 320 c 2
 529 0 l 1
 343 0 l 1
 341 60 l 1
 339 60 l 1
 300 13 250 -10 189 -10 c 0
 140 -10 101 5 70 34 c 0
 39 64 24 103 24 150 c 0
 24 207 49 252 98 283 c 0
 147 314 218 330 309 330 c 2
 333 330 l 1
 333 355 329 371 322 378 c 0
 314 386 298 390 273 390 c 0
 243 390 211 386 178 378 c 0
 145 371 112 360 80 346 c 1
 40 481 l 1
 76 497 116 509 158 518 c 0
 202 526 245 530 289 530 c 0
 374 530 436 514 473 481 c 0
312 144 m 0
 326 157 333 174 333 195 c 2
 333 225 l 1
 309 225 l 2
 271 225 243 221 226 212 c 0
 209 203 200 189 200 170 c 0
 200 155 205 144 214 136 c 0
 223 129 237 125 255 125 c 0
 278 125 297 131 312 144 c 0
185 -50 m 1
 375 -50 l 1
 375 -240 l 1
 185 -240 l 1
 185 -50 l 1
151 578 m 0
 113 598 83 624 62 657 c 0
 41 690 30 728 30 770 c 1
 200 770 l 1
 203 739 212 717 224 702 c 0
 238 687 256 680 280 680 c 0
 303 680 322 687 334 702 c 0
 348 717 356 739 360 770 c 1
 530 770 l 1
 530 728 519 690 498 657 c 0
 477 624 447 598 409 578 c 0
 371 560 328 550 280 550 c 0
 232 550 189 560 151 578 c 0
EndSplineSet
EndChar

StartChar: uni1EB1
Encoding: 7857 7857 206
Width: 582
Flags: W
LayerCount: 2
Fore
SplineSet
332 700 m 0
 346 712 354 733 359 760 c 1
 224 760 l 1
 104 970 l 1
 334 970 l 1
 391 770 l 1
 530 770 l 1
 530 728 519 690 498 657 c 0
 477 624 447 598 409 578 c 0
 371 560 328 550 280 550 c 0
 232 550 189 560 151 578 c 0
 113 598 83 624 62 657 c 0
 41 690 30 728 30 770 c 1
 200 770 l 1
 203 739 212 717 224 702 c 0
 238 687 256 680 280 680 c 0
 302 680 320 686 332 700 c 0
473 481 m 0
 510 448 529 395 529 320 c 2
 529 0 l 1
 343 0 l 1
 341 60 l 1
 339 60 l 1
 300 13 250 -10 189 -10 c 0
 140 -10 101 5 70 34 c 0
 39 64 24 103 24 150 c 0
 24 207 49 252 98 283 c 0
 147 314 218 330 309 330 c 2
 333 330 l 1
 333 355 329 371 322 378 c 0
 314 386 298 390 273 390 c 0
 243 390 211 386 178 378 c 0
 145 371 112 360 80 346 c 1
 40 481 l 1
 76 497 116 509 158 518 c 0
 202 526 245 530 289 530 c 0
 374 530 436 514 473 481 c 0
312 144 m 0
 326 157 333 174 333 195 c 2
 333 225 l 1
 309 225 l 2
 271 225 243 221 226 212 c 0
 209 203 200 189 200 170 c 0
 200 155 205 144 214 136 c 0
 223 129 237 125 255 125 c 0
 278 125 297 131 312 144 c 0
EndSplineSet
EndChar

StartChar: uni1EB3
Encoding: 7859 7859 207
Width: 582
Flags: W
LayerCount: 2
Fore
SplineSet
332 700 m 0
 346 712 354 733 359 760 c 1
 290 760 l 1
 297 785 300 805 300 820 c 0
 300 832 297 840 291 844 c 0
 285 848 273 850 255 850 c 0
 232 850 207 848 180 844 c 0
 152 839 125 833 100 825 c 1
 85 960 l 1
 113 966 145 971 180 974 c 0
 216 978 249 980 280 980 c 0
 332 980 372 977 400 972 c 0
 427 966 447 956 458 943 c 0
 469 930 475 910 475 885 c 0
 475 868 473 848 470 828 c 0
 466 806 461 787 454 770 c 1
 530 770 l 1
 530 728 519 690 498 657 c 0
 477 624 447 598 409 578 c 0
 371 560 328 550 280 550 c 0
 232 550 189 560 151 578 c 0
 113 598 83 624 62 657 c 0
 41 690 30 728 30 770 c 1
 200 770 l 1
 203 739 212 717 224 702 c 0
 238 687 256 680 280 680 c 0
 302 680 320 686 332 700 c 0
473 481 m 0
 510 448 529 395 529 320 c 2
 529 0 l 1
 343 0 l 1
 341 60 l 1
 339 60 l 1
 300 13 250 -10 189 -10 c 0
 140 -10 101 5 70 34 c 0
 39 64 24 103 24 150 c 0
 24 207 49 252 98 283 c 0
 147 314 218 330 309 330 c 2
 333 330 l 1
 333 355 329 371 322 378 c 0
 314 386 298 390 273 390 c 0
 243 390 211 386 178 378 c 0
 145 371 112 360 80 346 c 1
 40 481 l 1
 76 497 116 509 158 518 c 0
 202 526 245 530 289 530 c 0
 374 530 436 514 473 481 c 0
312 144 m 0
 326 157 333 174 333 195 c 2
 333 225 l 1
 309 225 l 2
 271 225 243 221 226 212 c 0
 209 203 200 189 200 170 c 0
 200 155 205 144 214 136 c 0
 223 129 237 125 255 125 c 0
 278 125 297 131 312 144 c 0
EndSplineSet
EndChar

StartChar: uni1EB5
Encoding: 7861 7861 208
Width: 582
Flags: W
LayerCount: 2
Fore
SplineSet
473 481 m 0
 510 448 529 395 529 320 c 2
 529 0 l 1
 343 0 l 1
 341 60 l 1
 339 60 l 1
 300 13 250 -10 189 -10 c 0
 140 -10 101 5 70 34 c 0
 39 64 24 103 24 150 c 0
 24 207 49 252 98 283 c 0
 147 314 218 330 309 330 c 2
 333 330 l 1
 333 355 329 371 322 378 c 0
 314 386 298 390 273 390 c 0
 243 390 211 386 178 378 c 0
 145 371 112 360 80 346 c 1
 40 481 l 1
 76 497 116 509 158 518 c 0
 202 526 245 530 289 530 c 0
 374 530 436 514 473 481 c 0
312 144 m 0
 326 157 333 174 333 195 c 2
 333 225 l 1
 309 225 l 2
 271 225 243 221 226 212 c 0
 209 203 200 189 200 170 c 0
 200 155 205 144 214 136 c 0
 223 129 237 125 255 125 c 0
 278 125 297 131 312 144 c 0
151 578 m 0
 113 598 83 624 62 657 c 0
 41 690 30 728 30 770 c 1
 200 770 l 1
 203 739 212 717 224 702 c 0
 238 687 256 680 280 680 c 0
 303 680 322 687 334 702 c 0
 348 717 356 739 360 770 c 1
 530 770 l 1
 530 728 519 690 498 657 c 0
 477 624 447 598 409 578 c 0
 371 560 328 550 280 550 c 0
 232 550 189 560 151 578 c 0
257 852 m 0
 232 867 213 875 200 875 c 0
 191 875 186 871 182 862 c 0
 180 854 178 837 178 810 c 1
 30 810 l 1
 30 885 40 940 60 976 c 0
 81 1012 112 1030 155 1030 c 0
 198 1030 247 1013 303 978 c 0
 328 963 347 955 360 955 c 0
 369 955 374 959 378 968 c 0
 380 976 382 993 382 1020 c 1
 530 1020 l 1
 530 945 520 890 500 854 c 0
 479 818 448 800 405 800 c 0
 362 800 313 817 257 852 c 0
EndSplineSet
EndChar

StartChar: acircumflex
Encoding: 226 226 209
Width: 582
Flags: W
LayerCount: 2
Fore
SplineSet
473 481 m 0
 510 448 529 395 529 320 c 2
 529 0 l 1
 343 0 l 1
 341 60 l 1
 339 60 l 1
 300 13 250 -10 189 -10 c 0
 140 -10 101 5 70 34 c 0
 39 64 24 103 24 150 c 0
 24 207 49 252 98 283 c 0
 147 314 218 330 309 330 c 2
 333 330 l 1
 333 355 329 371 322 378 c 0
 314 386 298 390 273 390 c 0
 243 390 211 386 178 378 c 0
 145 371 112 360 80 346 c 1
 40 481 l 1
 76 497 116 509 158 518 c 0
 202 526 245 530 289 530 c 0
 374 530 436 514 473 481 c 0
312 144 m 0
 326 157 333 174 333 195 c 2
 333 225 l 1
 309 225 l 2
 271 225 243 221 226 212 c 0
 209 203 200 189 200 170 c 0
 200 155 205 144 214 136 c 0
 223 129 237 125 255 125 c 0
 278 125 297 131 312 144 c 0
130 770 m 1
 430 770 l 1
 550 560 l 1
 340 560 l 1
 281 700 l 1
 279 700 l 1
 220 560 l 1
 10 560 l 1
 130 770 l 1
EndSplineSet
EndChar

StartChar: uni1EA5
Encoding: 7845 7845 210
Width: 582
Flags: W
LayerCount: 2
Fore
SplineSet
690 950 m 1
 570 740 l 1
 447 740 l 1
 550 560 l 1
 340 560 l 1
 281 700 l 1
 279 700 l 1
 220 560 l 1
 10 560 l 1
 130 770 l 1
 409 770 l 1
 460 950 l 1
 690 950 l 1
473 481 m 0
 510 448 529 395 529 320 c 2
 529 0 l 1
 343 0 l 1
 341 60 l 1
 339 60 l 1
 300 13 250 -10 189 -10 c 0
 140 -10 101 5 70 34 c 0
 39 64 24 103 24 150 c 0
 24 207 49 252 98 283 c 0
 147 314 218 330 309 330 c 2
 333 330 l 1
 333 355 329 371 322 378 c 0
 314 386 298 390 273 390 c 0
 243 390 211 386 178 378 c 0
 145 371 112 360 80 346 c 1
 40 481 l 1
 76 497 116 509 158 518 c 0
 202 526 245 530 289 530 c 0
 374 530 436 514 473 481 c 0
312 144 m 0
 326 157 333 174 333 195 c 2
 333 225 l 1
 309 225 l 2
 271 225 243 221 226 212 c 0
 209 203 200 189 200 170 c 0
 200 155 205 144 214 136 c 0
 223 129 237 125 255 125 c 0
 278 125 297 131 312 144 c 0
EndSplineSet
EndChar

StartChar: uni1EAD
Encoding: 7853 7853 211
Width: 582
Flags: W
LayerCount: 2
Fore
SplineSet
473 481 m 0
 510 448 529 395 529 320 c 2
 529 0 l 1
 343 0 l 1
 341 60 l 1
 339 60 l 1
 300 13 250 -10 189 -10 c 0
 140 -10 101 5 70 34 c 0
 39 64 24 103 24 150 c 0
 24 207 49 252 98 283 c 0
 147 314 218 330 309 330 c 2
 333 330 l 1
 333 355 329 371 322 378 c 0
 314 386 298 390 273 390 c 0
 243 390 211 386 178 378 c 0
 145 371 112 360 80 346 c 1
 40 481 l 1
 76 497 116 509 158 518 c 0
 202 526 245 530 289 530 c 0
 374 530 436 514 473 481 c 0
312 144 m 0
 326 157 333 174 333 195 c 2
 333 225 l 1
 309 225 l 2
 271 225 243 221 226 212 c 0
 209 203 200 189 200 170 c 0
 200 155 205 144 214 136 c 0
 223 129 237 125 255 125 c 0
 278 125 297 131 312 144 c 0
185 -50 m 1
 375 -50 l 1
 375 -240 l 1
 185 -240 l 1
 185 -50 l 1
130 770 m 1
 430 770 l 1
 550 560 l 1
 340 560 l 1
 281 700 l 1
 279 700 l 1
 220 560 l 1
 10 560 l 1
 130 770 l 1
EndSplineSet
EndChar

StartChar: uni1EA7
Encoding: 7847 7847 212
Width: 582
Flags: W
LayerCount: 2
Fore
SplineSet
220 560 m 1
 10 560 l 1
 113 740 l 1
 -10 740 l 1
 -130 950 l 1
 100 950 l 1
 151 770 l 1
 430 770 l 1
 550 560 l 1
 340 560 l 1
 281 700 l 1
 279 700 l 1
 220 560 l 1
473 481 m 0
 510 448 529 395 529 320 c 2
 529 0 l 1
 343 0 l 1
 341 60 l 1
 339 60 l 1
 300 13 250 -10 189 -10 c 0
 140 -10 101 5 70 34 c 0
 39 64 24 103 24 150 c 0
 24 207 49 252 98 283 c 0
 147 314 218 330 309 330 c 2
 333 330 l 1
 333 355 329 371 322 378 c 0
 314 386 298 390 273 390 c 0
 243 390 211 386 178 378 c 0
 145 371 112 360 80 346 c 1
 40 481 l 1
 76 497 116 509 158 518 c 0
 202 526 245 530 289 530 c 0
 374 530 436 514 473 481 c 0
312 144 m 0
 326 157 333 174 333 195 c 2
 333 225 l 1
 309 225 l 2
 271 225 243 221 226 212 c 0
 209 203 200 189 200 170 c 0
 200 155 205 144 214 136 c 0
 223 129 237 125 255 125 c 0
 278 125 297 131 312 144 c 0
EndSplineSet
EndChar

StartChar: uni1EA9
Encoding: 7849 7849 213
Width: 582
Flags: W
LayerCount: 2
Fore
SplineSet
582 802 m 0
 577 779 571 758 564 740 c 1
 447 740 l 1
 550 560 l 1
 340 560 l 1
 281 700 l 1
 279 700 l 1
 220 560 l 1
 10 560 l 1
 130 770 l 1
 411 770 l 1
 413 781 414 791 414 800 c 0
 414 812 411 820 405 824 c 0
 399 828 387 830 369 830 c 0
 346 830 321 828 294 824 c 0
 266 819 239 813 214 805 c 1
 199 940 l 1
 227 946 259 951 294 954 c 0
 330 958 363 960 394 960 c 0
 446 960 486 957 514 952 c 0
 541 946 561 936 572 923 c 0
 583 910 589 890 589 865 c 0
 589 846 587 825 582 802 c 0
473 481 m 0
 510 448 529 395 529 320 c 2
 529 0 l 1
 343 0 l 1
 341 60 l 1
 339 60 l 1
 300 13 250 -10 189 -10 c 0
 140 -10 101 5 70 34 c 0
 39 64 24 103 24 150 c 0
 24 207 49 252 98 283 c 0
 147 314 218 330 309 330 c 2
 333 330 l 1
 333 355 329 371 322 378 c 0
 314 386 298 390 273 390 c 0
 243 390 211 386 178 378 c 0
 145 371 112 360 80 346 c 1
 40 481 l 1
 76 497 116 509 158 518 c 0
 202 526 245 530 289 530 c 0
 374 530 436 514 473 481 c 0
312 144 m 0
 326 157 333 174 333 195 c 2
 333 225 l 1
 309 225 l 2
 271 225 243 221 226 212 c 0
 209 203 200 189 200 170 c 0
 200 155 205 144 214 136 c 0
 223 129 237 125 255 125 c 0
 278 125 297 131 312 144 c 0
EndSplineSet
EndChar

StartChar: uni1EAB
Encoding: 7851 7851 214
Width: 582
Flags: W
LayerCount: 2
Fore
SplineSet
473 481 m 0
 510 448 529 395 529 320 c 2
 529 0 l 1
 343 0 l 1
 341 60 l 1
 339 60 l 1
 300 13 250 -10 189 -10 c 0
 140 -10 101 5 70 34 c 0
 39 64 24 103 24 150 c 0
 24 207 49 252 98 283 c 0
 147 314 218 330 309 330 c 2
 333 330 l 1
 333 355 329 371 322 378 c 0
 314 386 298 390 273 390 c 0
 243 390 211 386 178 378 c 0
 145 371 112 360 80 346 c 1
 40 481 l 1
 76 497 116 509 158 518 c 0
 202 526 245 530 289 530 c 0
 374 530 436 514 473 481 c 0
312 144 m 0
 326 157 333 174 333 195 c 2
 333 225 l 1
 309 225 l 2
 271 225 243 221 226 212 c 0
 209 203 200 189 200 170 c 0
 200 155 205 144 214 136 c 0
 223 129 237 125 255 125 c 0
 278 125 297 131 312 144 c 0
130 770 m 1
 430 770 l 1
 550 560 l 1
 340 560 l 1
 281 700 l 1
 279 700 l 1
 220 560 l 1
 10 560 l 1
 130 770 l 1
257 852 m 0
 232 867 213 875 200 875 c 0
 191 875 186 871 182 862 c 0
 180 854 178 837 178 810 c 1
 30 810 l 1
 30 885 40 940 60 976 c 0
 81 1012 112 1030 155 1030 c 0
 198 1030 247 1013 303 978 c 0
 328 963 347 955 360 955 c 0
 369 955 374 959 378 968 c 0
 380 976 382 993 382 1020 c 1
 530 1020 l 1
 530 945 520 890 500 854 c 0
 479 818 448 800 405 800 c 0
 362 800 313 817 257 852 c 0
EndSplineSet
EndChar

StartChar: uni0201
Encoding: 513 513 215
Width: 582
Flags: W
LayerCount: 2
Fore
SplineSet
473 481 m 0
 510 448 529 395 529 320 c 2
 529 0 l 1
 343 0 l 1
 341 60 l 1
 339 60 l 1
 300 13 250 -10 189 -10 c 0
 140 -10 101 5 70 34 c 0
 39 64 24 103 24 150 c 0
 24 207 49 252 98 283 c 0
 147 314 218 330 309 330 c 2
 333 330 l 1
 333 355 329 371 322 378 c 0
 314 386 298 390 273 390 c 0
 243 390 211 386 178 378 c 0
 145 371 112 360 80 346 c 1
 40 481 l 1
 76 497 116 509 158 518 c 0
 202 526 245 530 289 530 c 0
 374 530 436 514 473 481 c 0
312 144 m 0
 326 157 333 174 333 195 c 2
 333 225 l 1
 309 225 l 2
 271 225 243 221 226 212 c 0
 209 203 200 189 200 170 c 0
 200 155 205 144 214 136 c 0
 223 129 237 125 255 125 c 0
 278 125 297 131 312 144 c 0
-34 770 m 1
 196 770 l 1
 256 560 l 1
 86 560 l 1
 -34 770 l 1
236 770 m 1
 466 770 l 1
 526 560 l 1
 356 560 l 1
 236 770 l 1
EndSplineSet
EndChar

StartChar: adieresis
Encoding: 228 228 216
Width: 582
Flags: W
LayerCount: 2
Fore
SplineSet
473 481 m 0
 510 448 529 395 529 320 c 2
 529 0 l 1
 343 0 l 1
 341 60 l 1
 339 60 l 1
 300 13 250 -10 189 -10 c 0
 140 -10 101 5 70 34 c 0
 39 64 24 103 24 150 c 0
 24 207 49 252 98 283 c 0
 147 314 218 330 309 330 c 2
 333 330 l 1
 333 355 329 371 322 378 c 0
 314 386 298 390 273 390 c 0
 243 390 211 386 178 378 c 0
 145 371 112 360 80 346 c 1
 40 481 l 1
 76 497 116 509 158 518 c 0
 202 526 245 530 289 530 c 0
 374 530 436 514 473 481 c 0
312 144 m 0
 326 157 333 174 333 195 c 2
 333 225 l 1
 309 225 l 2
 271 225 243 221 226 212 c 0
 209 203 200 189 200 170 c 0
 200 155 205 144 214 136 c 0
 223 129 237 125 255 125 c 0
 278 125 297 131 312 144 c 0
50 760 m 1
 240 760 l 1
 240 570 l 1
 50 570 l 1
 50 760 l 1
320 760 m 1
 510 760 l 1
 510 570 l 1
 320 570 l 1
 320 760 l 1
EndSplineSet
EndChar

StartChar: uni1EA1
Encoding: 7841 7841 217
Width: 582
Flags: W
LayerCount: 2
Fore
SplineSet
473 481 m 0
 510 448 529 395 529 320 c 2
 529 0 l 1
 343 0 l 1
 341 60 l 1
 339 60 l 1
 300 13 250 -10 189 -10 c 0
 140 -10 101 5 70 34 c 0
 39 64 24 103 24 150 c 0
 24 207 49 252 98 283 c 0
 147 314 218 330 309 330 c 2
 333 330 l 1
 333 355 329 371 322 378 c 0
 314 386 298 390 273 390 c 0
 243 390 211 386 178 378 c 0
 145 371 112 360 80 346 c 1
 40 481 l 1
 76 497 116 509 158 518 c 0
 202 526 245 530 289 530 c 0
 374 530 436 514 473 481 c 0
312 144 m 0
 326 157 333 174 333 195 c 2
 333 225 l 1
 309 225 l 2
 271 225 243 221 226 212 c 0
 209 203 200 189 200 170 c 0
 200 155 205 144 214 136 c 0
 223 129 237 125 255 125 c 0
 278 125 297 131 312 144 c 0
185 -50 m 1
 375 -50 l 1
 375 -240 l 1
 185 -240 l 1
 185 -50 l 1
EndSplineSet
EndChar

StartChar: agrave
Encoding: 224 224 218
Width: 582
Flags: W
LayerCount: 2
Fore
SplineSet
473 481 m 0
 510 448 529 395 529 320 c 2
 529 0 l 1
 343 0 l 1
 341 60 l 1
 339 60 l 1
 300 13 250 -10 189 -10 c 0
 140 -10 101 5 70 34 c 0
 39 64 24 103 24 150 c 0
 24 207 49 252 98 283 c 0
 147 314 218 330 309 330 c 2
 333 330 l 1
 333 355 329 371 322 378 c 0
 314 386 298 390 273 390 c 0
 243 390 211 386 178 378 c 0
 145 371 112 360 80 346 c 1
 40 481 l 1
 76 497 116 509 158 518 c 0
 202 526 245 530 289 530 c 0
 374 530 436 514 473 481 c 0
312 144 m 0
 326 157 333 174 333 195 c 2
 333 225 l 1
 309 225 l 2
 271 225 243 221 226 212 c 0
 209 203 200 189 200 170 c 0
 200 155 205 144 214 136 c 0
 223 129 237 125 255 125 c 0
 278 125 297 131 312 144 c 0
104 770 m 1
 334 770 l 1
 394 560 l 1
 224 560 l 1
 104 770 l 1
EndSplineSet
EndChar

StartChar: uni1EA3
Encoding: 7843 7843 219
Width: 582
Flags: W
LayerCount: 2
Fore
SplineSet
473 481 m 0
 510 448 529 395 529 320 c 2
 529 0 l 1
 343 0 l 1
 341 60 l 1
 339 60 l 1
 300 13 250 -10 189 -10 c 0
 140 -10 101 5 70 34 c 0
 39 64 24 103 24 150 c 0
 24 207 49 252 98 283 c 0
 147 314 218 330 309 330 c 2
 333 330 l 1
 333 355 329 371 322 378 c 0
 314 386 298 390 273 390 c 0
 243 390 211 386 178 378 c 0
 145 371 112 360 80 346 c 1
 40 481 l 1
 76 497 116 509 158 518 c 0
 202 526 245 530 289 530 c 0
 374 530 436 514 473 481 c 0
312 144 m 0
 326 157 333 174 333 195 c 2
 333 225 l 1
 309 225 l 2
 271 225 243 221 226 212 c 0
 209 203 200 189 200 170 c 0
 200 155 205 144 214 136 c 0
 223 129 237 125 255 125 c 0
 278 125 297 131 312 144 c 0
300 620 m 0
 300 632 297 640 291 644 c 0
 285 648 273 650 255 650 c 0
 232 650 207 648 180 644 c 0
 152 639 125 633 100 625 c 1
 85 760 l 1
 113 766 145 771 180 774 c 0
 216 778 249 780 280 780 c 0
 332 780 372 777 400 772 c 0
 427 766 447 756 458 743 c 0
 469 730 475 710 475 685 c 0
 475 666 473 645 468 622 c 0
 463 599 457 578 450 560 c 1
 290 560 l 1
 297 585 300 605 300 620 c 0
EndSplineSet
EndChar

StartChar: uni0203
Encoding: 515 515 220
Width: 582
Flags: W
LayerCount: 2
Fore
SplineSet
473 481 m 0
 510 448 529 395 529 320 c 2
 529 0 l 1
 343 0 l 1
 341 60 l 1
 339 60 l 1
 300 13 250 -10 189 -10 c 0
 140 -10 101 5 70 34 c 0
 39 64 24 103 24 150 c 0
 24 207 49 252 98 283 c 0
 147 314 218 330 309 330 c 2
 333 330 l 1
 333 355 329 371 322 378 c 0
 314 386 298 390 273 390 c 0
 243 390 211 386 178 378 c 0
 145 371 112 360 80 346 c 1
 40 481 l 1
 76 497 116 509 158 518 c 0
 202 526 245 530 289 530 c 0
 374 530 436 514 473 481 c 0
312 144 m 0
 326 157 333 174 333 195 c 2
 333 225 l 1
 309 225 l 2
 271 225 243 221 226 212 c 0
 209 203 200 189 200 170 c 0
 200 155 205 144 214 136 c 0
 223 129 237 125 255 125 c 0
 278 125 297 131 312 144 c 0
409 752 m 0
 447 732 477 706 498 673 c 0
 519 640 530 602 530 560 c 1
 360 560 l 1
 356 591 348 613 334 628 c 0
 322 643 303 650 280 650 c 0
 256 650 238 643 224 628 c 0
 212 613 203 591 200 560 c 1
 30 560 l 1
 30 602 41 640 62 673 c 0
 83 706 113 732 151 752 c 0
 189 770 232 780 280 780 c 0
 328 780 371 770 409 752 c 0
EndSplineSet
EndChar

StartChar: amacron
Encoding: 257 257 221
Width: 582
Flags: W
LayerCount: 2
Fore
SplineSet
473 481 m 0
 510 448 529 395 529 320 c 2
 529 0 l 1
 343 0 l 1
 341 60 l 1
 339 60 l 1
 300 13 250 -10 189 -10 c 0
 140 -10 101 5 70 34 c 0
 39 64 24 103 24 150 c 0
 24 207 49 252 98 283 c 0
 147 314 218 330 309 330 c 2
 333 330 l 1
 333 355 329 371 322 378 c 0
 314 386 298 390 273 390 c 0
 243 390 211 386 178 378 c 0
 145 371 112 360 80 346 c 1
 40 481 l 1
 76 497 116 509 158 518 c 0
 202 526 245 530 289 530 c 0
 374 530 436 514 473 481 c 0
312 144 m 0
 326 157 333 174 333 195 c 2
 333 225 l 1
 309 225 l 2
 271 225 243 221 226 212 c 0
 209 203 200 189 200 170 c 0
 200 155 205 144 214 136 c 0
 223 129 237 125 255 125 c 0
 278 125 297 131 312 144 c 0
70 735 m 1
 490 735 l 1
 490 595 l 1
 70 595 l 1
 70 735 l 1
EndSplineSet
EndChar

StartChar: aogonek
Encoding: 261 261 222
Width: 582
Flags: W
LayerCount: 2
Fore
SplineSet
621 -200 m 1
 585 -213 543 -220 496 -220 c 0
 427 -220 374 -208 337 -184 c 0
 300 -160 281 -126 281 -82 c 0
 281 -61 286 -40 296 -22 c 0
 305 -2 321 17 342 38 c 1
 341 60 l 1
 339 60 l 1
 300 13 250 -10 189 -10 c 0
 140 -10 101 5 70 34 c 0
 39 64 24 103 24 150 c 0
 24 207 49 252 98 283 c 0
 147 314 218 330 309 330 c 2
 333 330 l 1
 333 355 329 371 322 378 c 0
 314 386 298 390 273 390 c 0
 243 390 211 386 178 378 c 0
 145 371 112 360 80 346 c 1
 40 481 l 1
 76 497 116 509 158 518 c 0
 202 526 245 530 289 530 c 0
 374 530 436 514 473 481 c 0
 510 448 529 395 529 320 c 2
 529 0 l 1
 481 -19 457 -38 457 -57 c 0
 457 -66 461 -73 470 -78 c 0
 479 -83 491 -85 508 -85 c 0
 523 -85 539 -83 556 -80 c 0
 574 -76 591 -71 606 -65 c 1
 621 -200 l 1
312 144 m 0
 326 157 333 174 333 195 c 2
 333 225 l 1
 309 225 l 2
 271 225 243 221 226 212 c 0
 209 203 200 189 200 170 c 0
 200 155 205 144 214 136 c 0
 223 129 237 125 255 125 c 0
 278 125 297 131 312 144 c 0
EndSplineSet
EndChar

StartChar: aring
Encoding: 229 229 223
Width: 582
Flags: W
LayerCount: 2
Fore
SplineSet
492 460 m 0
 517 428 529 381 529 320 c 2
 529 0 l 1
 343 0 l 1
 341 60 l 1
 339 60 l 1
 300 13 250 -10 189 -10 c 0
 140 -10 101 5 70 34 c 0
 39 64 24 103 24 150 c 0
 24 207 49 252 98 283 c 0
 147 314 218 330 309 330 c 2
 333 330 l 1
 333 355 329 371 322 378 c 0
 314 386 298 390 273 390 c 0
 243 390 211 386 178 378 c 0
 145 371 112 360 80 346 c 1
 40 481 l 1
 82 500 131 513 187 522 c 1
 164 538 145 558 131 584 c 0
 117 608 110 636 110 665 c 0
 110 696 118 724 133 750 c 0
 148 776 169 797 195 812 c 0
 221 827 249 835 280 835 c 0
 311 835 339 827 365 812 c 0
 391 797 412 776 427 750 c 0
 442 724 450 696 450 665 c 0
 450 636 443 609 430 584 c 0
 416 559 397 539 374 524 c 1
 429 514 468 493 492 460 c 0
241 704 m 0
 230 693 225 680 225 665 c 0
 225 650 230 637 241 626 c 0
 252 615 265 610 280 610 c 0
 295 610 308 615 319 626 c 0
 330 637 335 650 335 665 c 0
 335 680 330 693 319 704 c 0
 308 715 295 720 280 720 c 0
 265 720 252 715 241 704 c 0
312 144 m 0
 326 157 333 174 333 195 c 2
 333 225 l 1
 309 225 l 2
 271 225 243 221 226 212 c 0
 209 203 200 189 200 170 c 0
 200 155 205 144 214 136 c 0
 223 129 237 125 255 125 c 0
 278 125 297 131 312 144 c 0
EndSplineSet
EndChar

StartChar: aringacute
Encoding: 507 507 224
Width: 582
Flags: W
LayerCount: 2
Fore
SplineSet
492 460 m 0
 517 428 529 381 529 320 c 2
 529 0 l 1
 343 0 l 1
 341 60 l 1
 339 60 l 1
 300 13 250 -10 189 -10 c 0
 140 -10 101 5 70 34 c 0
 39 64 24 103 24 150 c 0
 24 207 49 252 98 283 c 0
 147 314 218 330 309 330 c 2
 333 330 l 1
 333 355 329 371 322 378 c 0
 314 386 298 390 273 390 c 0
 243 390 211 386 178 378 c 0
 145 371 112 360 80 346 c 1
 40 481 l 1
 82 500 131 513 187 522 c 1
 164 538 145 558 131 584 c 0
 117 608 110 636 110 665 c 0
 110 690 115 713 125 734 c 0
 135 756 149 775 166 792 c 1
 226 1000 l 1
 456 1000 l 1
 352 819 l 1
 381 805 405 784 423 756 c 0
 441 729 450 698 450 665 c 0
 450 636 443 609 430 584 c 0
 416 559 397 539 374 524 c 1
 429 514 468 493 492 460 c 0
241 704 m 0
 230 693 225 680 225 665 c 0
 225 650 230 637 241 626 c 0
 252 615 265 610 280 610 c 0
 295 610 308 615 319 626 c 0
 330 637 335 650 335 665 c 0
 335 680 330 693 319 704 c 0
 308 715 295 720 280 720 c 0
 265 720 252 715 241 704 c 0
312 144 m 0
 326 157 333 174 333 195 c 2
 333 225 l 1
 309 225 l 2
 271 225 243 221 226 212 c 0
 209 203 200 189 200 170 c 0
 200 155 205 144 214 136 c 0
 223 129 237 125 255 125 c 0
 278 125 297 131 312 144 c 0
EndSplineSet
EndChar

StartChar: atilde
Encoding: 227 227 225
Width: 582
Flags: W
LayerCount: 2
Fore
SplineSet
473 481 m 0
 510 448 529 395 529 320 c 2
 529 0 l 1
 343 0 l 1
 341 60 l 1
 339 60 l 1
 300 13 250 -10 189 -10 c 0
 140 -10 101 5 70 34 c 0
 39 64 24 103 24 150 c 0
 24 207 49 252 98 283 c 0
 147 314 218 330 309 330 c 2
 333 330 l 1
 333 355 329 371 322 378 c 0
 314 386 298 390 273 390 c 0
 243 390 211 386 178 378 c 0
 145 371 112 360 80 346 c 1
 40 481 l 1
 76 497 116 509 158 518 c 0
 202 526 245 530 289 530 c 0
 374 530 436 514 473 481 c 0
312 144 m 0
 326 157 333 174 333 195 c 2
 333 225 l 1
 309 225 l 2
 271 225 243 221 226 212 c 0
 209 203 200 189 200 170 c 0
 200 155 205 144 214 136 c 0
 223 129 237 125 255 125 c 0
 278 125 297 131 312 144 c 0
257 602 m 0
 232 617 213 625 200 625 c 0
 191 625 186 621 182 612 c 0
 180 604 178 587 178 560 c 1
 30 560 l 1
 30 635 40 690 60 726 c 0
 81 762 112 780 155 780 c 0
 198 780 247 763 303 728 c 0
 328 713 347 705 360 705 c 0
 369 705 374 709 378 718 c 0
 380 726 382 743 382 770 c 1
 530 770 l 1
 530 695 520 640 500 604 c 0
 479 568 448 550 405 550 c 0
 362 550 313 567 257 602 c 0
EndSplineSet
EndChar

StartChar: ae
Encoding: 230 230 226
Width: 891
Flags: W
LayerCount: 2
Fore
SplineSet
859 200 m 1
 526 200 l 1
 529 173 541 154 562 142 c 0
 582 131 613 125 655 125 c 0
 705 125 753 133 798 148 c 1
 823 18 l 1
 800 9 773 2 740 -2 c 0
 708 -8 676 -10 643 -10 c 0
 552 -10 481 9 428 48 c 1
 380 9 317 -10 239 -10 c 0
 96 -10 24 43 24 150 c 0
 24 207 49 252 98 283 c 0
 147 314 218 330 309 330 c 2
 333 330 l 1
 333 355 329 371 322 378 c 0
 314 386 298 390 273 390 c 0
 243 390 211 386 178 378 c 0
 145 371 112 360 80 346 c 1
 40 481 l 1
 76 497 116 509 158 518 c 0
 202 526 245 530 289 530 c 0
 362 530 416 518 453 494 c 1
 494 518 544 530 603 530 c 0
 685 530 749 507 794 462 c 0
 840 416 863 352 863 270 c 0
 863 238 862 215 859 200 c 1
550 383 m 0
 537 368 530 346 527 315 c 1
 679 315 l 1
 676 346 669 368 656 383 c 0
 644 398 626 405 603 405 c 0
 580 405 562 398 550 383 c 0
312 144 m 0
 326 157 333 174 333 195 c 2
 333 225 l 1
 309 225 l 2
 271 225 243 221 226 212 c 0
 209 203 200 189 200 170 c 0
 200 155 205 144 214 136 c 0
 223 129 237 125 255 125 c 0
 278 125 297 131 312 144 c 0
EndSplineSet
EndChar

StartChar: aeacute
Encoding: 509 509 227
Width: 891
Flags: W
LayerCount: 2
Fore
SplineSet
859 200 m 1
 526 200 l 1
 529 173 541 154 562 142 c 0
 582 131 613 125 655 125 c 0
 705 125 753 133 798 148 c 1
 823 18 l 1
 800 9 773 2 740 -2 c 0
 708 -8 676 -10 643 -10 c 0
 552 -10 481 9 428 48 c 1
 380 9 317 -10 239 -10 c 0
 96 -10 24 43 24 150 c 0
 24 207 49 252 98 283 c 0
 147 314 218 330 309 330 c 2
 333 330 l 1
 333 355 329 371 322 378 c 0
 314 386 298 390 273 390 c 0
 243 390 211 386 178 378 c 0
 145 371 112 360 80 346 c 1
 40 481 l 1
 76 497 116 509 158 518 c 0
 202 526 245 530 289 530 c 0
 362 530 416 518 453 494 c 1
 494 518 544 530 603 530 c 0
 685 530 749 507 794 462 c 0
 840 416 863 352 863 270 c 0
 863 238 862 215 859 200 c 1
550 383 m 0
 537 368 530 346 527 315 c 1
 679 315 l 1
 676 346 669 368 656 383 c 0
 644 398 626 405 603 405 c 0
 580 405 562 398 550 383 c 0
312 144 m 0
 326 157 333 174 333 195 c 2
 333 225 l 1
 309 225 l 2
 271 225 243 221 226 212 c 0
 209 203 200 189 200 170 c 0
 200 155 205 144 214 136 c 0
 223 129 237 125 255 125 c 0
 278 125 297 131 312 144 c 0
504 560 m 1
 334 560 l 1
 394 770 l 1
 624 770 l 1
 504 560 l 1
EndSplineSet
EndChar

StartChar: b
Encoding: 98 98 228
Width: 638
Flags: W
LayerCount: 2
Fore
SplineSet
555 460 m 0
 588 414 605 347 605 260 c 0
 605 173 588 106 555 60 c 0
 522 13 473 -10 410 -10 c 0
 379 -10 351 -4 325 7 c 0
 299 18 274 36 249 60 c 1
 247 60 l 1
 245 0 l 1
 59 0 l 1
 59 750 l 1
 255 750 l 1
 255 460 l 1
 257 460 l 1
 279 484 302 502 327 513 c 0
 352 524 379 530 410 530 c 0
 473 530 522 507 555 460 c 0
393 170 m 0
 406 191 413 221 413 260 c 0
 413 299 406 329 393 350 c 0
 380 370 360 380 334 380 c 0
 309 380 289 370 276 351 c 0
 262 332 255 305 255 270 c 2
 255 250 l 2
 255 215 262 188 276 169 c 0
 289 150 309 140 334 140 c 0
 360 140 380 150 393 170 c 0
EndSplineSet
EndChar

StartChar: c
Encoding: 99 99 229
Width: 552
Flags: W
LayerCount: 2
Fore
SplineSet
108 60 m 0
 56 107 30 173 30 260 c 0
 30 347 56 413 108 460 c 0
 160 507 234 530 330 530 c 0
 397 530 457 517 510 490 c 1
 463 358 l 1
 421 379 381 390 344 390 c 0
 268 390 230 347 230 260 c 0
 230 173 268 130 344 130 c 0
 381 130 421 141 463 162 c 1
 510 30 l 1
 457 3 397 -10 330 -10 c 0
 234 -10 160 13 108 60 c 0
EndSplineSet
EndChar

StartChar: cacute
Encoding: 263 263 230
Width: 552
Flags: W
LayerCount: 2
Fore
SplineSet
108 60 m 0
 56 107 30 173 30 260 c 0
 30 347 56 413 108 460 c 0
 160 507 234 530 330 530 c 0
 397 530 457 517 510 490 c 1
 463 358 l 1
 421 379 381 390 344 390 c 0
 268 390 230 347 230 260 c 0
 230 173 268 130 344 130 c 0
 381 130 421 141 463 162 c 1
 510 30 l 1
 457 3 397 -10 330 -10 c 0
 234 -10 160 13 108 60 c 0
351 560 m 1
 181 560 l 1
 241 770 l 1
 471 770 l 1
 351 560 l 1
EndSplineSet
EndChar

StartChar: ccaron
Encoding: 269 269 231
Width: 552
Flags: W
LayerCount: 2
Fore
SplineSet
108 60 m 0
 56 107 30 173 30 260 c 0
 30 347 56 413 108 460 c 0
 160 507 234 530 330 530 c 0
 397 530 457 517 510 490 c 1
 463 358 l 1
 421 379 381 390 344 390 c 0
 268 390 230 347 230 260 c 0
 230 173 268 130 344 130 c 0
 381 130 421 141 463 162 c 1
 510 30 l 1
 457 3 397 -10 330 -10 c 0
 234 -10 160 13 108 60 c 0
25 770 m 1
 235 770 l 1
 294 630 l 1
 296 630 l 1
 355 770 l 1
 565 770 l 1
 445 560 l 1
 145 560 l 1
 25 770 l 1
EndSplineSet
EndChar

StartChar: ccedilla
Encoding: 231 231 232
Width: 552
Flags: W
LayerCount: 2
Fore
SplineSet
510 30 m 1
 489 19 469 11 448 6 c 1
 469 -22 480 -51 480 -82 c 0
 480 -126 461 -160 424 -184 c 0
 387 -208 334 -220 265 -220 c 0
 218 -220 176 -213 140 -200 c 1
 155 -65 l 1
 170 -71 187 -76 204 -80 c 0
 222 -83 238 -85 253 -85 c 0
 270 -85 282 -83 291 -78 c 0
 300 -73 304 -66 304 -57 c 0
 304 -38 280 -19 233 0 c 1
 168 14 118 43 82 88 c 0
 48 132 30 189 30 260 c 0
 30 347 56 413 108 460 c 0
 160 507 234 530 330 530 c 0
 397 530 457 517 510 490 c 1
 463 358 l 1
 421 379 381 390 344 390 c 0
 268 390 230 347 230 260 c 0
 230 173 268 130 344 130 c 0
 381 130 421 141 463 162 c 1
 510 30 l 1
EndSplineSet
EndChar

StartChar: ccircumflex
Encoding: 265 265 233
Width: 552
Flags: W
LayerCount: 2
Fore
SplineSet
108 60 m 0
 56 107 30 173 30 260 c 0
 30 347 56 413 108 460 c 0
 160 507 234 530 330 530 c 0
 397 530 457 517 510 490 c 1
 463 358 l 1
 421 379 381 390 344 390 c 0
 268 390 230 347 230 260 c 0
 230 173 268 130 344 130 c 0
 381 130 421 141 463 162 c 1
 510 30 l 1
 457 3 397 -10 330 -10 c 0
 234 -10 160 13 108 60 c 0
145 770 m 1
 445 770 l 1
 565 560 l 1
 355 560 l 1
 296 700 l 1
 294 700 l 1
 235 560 l 1
 25 560 l 1
 145 770 l 1
EndSplineSet
EndChar

StartChar: cdotaccent
Encoding: 267 267 234
Width: 552
Flags: W
LayerCount: 2
Fore
SplineSet
108 60 m 0
 56 107 30 173 30 260 c 0
 30 347 56 413 108 460 c 0
 160 507 234 530 330 530 c 0
 397 530 457 517 510 490 c 1
 463 358 l 1
 421 379 381 390 344 390 c 0
 268 390 230 347 230 260 c 0
 230 173 268 130 344 130 c 0
 381 130 421 141 463 162 c 1
 510 30 l 1
 457 3 397 -10 330 -10 c 0
 234 -10 160 13 108 60 c 0
200 760 m 1
 390 760 l 1
 390 570 l 1
 200 570 l 1
 200 760 l 1
EndSplineSet
EndChar

StartChar: d
Encoding: 100 100 235
Width: 638
Flags: W
LayerCount: 2
Fore
SplineSet
579 750 m 1
 579 0 l 1
 393 0 l 1
 391 60 l 1
 389 60 l 1
 364 36 339 18 313 7 c 0
 287 -4 259 -10 228 -10 c 0
 165 -10 116 13 83 60 c 0
 50 106 33 173 33 260 c 0
 33 347 50 414 83 460 c 0
 116 507 165 530 228 530 c 0
 259 530 286 524 311 513 c 0
 336 502 359 484 381 460 c 1
 383 460 l 1
 383 750 l 1
 579 750 l 1
362 169 m 0
 376 188 383 215 383 250 c 2
 383 270 l 2
 383 305 376 332 362 351 c 0
 349 370 329 380 304 380 c 0
 278 380 258 370 245 350 c 0
 232 329 225 299 225 260 c 0
 225 221 232 191 245 170 c 0
 258 150 278 140 304 140 c 0
 329 140 349 150 362 169 c 0
EndSplineSet
EndChar

StartChar: eth
Encoding: 240 240 236
Width: 621
Flags: W
LayerCount: 2
Fore
SplineSet
580 280 m 0
 580 182 557 109 512 62 c 0
 467 14 398 -10 305 -10 c 0
 220 -10 152 13 104 60 c 0
 54 106 30 169 30 250 c 0
 30 323 51 380 94 420 c 0
 137 460 197 480 275 480 c 0
 308 480 338 477 365 470 c 1
 367 471 l 1
 365 502 355 529 336 552 c 1
 125 468 l 1
 70 598 l 1
 185 644 l 1
 154 653 119 658 80 660 c 1
 120 790 l 1
 223 785 309 761 378 720 c 1
 510 773 l 1
 565 643 l 1
 492 614 l 1
 551 530 580 419 580 280 c 0
366 155 m 0
 380 175 386 207 386 250 c 0
 386 293 380 325 366 345 c 0
 354 365 333 375 305 375 c 0
 277 375 256 365 244 345 c 0
 230 325 224 293 224 250 c 0
 224 207 230 175 244 155 c 0
 256 135 277 125 305 125 c 0
 333 125 354 135 366 155 c 0
EndSplineSet
EndChar

StartChar: dcaron
Encoding: 271 271 237
Width: 891
Flags: W
LayerCount: 2
Fore
SplineSet
579 750 m 1
 579 0 l 1
 393 0 l 1
 391 60 l 1
 389 60 l 1
 364 36 339 18 313 7 c 0
 287 -4 259 -10 228 -10 c 0
 165 -10 116 13 83 60 c 0
 50 106 33 173 33 260 c 0
 33 347 50 414 83 460 c 0
 116 507 165 530 228 530 c 0
 259 530 286 524 311 513 c 0
 336 502 359 484 381 460 c 1
 383 460 l 1
 383 750 l 1
 579 750 l 1
362 169 m 0
 376 188 383 215 383 250 c 2
 383 270 l 2
 383 305 376 332 362 351 c 0
 349 370 329 380 304 380 c 0
 278 380 258 370 245 350 c 0
 232 329 225 299 225 260 c 0
 225 221 232 191 245 170 c 0
 258 150 278 140 304 140 c 0
 329 140 349 150 362 169 c 0
676 770 m 1
 886 770 l 1
 766 470 l 1
 616 470 l 1
 676 770 l 1
EndSplineSet
EndChar

StartChar: dcroat
Encoding: 273 273 238
Width: 700
Flags: W
LayerCount: 2
Fore
SplineSet
679 555 m 1
 579 555 l 1
 579 0 l 1
 393 0 l 1
 391 60 l 1
 389 60 l 1
 364 36 339 18 313 7 c 0
 287 -4 259 -10 228 -10 c 0
 165 -10 116 13 83 60 c 0
 50 106 33 173 33 260 c 0
 33 347 50 414 83 460 c 0
 116 507 165 530 228 530 c 0
 259 530 286 524 311 513 c 0
 336 502 359 484 381 460 c 1
 383 460 l 1
 383 555 l 1
 259 555 l 1
 259 695 l 1
 383 695 l 1
 383 750 l 1
 579 750 l 1
 579 695 l 1
 679 695 l 1
 679 555 l 1
362 169 m 0
 376 188 383 215 383 250 c 2
 383 270 l 2
 383 305 376 332 362 351 c 0
 349 370 329 380 304 380 c 0
 278 380 258 370 245 350 c 0
 232 329 225 299 225 260 c 0
 225 221 232 191 245 170 c 0
 258 150 278 140 304 140 c 0
 329 140 349 150 362 169 c 0
EndSplineSet
EndChar

StartChar: uni01C6
Encoding: 454 454 239
Width: 1214
Flags: W
LayerCount: 2
Fore
SplineSet
579 750 m 1
 579 0 l 1
 393 0 l 1
 391 60 l 1
 389 60 l 1
 364 36 339 18 313 7 c 0
 287 -4 259 -10 228 -10 c 0
 165 -10 116 13 83 60 c 0
 50 106 33 173 33 260 c 0
 33 347 50 414 83 460 c 0
 116 507 165 530 228 530 c 0
 259 530 286 524 311 513 c 0
 336 502 359 484 381 460 c 1
 383 460 l 1
 383 750 l 1
 579 750 l 1
362 169 m 0
 376 188 383 215 383 250 c 2
 383 270 l 2
 383 305 376 332 362 351 c 0
 349 370 329 380 304 380 c 0
 278 380 258 370 245 350 c 0
 232 329 225 299 225 260 c 0
 225 221 232 191 245 170 c 0
 258 150 278 140 304 140 c 0
 329 140 349 150 362 169 c 0
691 140 m 1
 914 378 l 1
 914 380 l 1
 691 380 l 1
 691 520 l 1
 1161 520 l 1
 1161 380 l 1
 938 142 l 1
 938 140 l 1
 1161 140 l 1
 1161 0 l 1
 691 0 l 1
 691 140 l 1
656 770 m 1
 866 770 l 1
 925 630 l 1
 927 630 l 1
 986 770 l 1
 1196 770 l 1
 1076 560 l 1
 776 560 l 1
 656 770 l 1
EndSplineSet
EndChar

StartChar: e
Encoding: 101 101 240
Width: 588
Flags: W
LayerCount: 2
Fore
SplineSet
556 200 m 1
 223 200 l 1
 226 173 238 154 258 142 c 0
 279 131 310 125 352 125 c 0
 402 125 450 133 495 148 c 1
 520 18 l 1
 497 9 470 2 438 -2 c 0
 405 -8 373 -10 340 -10 c 0
 240 -10 163 13 110 60 c 0
 57 106 30 173 30 260 c 0
 30 344 54 410 102 458 c 0
 150 506 216 530 300 530 c 0
 382 530 446 507 492 462 c 0
 537 416 560 352 560 270 c 0
 560 238 559 215 556 200 c 1
246 383 m 0
 234 368 227 346 224 315 c 1
 376 315 l 1
 373 346 366 368 354 383 c 0
 341 398 323 405 300 405 c 0
 277 405 259 398 246 383 c 0
EndSplineSet
EndChar

StartChar: eacute
Encoding: 233 233 241
Width: 588
Flags: W
LayerCount: 2
Fore
SplineSet
556 200 m 1
 223 200 l 1
 226 173 238 154 258 142 c 0
 279 131 310 125 352 125 c 0
 402 125 450 133 495 148 c 1
 520 18 l 1
 497 9 470 2 438 -2 c 0
 405 -8 373 -10 340 -10 c 0
 240 -10 163 13 110 60 c 0
 57 106 30 173 30 260 c 0
 30 344 54 410 102 458 c 0
 150 506 216 530 300 530 c 0
 382 530 446 507 492 462 c 0
 537 416 560 352 560 270 c 0
 560 238 559 215 556 200 c 1
246 383 m 0
 234 368 227 346 224 315 c 1
 376 315 l 1
 373 346 366 368 354 383 c 0
 341 398 323 405 300 405 c 0
 277 405 259 398 246 383 c 0
356 560 m 1
 186 560 l 1
 246 770 l 1
 476 770 l 1
 356 560 l 1
EndSplineSet
EndChar

StartChar: ebreve
Encoding: 277 277 242
Width: 588
Flags: W
LayerCount: 2
Fore
SplineSet
556 200 m 1
 223 200 l 1
 226 173 238 154 258 142 c 0
 279 131 310 125 352 125 c 0
 402 125 450 133 495 148 c 1
 520 18 l 1
 497 9 470 2 438 -2 c 0
 405 -8 373 -10 340 -10 c 0
 240 -10 163 13 110 60 c 0
 57 106 30 173 30 260 c 0
 30 344 54 410 102 458 c 0
 150 506 216 530 300 530 c 0
 382 530 446 507 492 462 c 0
 537 416 560 352 560 270 c 0
 560 238 559 215 556 200 c 1
246 383 m 0
 234 368 227 346 224 315 c 1
 376 315 l 1
 373 346 366 368 354 383 c 0
 341 398 323 405 300 405 c 0
 277 405 259 398 246 383 c 0
171 578 m 0
 133 598 103 624 82 657 c 0
 61 690 50 728 50 770 c 1
 220 770 l 1
 223 739 232 717 244 702 c 0
 258 687 276 680 300 680 c 0
 323 680 342 687 354 702 c 0
 368 717 376 739 380 770 c 1
 550 770 l 1
 550 728 539 690 518 657 c 0
 497 624 467 598 429 578 c 0
 391 560 348 550 300 550 c 0
 252 550 209 560 171 578 c 0
EndSplineSet
EndChar

StartChar: ecaron
Encoding: 283 283 243
Width: 588
Flags: W
LayerCount: 2
Fore
SplineSet
556 200 m 1
 223 200 l 1
 226 173 238 154 258 142 c 0
 279 131 310 125 352 125 c 0
 402 125 450 133 495 148 c 1
 520 18 l 1
 497 9 470 2 438 -2 c 0
 405 -8 373 -10 340 -10 c 0
 240 -10 163 13 110 60 c 0
 57 106 30 173 30 260 c 0
 30 344 54 410 102 458 c 0
 150 506 216 530 300 530 c 0
 382 530 446 507 492 462 c 0
 537 416 560 352 560 270 c 0
 560 238 559 215 556 200 c 1
246 383 m 0
 234 368 227 346 224 315 c 1
 376 315 l 1
 373 346 366 368 354 383 c 0
 341 398 323 405 300 405 c 0
 277 405 259 398 246 383 c 0
30 770 m 1
 240 770 l 1
 299 630 l 1
 301 630 l 1
 360 770 l 1
 570 770 l 1
 450 560 l 1
 150 560 l 1
 30 770 l 1
EndSplineSet
EndChar

StartChar: ecircumflex
Encoding: 234 234 244
Width: 588
Flags: W
LayerCount: 2
Fore
SplineSet
556 200 m 1
 223 200 l 1
 226 173 238 154 258 142 c 0
 279 131 310 125 352 125 c 0
 402 125 450 133 495 148 c 1
 520 18 l 1
 497 9 470 2 438 -2 c 0
 405 -8 373 -10 340 -10 c 0
 240 -10 163 13 110 60 c 0
 57 106 30 173 30 260 c 0
 30 344 54 410 102 458 c 0
 150 506 216 530 300 530 c 0
 382 530 446 507 492 462 c 0
 537 416 560 352 560 270 c 0
 560 238 559 215 556 200 c 1
246 383 m 0
 234 368 227 346 224 315 c 1
 376 315 l 1
 373 346 366 368 354 383 c 0
 341 398 323 405 300 405 c 0
 277 405 259 398 246 383 c 0
150 770 m 1
 450 770 l 1
 570 560 l 1
 360 560 l 1
 301 700 l 1
 299 700 l 1
 240 560 l 1
 30 560 l 1
 150 770 l 1
EndSplineSet
EndChar

StartChar: uni1EBF
Encoding: 7871 7871 245
Width: 588
Flags: W
LayerCount: 2
Fore
SplineSet
710 950 m 1
 590 740 l 1
 467 740 l 1
 570 560 l 1
 360 560 l 1
 301 700 l 1
 299 700 l 1
 240 560 l 1
 30 560 l 1
 150 770 l 1
 429 770 l 1
 480 950 l 1
 710 950 l 1
492 462 m 0
 537 416 560 352 560 270 c 0
 560 238 559 215 556 200 c 1
 223 200 l 1
 226 173 238 154 258 142 c 0
 279 131 310 125 352 125 c 0
 402 125 450 133 495 148 c 1
 520 18 l 1
 497 9 470 2 438 -2 c 0
 405 -8 373 -10 340 -10 c 0
 240 -10 163 13 110 60 c 0
 57 106 30 173 30 260 c 0
 30 344 54 410 102 458 c 0
 150 506 216 530 300 530 c 0
 382 530 446 507 492 462 c 0
246 383 m 0
 234 368 227 346 224 315 c 1
 376 315 l 1
 373 346 366 368 354 383 c 0
 341 398 323 405 300 405 c 0
 277 405 259 398 246 383 c 0
EndSplineSet
EndChar

StartChar: uni1EC7
Encoding: 7879 7879 246
Width: 588
Flags: W
LayerCount: 2
Fore
SplineSet
556 200 m 1
 223 200 l 1
 226 173 238 154 258 142 c 0
 279 131 310 125 352 125 c 0
 402 125 450 133 495 148 c 1
 520 18 l 1
 497 9 470 2 438 -2 c 0
 405 -8 373 -10 340 -10 c 0
 240 -10 163 13 110 60 c 0
 57 106 30 173 30 260 c 0
 30 344 54 410 102 458 c 0
 150 506 216 530 300 530 c 0
 382 530 446 507 492 462 c 0
 537 416 560 352 560 270 c 0
 560 238 559 215 556 200 c 1
246 383 m 0
 234 368 227 346 224 315 c 1
 376 315 l 1
 373 346 366 368 354 383 c 0
 341 398 323 405 300 405 c 0
 277 405 259 398 246 383 c 0
205 -50 m 1
 395 -50 l 1
 395 -240 l 1
 205 -240 l 1
 205 -50 l 1
150 770 m 1
 450 770 l 1
 570 560 l 1
 360 560 l 1
 301 700 l 1
 299 700 l 1
 240 560 l 1
 30 560 l 1
 150 770 l 1
EndSplineSet
EndChar

StartChar: uni1EC1
Encoding: 7873 7873 247
Width: 588
Flags: W
LayerCount: 2
Fore
SplineSet
30 560 m 1
 133 740 l 1
 10 740 l 1
 -110 950 l 1
 120 950 l 1
 171 770 l 1
 450 770 l 1
 570 560 l 1
 360 560 l 1
 301 700 l 1
 299 700 l 1
 240 560 l 1
 30 560 l 1
492 462 m 0
 537 416 560 352 560 270 c 0
 560 238 559 215 556 200 c 1
 223 200 l 1
 226 173 238 154 258 142 c 0
 279 131 310 125 352 125 c 0
 402 125 450 133 495 148 c 1
 520 18 l 1
 497 9 470 2 438 -2 c 0
 405 -8 373 -10 340 -10 c 0
 240 -10 163 13 110 60 c 0
 57 106 30 173 30 260 c 0
 30 344 54 410 102 458 c 0
 150 506 216 530 300 530 c 0
 382 530 446 507 492 462 c 0
246 383 m 0
 234 368 227 346 224 315 c 1
 376 315 l 1
 373 346 366 368 354 383 c 0
 341 398 323 405 300 405 c 0
 277 405 259 398 246 383 c 0
EndSplineSet
EndChar

StartChar: uni1EC3
Encoding: 7875 7875 248
Width: 588
Flags: W
LayerCount: 2
Fore
SplineSet
602 802 m 0
 597 779 591 758 584 740 c 1
 467 740 l 1
 570 560 l 1
 360 560 l 1
 301 700 l 1
 299 700 l 1
 240 560 l 1
 30 560 l 1
 150 770 l 1
 431 770 l 1
 433 781 434 791 434 800 c 0
 434 812 431 820 425 824 c 0
 419 828 407 830 389 830 c 0
 366 830 341 828 314 824 c 0
 286 819 259 813 234 805 c 1
 219 940 l 1
 247 946 279 951 314 954 c 0
 350 958 383 960 414 960 c 0
 466 960 506 957 534 952 c 0
 561 946 581 936 592 923 c 0
 603 910 609 890 609 865 c 0
 609 846 607 825 602 802 c 0
492 462 m 0
 537 416 560 352 560 270 c 0
 560 238 559 215 556 200 c 1
 223 200 l 1
 226 173 238 154 258 142 c 0
 279 131 310 125 352 125 c 0
 402 125 450 133 495 148 c 1
 520 18 l 1
 497 9 470 2 438 -2 c 0
 405 -8 373 -10 340 -10 c 0
 240 -10 163 13 110 60 c 0
 57 106 30 173 30 260 c 0
 30 344 54 410 102 458 c 0
 150 506 216 530 300 530 c 0
 382 530 446 507 492 462 c 0
246 383 m 0
 234 368 227 346 224 315 c 1
 376 315 l 1
 373 346 366 368 354 383 c 0
 341 398 323 405 300 405 c 0
 277 405 259 398 246 383 c 0
EndSplineSet
EndChar

StartChar: uni1EC5
Encoding: 7877 7877 249
Width: 588
Flags: W
LayerCount: 2
Fore
SplineSet
556 200 m 1
 223 200 l 1
 226 173 238 154 258 142 c 0
 279 131 310 125 352 125 c 0
 402 125 450 133 495 148 c 1
 520 18 l 1
 497 9 470 2 438 -2 c 0
 405 -8 373 -10 340 -10 c 0
 240 -10 163 13 110 60 c 0
 57 106 30 173 30 260 c 0
 30 344 54 410 102 458 c 0
 150 506 216 530 300 530 c 0
 382 530 446 507 492 462 c 0
 537 416 560 352 560 270 c 0
 560 238 559 215 556 200 c 1
246 383 m 0
 234 368 227 346 224 315 c 1
 376 315 l 1
 373 346 366 368 354 383 c 0
 341 398 323 405 300 405 c 0
 277 405 259 398 246 383 c 0
150 770 m 1
 450 770 l 1
 570 560 l 1
 360 560 l 1
 301 700 l 1
 299 700 l 1
 240 560 l 1
 30 560 l 1
 150 770 l 1
277 852 m 0
 252 867 233 875 220 875 c 0
 211 875 206 871 202 862 c 0
 200 854 198 837 198 810 c 1
 50 810 l 1
 50 885 60 940 80 976 c 0
 101 1012 132 1030 175 1030 c 0
 218 1030 267 1013 323 978 c 0
 348 963 367 955 380 955 c 0
 389 955 394 959 398 968 c 0
 400 976 402 993 402 1020 c 1
 550 1020 l 1
 550 945 540 890 520 854 c 0
 499 818 468 800 425 800 c 0
 382 800 333 817 277 852 c 0
EndSplineSet
EndChar

StartChar: uni0205
Encoding: 517 517 250
Width: 588
Flags: W
LayerCount: 2
Fore
SplineSet
556 200 m 1
 223 200 l 1
 226 173 238 154 258 142 c 0
 279 131 310 125 352 125 c 0
 402 125 450 133 495 148 c 1
 520 18 l 1
 497 9 470 2 438 -2 c 0
 405 -8 373 -10 340 -10 c 0
 240 -10 163 13 110 60 c 0
 57 106 30 173 30 260 c 0
 30 344 54 410 102 458 c 0
 150 506 216 530 300 530 c 0
 382 530 446 507 492 462 c 0
 537 416 560 352 560 270 c 0
 560 238 559 215 556 200 c 1
246 383 m 0
 234 368 227 346 224 315 c 1
 376 315 l 1
 373 346 366 368 354 383 c 0
 341 398 323 405 300 405 c 0
 277 405 259 398 246 383 c 0
-14 770 m 1
 216 770 l 1
 276 560 l 1
 106 560 l 1
 -14 770 l 1
256 770 m 1
 486 770 l 1
 546 560 l 1
 376 560 l 1
 256 770 l 1
EndSplineSet
EndChar

StartChar: edieresis
Encoding: 235 235 251
Width: 588
Flags: W
LayerCount: 2
Fore
SplineSet
556 200 m 1
 223 200 l 1
 226 173 238 154 258 142 c 0
 279 131 310 125 352 125 c 0
 402 125 450 133 495 148 c 1
 520 18 l 1
 497 9 470 2 438 -2 c 0
 405 -8 373 -10 340 -10 c 0
 240 -10 163 13 110 60 c 0
 57 106 30 173 30 260 c 0
 30 344 54 410 102 458 c 0
 150 506 216 530 300 530 c 0
 382 530 446 507 492 462 c 0
 537 416 560 352 560 270 c 0
 560 238 559 215 556 200 c 1
246 383 m 0
 234 368 227 346 224 315 c 1
 376 315 l 1
 373 346 366 368 354 383 c 0
 341 398 323 405 300 405 c 0
 277 405 259 398 246 383 c 0
70 760 m 1
 260 760 l 1
 260 570 l 1
 70 570 l 1
 70 760 l 1
340 760 m 1
 530 760 l 1
 530 570 l 1
 340 570 l 1
 340 760 l 1
EndSplineSet
EndChar

StartChar: edotaccent
Encoding: 279 279 252
Width: 588
Flags: W
LayerCount: 2
Fore
SplineSet
556 200 m 1
 223 200 l 1
 226 173 238 154 258 142 c 0
 279 131 310 125 352 125 c 0
 402 125 450 133 495 148 c 1
 520 18 l 1
 497 9 470 2 438 -2 c 0
 405 -8 373 -10 340 -10 c 0
 240 -10 163 13 110 60 c 0
 57 106 30 173 30 260 c 0
 30 344 54 410 102 458 c 0
 150 506 216 530 300 530 c 0
 382 530 446 507 492 462 c 0
 537 416 560 352 560 270 c 0
 560 238 559 215 556 200 c 1
246 383 m 0
 234 368 227 346 224 315 c 1
 376 315 l 1
 373 346 366 368 354 383 c 0
 341 398 323 405 300 405 c 0
 277 405 259 398 246 383 c 0
205 760 m 1
 395 760 l 1
 395 570 l 1
 205 570 l 1
 205 760 l 1
EndSplineSet
EndChar

StartChar: uni1EB9
Encoding: 7865 7865 253
Width: 588
Flags: W
LayerCount: 2
Fore
SplineSet
556 200 m 1
 223 200 l 1
 226 173 238 154 258 142 c 0
 279 131 310 125 352 125 c 0
 402 125 450 133 495 148 c 1
 520 18 l 1
 497 9 470 2 438 -2 c 0
 405 -8 373 -10 340 -10 c 0
 240 -10 163 13 110 60 c 0
 57 106 30 173 30 260 c 0
 30 344 54 410 102 458 c 0
 150 506 216 530 300 530 c 0
 382 530 446 507 492 462 c 0
 537 416 560 352 560 270 c 0
 560 238 559 215 556 200 c 1
246 383 m 0
 234 368 227 346 224 315 c 1
 376 315 l 1
 373 346 366 368 354 383 c 0
 341 398 323 405 300 405 c 0
 277 405 259 398 246 383 c 0
205 -50 m 1
 395 -50 l 1
 395 -240 l 1
 205 -240 l 1
 205 -50 l 1
EndSplineSet
EndChar

StartChar: egrave
Encoding: 232 232 254
Width: 588
Flags: W
LayerCount: 2
Fore
SplineSet
556 200 m 1
 223 200 l 1
 226 173 238 154 258 142 c 0
 279 131 310 125 352 125 c 0
 402 125 450 133 495 148 c 1
 520 18 l 1
 497 9 470 2 438 -2 c 0
 405 -8 373 -10 340 -10 c 0
 240 -10 163 13 110 60 c 0
 57 106 30 173 30 260 c 0
 30 344 54 410 102 458 c 0
 150 506 216 530 300 530 c 0
 382 530 446 507 492 462 c 0
 537 416 560 352 560 270 c 0
 560 238 559 215 556 200 c 1
246 383 m 0
 234 368 227 346 224 315 c 1
 376 315 l 1
 373 346 366 368 354 383 c 0
 341 398 323 405 300 405 c 0
 277 405 259 398 246 383 c 0
124 770 m 1
 354 770 l 1
 414 560 l 1
 244 560 l 1
 124 770 l 1
EndSplineSet
EndChar

StartChar: uni1EBB
Encoding: 7867 7867 255
Width: 588
Flags: W
LayerCount: 2
Fore
SplineSet
556 200 m 1
 223 200 l 1
 226 173 238 154 258 142 c 0
 279 131 310 125 352 125 c 0
 402 125 450 133 495 148 c 1
 520 18 l 1
 497 9 470 2 438 -2 c 0
 405 -8 373 -10 340 -10 c 0
 240 -10 163 13 110 60 c 0
 57 106 30 173 30 260 c 0
 30 344 54 410 102 458 c 0
 150 506 216 530 300 530 c 0
 382 530 446 507 492 462 c 0
 537 416 560 352 560 270 c 0
 560 238 559 215 556 200 c 1
246 383 m 0
 234 368 227 346 224 315 c 1
 376 315 l 1
 373 346 366 368 354 383 c 0
 341 398 323 405 300 405 c 0
 277 405 259 398 246 383 c 0
320 620 m 0
 320 632 317 640 311 644 c 0
 305 648 293 650 275 650 c 0
 252 650 227 648 200 644 c 0
 172 639 145 633 120 625 c 1
 105 760 l 1
 133 766 165 771 200 774 c 0
 236 778 269 780 300 780 c 0
 352 780 392 777 420 772 c 0
 447 766 467 756 478 743 c 0
 489 730 495 710 495 685 c 0
 495 666 493 645 488 622 c 0
 483 599 477 578 470 560 c 1
 310 560 l 1
 317 585 320 605 320 620 c 0
EndSplineSet
EndChar

StartChar: uni0207
Encoding: 519 519 256
Width: 588
Flags: W
LayerCount: 2
Fore
SplineSet
556 200 m 1
 223 200 l 1
 226 173 238 154 258 142 c 0
 279 131 310 125 352 125 c 0
 402 125 450 133 495 148 c 1
 520 18 l 1
 497 9 470 2 438 -2 c 0
 405 -8 373 -10 340 -10 c 0
 240 -10 163 13 110 60 c 0
 57 106 30 173 30 260 c 0
 30 344 54 410 102 458 c 0
 150 506 216 530 300 530 c 0
 382 530 446 507 492 462 c 0
 537 416 560 352 560 270 c 0
 560 238 559 215 556 200 c 1
246 383 m 0
 234 368 227 346 224 315 c 1
 376 315 l 1
 373 346 366 368 354 383 c 0
 341 398 323 405 300 405 c 0
 277 405 259 398 246 383 c 0
429 752 m 0
 467 732 497 706 518 673 c 0
 539 640 550 602 550 560 c 1
 380 560 l 1
 376 591 368 613 354 628 c 0
 342 643 323 650 300 650 c 0
 276 650 258 643 244 628 c 0
 232 613 223 591 220 560 c 1
 50 560 l 1
 50 602 61 640 82 673 c 0
 103 706 133 732 171 752 c 0
 209 770 252 780 300 780 c 0
 348 780 391 770 429 752 c 0
EndSplineSet
EndChar

StartChar: emacron
Encoding: 275 275 257
Width: 588
Flags: W
LayerCount: 2
Fore
SplineSet
556 200 m 1
 223 200 l 1
 226 173 238 154 258 142 c 0
 279 131 310 125 352 125 c 0
 402 125 450 133 495 148 c 1
 520 18 l 1
 497 9 470 2 438 -2 c 0
 405 -8 373 -10 340 -10 c 0
 240 -10 163 13 110 60 c 0
 57 106 30 173 30 260 c 0
 30 344 54 410 102 458 c 0
 150 506 216 530 300 530 c 0
 382 530 446 507 492 462 c 0
 537 416 560 352 560 270 c 0
 560 238 559 215 556 200 c 1
246 383 m 0
 234 368 227 346 224 315 c 1
 376 315 l 1
 373 346 366 368 354 383 c 0
 341 398 323 405 300 405 c 0
 277 405 259 398 246 383 c 0
90 735 m 1
 510 735 l 1
 510 595 l 1
 90 595 l 1
 90 735 l 1
EndSplineSet
EndChar

StartChar: eogonek
Encoding: 281 281 258
Width: 588
Flags: W
LayerCount: 2
Fore
SplineSet
612 -182 m 1
 576 -195 534 -202 487 -202 c 0
 418 -202 365 -190 328 -166 c 0
 291 -142 272 -108 272 -64 c 0
 272 -44 276 -25 285 -7 c 1
 202 1 139 28 96 74 c 0
 52 119 30 181 30 260 c 0
 30 344 54 410 102 458 c 0
 150 506 216 530 300 530 c 0
 382 530 446 507 492 462 c 0
 537 416 560 352 560 270 c 0
 560 238 559 215 556 200 c 1
 223 200 l 1
 226 173 238 154 258 142 c 0
 279 131 310 125 352 125 c 0
 402 125 450 133 495 148 c 1
 520 18 l 1
 472 -1 448 -20 448 -39 c 0
 448 -48 452 -55 461 -60 c 0
 470 -65 482 -67 499 -67 c 0
 514 -67 530 -65 548 -62 c 0
 565 -58 582 -53 597 -47 c 1
 612 -182 l 1
246 383 m 0
 234 368 227 346 224 315 c 1
 376 315 l 1
 373 346 366 368 354 383 c 0
 341 398 323 405 300 405 c 0
 277 405 259 398 246 383 c 0
EndSplineSet
EndChar

StartChar: uni1EBD
Encoding: 7869 7869 259
Width: 588
Flags: W
LayerCount: 2
Fore
SplineSet
556 200 m 1
 223 200 l 1
 226 173 238 154 258 142 c 0
 279 131 310 125 352 125 c 0
 402 125 450 133 495 148 c 1
 520 18 l 1
 497 9 470 2 438 -2 c 0
 405 -8 373 -10 340 -10 c 0
 240 -10 163 13 110 60 c 0
 57 106 30 173 30 260 c 0
 30 344 54 410 102 458 c 0
 150 506 216 530 300 530 c 0
 382 530 446 507 492 462 c 0
 537 416 560 352 560 270 c 0
 560 238 559 215 556 200 c 1
246 383 m 0
 234 368 227 346 224 315 c 1
 376 315 l 1
 373 346 366 368 354 383 c 0
 341 398 323 405 300 405 c 0
 277 405 259 398 246 383 c 0
277 602 m 0
 252 617 233 625 220 625 c 0
 211 625 206 621 202 612 c 0
 200 604 198 587 198 560 c 1
 50 560 l 1
 50 635 60 690 80 726 c 0
 101 762 132 780 175 780 c 0
 218 780 267 763 323 728 c 0
 348 713 367 705 380 705 c 0
 389 705 394 709 398 718 c 0
 400 726 402 743 402 770 c 1
 550 770 l 1
 550 695 540 640 520 604 c 0
 499 568 468 550 425 550 c 0
 382 550 333 567 277 602 c 0
EndSplineSet
EndChar

StartChar: uni0259
Encoding: 601 601 260
Width: 588
Flags: W
LayerCount: 2
Fore
SplineSet
478 460 m 0
 531 414 558 347 558 260 c 0
 558 176 534 110 486 62 c 0
 438 14 372 -10 288 -10 c 0
 206 -10 142 13 96 58 c 0
 51 104 28 168 28 250 c 0
 28 282 29 305 32 320 c 1
 365 320 l 1
 362 347 350 366 330 378 c 0
 309 389 278 395 236 395 c 0
 186 395 138 387 93 372 c 1
 68 502 l 1
 91 511 118 518 150 522 c 0
 183 528 215 530 248 530 c 0
 348 530 425 507 478 460 c 0
342 137 m 0
 354 152 361 174 364 205 c 1
 212 205 l 1
 215 174 222 152 234 137 c 0
 247 122 265 115 288 115 c 0
 311 115 329 122 342 137 c 0
EndSplineSet
EndChar

StartChar: f
Encoding: 102 102 261
Width: 509
Flags: W
LayerCount: 2
Fore
SplineSet
18 380 m 1
 18 520 l 1
 138 520 l 1
 138 540 l 2
 138 611 157 666 194 704 c 0
 231 741 285 760 356 760 c 0
 396 760 441 755 491 745 c 1
 466 605 l 1
 439 615 414 620 391 620 c 0
 370 620 355 614 348 604 c 0
 340 592 336 571 336 540 c 2
 336 520 l 1
 481 520 l 1
 481 380 l 1
 336 380 l 1
 336 0 l 1
 138 0 l 1
 138 380 l 1
 18 380 l 1
EndSplineSet
EndChar

StartChar: g
Encoding: 103 103 262
Width: 638
Flags: W
LayerCount: 2
Fore
SplineSet
579 520 m 1
 579 60 l 2
 579 -32 553 -103 500 -154 c 0
 447 -205 373 -230 277 -230 c 0
 206 -230 130 -217 49 -190 c 1
 84 -60 l 1
 155 -80 210 -90 248 -90 c 0
 338 -90 383 -40 383 60 c 1
 381 60 l 1
 359 36 336 18 311 7 c 0
 286 -4 259 -10 228 -10 c 0
 165 -10 116 13 83 60 c 0
 50 106 33 173 33 260 c 0
 33 347 50 414 83 460 c 0
 116 507 165 530 228 530 c 0
 259 530 287 524 313 513 c 0
 339 502 364 484 389 460 c 1
 391 460 l 1
 393 520 l 1
 579 520 l 1
362 169 m 0
 376 188 383 215 383 250 c 2
 383 270 l 2
 383 305 376 332 362 351 c 0
 349 370 329 380 304 380 c 0
 278 380 258 370 245 350 c 0
 232 329 225 299 225 260 c 0
 225 221 232 191 245 170 c 0
 258 150 278 140 304 140 c 0
 329 140 349 150 362 169 c 0
EndSplineSet
EndChar

StartChar: gbreve
Encoding: 287 287 263
Width: 638
Flags: W
LayerCount: 2
Fore
SplineSet
579 520 m 1
 579 60 l 2
 579 -32 553 -103 500 -154 c 0
 447 -205 373 -230 277 -230 c 0
 206 -230 130 -217 49 -190 c 1
 84 -60 l 1
 155 -80 210 -90 248 -90 c 0
 338 -90 383 -40 383 60 c 1
 381 60 l 1
 359 36 336 18 311 7 c 0
 286 -4 259 -10 228 -10 c 0
 165 -10 116 13 83 60 c 0
 50 106 33 173 33 260 c 0
 33 347 50 414 83 460 c 0
 116 507 165 530 228 530 c 0
 259 530 287 524 313 513 c 0
 339 502 364 484 389 460 c 1
 391 460 l 1
 393 520 l 1
 579 520 l 1
362 169 m 0
 376 188 383 215 383 250 c 2
 383 270 l 2
 383 305 376 332 362 351 c 0
 349 370 329 380 304 380 c 0
 278 380 258 370 245 350 c 0
 232 329 225 299 225 260 c 0
 225 221 232 191 245 170 c 0
 258 150 278 140 304 140 c 0
 329 140 349 150 362 169 c 0
191 578 m 0
 153 598 123 624 102 657 c 0
 81 690 70 728 70 770 c 1
 240 770 l 1
 243 739 252 717 264 702 c 0
 278 687 296 680 320 680 c 0
 343 680 362 687 374 702 c 0
 388 717 396 739 400 770 c 1
 570 770 l 1
 570 728 559 690 538 657 c 0
 517 624 487 598 449 578 c 0
 411 560 368 550 320 550 c 0
 272 550 229 560 191 578 c 0
EndSplineSet
EndChar

StartChar: gcaron
Encoding: 487 487 264
Width: 638
Flags: W
LayerCount: 2
Fore
SplineSet
579 520 m 1
 579 60 l 2
 579 -32 553 -103 500 -154 c 0
 447 -205 373 -230 277 -230 c 0
 206 -230 130 -217 49 -190 c 1
 84 -60 l 1
 155 -80 210 -90 248 -90 c 0
 338 -90 383 -40 383 60 c 1
 381 60 l 1
 359 36 336 18 311 7 c 0
 286 -4 259 -10 228 -10 c 0
 165 -10 116 13 83 60 c 0
 50 106 33 173 33 260 c 0
 33 347 50 414 83 460 c 0
 116 507 165 530 228 530 c 0
 259 530 287 524 313 513 c 0
 339 502 364 484 389 460 c 1
 391 460 l 1
 393 520 l 1
 579 520 l 1
362 169 m 0
 376 188 383 215 383 250 c 2
 383 270 l 2
 383 305 376 332 362 351 c 0
 349 370 329 380 304 380 c 0
 278 380 258 370 245 350 c 0
 232 329 225 299 225 260 c 0
 225 221 232 191 245 170 c 0
 258 150 278 140 304 140 c 0
 329 140 349 150 362 169 c 0
50 770 m 1
 260 770 l 1
 319 630 l 1
 321 630 l 1
 380 770 l 1
 590 770 l 1
 470 560 l 1
 170 560 l 1
 50 770 l 1
EndSplineSet
EndChar

StartChar: gcircumflex
Encoding: 285 285 265
Width: 638
Flags: W
LayerCount: 2
Fore
SplineSet
579 520 m 1
 579 60 l 2
 579 -32 553 -103 500 -154 c 0
 447 -205 373 -230 277 -230 c 0
 206 -230 130 -217 49 -190 c 1
 84 -60 l 1
 155 -80 210 -90 248 -90 c 0
 338 -90 383 -40 383 60 c 1
 381 60 l 1
 359 36 336 18 311 7 c 0
 286 -4 259 -10 228 -10 c 0
 165 -10 116 13 83 60 c 0
 50 106 33 173 33 260 c 0
 33 347 50 414 83 460 c 0
 116 507 165 530 228 530 c 0
 259 530 287 524 313 513 c 0
 339 502 364 484 389 460 c 1
 391 460 l 1
 393 520 l 1
 579 520 l 1
362 169 m 0
 376 188 383 215 383 250 c 2
 383 270 l 2
 383 305 376 332 362 351 c 0
 349 370 329 380 304 380 c 0
 278 380 258 370 245 350 c 0
 232 329 225 299 225 260 c 0
 225 221 232 191 245 170 c 0
 258 150 278 140 304 140 c 0
 329 140 349 150 362 169 c 0
170 770 m 1
 470 770 l 1
 590 560 l 1
 380 560 l 1
 321 700 l 1
 319 700 l 1
 260 560 l 1
 50 560 l 1
 170 770 l 1
EndSplineSet
EndChar

StartChar: uni0123
Encoding: 291 291 266
Width: 638
Flags: W
LayerCount: 2
Fore
SplineSet
579 520 m 1
 579 60 l 2
 579 -32 553 -103 500 -154 c 0
 447 -205 373 -230 277 -230 c 0
 206 -230 130 -217 49 -190 c 1
 84 -60 l 1
 155 -80 210 -90 248 -90 c 0
 338 -90 383 -40 383 60 c 1
 381 60 l 1
 359 36 336 18 311 7 c 0
 286 -4 259 -10 228 -10 c 0
 165 -10 116 13 83 60 c 0
 50 106 33 173 33 260 c 0
 33 347 50 414 83 460 c 0
 116 507 165 530 228 530 c 0
 259 530 287 524 313 513 c 0
 339 502 364 484 389 460 c 1
 391 460 l 1
 393 520 l 1
 579 520 l 1
362 169 m 0
 376 188 383 215 383 250 c 2
 383 270 l 2
 383 305 376 332 362 351 c 0
 349 370 329 380 304 380 c 0
 278 380 258 370 245 350 c 0
 232 329 225 299 225 260 c 0
 225 221 232 191 245 170 c 0
 258 150 278 140 304 140 c 0
 329 140 349 150 362 169 c 0
295 770 m 1
 465 770 l 1
 405 560 l 1
 175 560 l 1
 295 770 l 1
EndSplineSet
EndChar

StartChar: gdotaccent
Encoding: 289 289 267
Width: 638
Flags: W
LayerCount: 2
Fore
SplineSet
579 520 m 1
 579 60 l 2
 579 -32 553 -103 500 -154 c 0
 447 -205 373 -230 277 -230 c 0
 206 -230 130 -217 49 -190 c 1
 84 -60 l 1
 155 -80 210 -90 248 -90 c 0
 338 -90 383 -40 383 60 c 1
 381 60 l 1
 359 36 336 18 311 7 c 0
 286 -4 259 -10 228 -10 c 0
 165 -10 116 13 83 60 c 0
 50 106 33 173 33 260 c 0
 33 347 50 414 83 460 c 0
 116 507 165 530 228 530 c 0
 259 530 287 524 313 513 c 0
 339 502 364 484 389 460 c 1
 391 460 l 1
 393 520 l 1
 579 520 l 1
362 169 m 0
 376 188 383 215 383 250 c 2
 383 270 l 2
 383 305 376 332 362 351 c 0
 349 370 329 380 304 380 c 0
 278 380 258 370 245 350 c 0
 232 329 225 299 225 260 c 0
 225 221 232 191 245 170 c 0
 258 150 278 140 304 140 c 0
 329 140 349 150 362 169 c 0
225 760 m 1
 415 760 l 1
 415 570 l 1
 225 570 l 1
 225 760 l 1
EndSplineSet
EndChar

StartChar: h
Encoding: 104 104 268
Width: 632
Flags: W
LayerCount: 2
Fore
SplineSet
538 480 m 0
 566 447 579 393 579 320 c 2
 579 0 l 1
 383 0 l 1
 383 280 l 2
 383 313 379 336 370 350 c 0
 362 363 348 370 329 370 c 0
 308 370 290 364 276 350 c 0
 262 338 255 321 255 300 c 2
 255 0 l 1
 59 0 l 1
 59 750 l 1
 255 750 l 1
 255 460 l 1
 257 460 l 1
 280 485 303 503 326 514 c 0
 349 525 377 530 409 530 c 0
 468 530 512 513 538 480 c 0
EndSplineSet
EndChar

StartChar: hbar
Encoding: 295 295 269
Width: 694
Flags: W
LayerCount: 2
Fore
SplineSet
600 480 m 0
 628 447 641 393 641 320 c 2
 641 0 l 1
 445 0 l 1
 445 280 l 2
 445 313 441 336 432 350 c 0
 424 363 410 370 391 370 c 0
 370 370 352 364 338 350 c 0
 324 338 317 321 317 300 c 2
 317 0 l 1
 121 0 l 1
 121 555 l 1
 21 555 l 1
 21 695 l 1
 121 695 l 1
 121 750 l 1
 317 750 l 1
 317 695 l 1
 441 695 l 1
 441 555 l 1
 317 555 l 1
 317 460 l 1
 319 460 l 1
 342 485 365 503 388 514 c 0
 411 525 439 530 471 530 c 0
 530 530 574 513 600 480 c 0
EndSplineSet
EndChar

StartChar: hcircumflex
Encoding: 293 293 270
Width: 632
Flags: W
LayerCount: 2
Fore
SplineSet
538 480 m 0
 566 447 579 393 579 320 c 2
 579 0 l 1
 383 0 l 1
 383 280 l 2
 383 313 379 336 370 350 c 0
 362 363 348 370 329 370 c 0
 308 370 290 364 276 350 c 0
 262 338 255 321 255 300 c 2
 255 0 l 1
 59 0 l 1
 59 750 l 1
 255 750 l 1
 255 460 l 1
 257 460 l 1
 280 485 303 503 326 514 c 0
 349 525 377 530 409 530 c 0
 468 530 512 513 538 480 c 0
160 1000 m 1
 460 1000 l 1
 580 790 l 1
 370 790 l 1
 311 930 l 1
 309 930 l 1
 250 790 l 1
 40 790 l 1
 160 1000 l 1
EndSplineSet
EndChar

StartChar: i
Encoding: 105 105 271
Width: 330
Flags: W
LayerCount: 2
Fore
SplineSet
65 750 m 1
 265 750 l 1
 265 590 l 1
 65 590 l 1
 65 750 l 1
65 520 m 1
 265 520 l 1
 265 0 l 1
 65 0 l 1
 65 520 l 1
EndSplineSet
EndChar

StartChar: dotlessi
Encoding: 305 305 272
Width: 330
Flags: W
LayerCount: 2
Fore
SplineSet
65 520 m 1
 265 520 l 1
 265 0 l 1
 65 0 l 1
 65 520 l 1
EndSplineSet
EndChar

StartChar: iacute
Encoding: 237 237 273
Width: 330
Flags: W
LayerCount: 2
Fore
SplineSet
65 520 m 1
 265 520 l 1
 265 0 l 1
 65 0 l 1
 65 520 l 1
221 560 m 1
 51 560 l 1
 111 770 l 1
 341 770 l 1
 221 560 l 1
EndSplineSet
EndChar

StartChar: ibreve
Encoding: 301 301 274
Width: 330
Flags: W
LayerCount: 2
Fore
SplineSet
65 520 m 1
 265 520 l 1
 265 0 l 1
 65 0 l 1
 65 520 l 1
36 578 m 0
 -2 598 -32 624 -53 657 c 0
 -74 690 -85 728 -85 770 c 1
 85 770 l 1
 88 739 96 717 110 702 c 0
 122 687 141 680 165 680 c 0
 188 680 206 687 220 702 c 0
 232 717 241 739 245 770 c 1
 415 770 l 1
 415 728 404 690 383 657 c 0
 362 624 332 598 294 578 c 0
 256 560 213 550 165 550 c 0
 117 550 74 560 36 578 c 0
EndSplineSet
EndChar

StartChar: icircumflex
Encoding: 238 238 275
Width: 330
Flags: W
LayerCount: 2
Fore
SplineSet
65 520 m 1
 265 520 l 1
 265 0 l 1
 65 0 l 1
 65 520 l 1
15 770 m 1
 315 770 l 1
 435 560 l 1
 225 560 l 1
 166 700 l 1
 164 700 l 1
 105 560 l 1
 -105 560 l 1
 15 770 l 1
EndSplineSet
EndChar

StartChar: uni0209
Encoding: 521 521 276
Width: 330
Flags: W
LayerCount: 2
Fore
SplineSet
65 520 m 1
 265 520 l 1
 265 0 l 1
 65 0 l 1
 65 520 l 1
-149 770 m 1
 81 770 l 1
 141 560 l 1
 -29 560 l 1
 -149 770 l 1
121 770 m 1
 351 770 l 1
 411 560 l 1
 241 560 l 1
 121 770 l 1
EndSplineSet
EndChar

StartChar: idieresis
Encoding: 239 239 277
Width: 330
Flags: W
LayerCount: 2
Fore
SplineSet
65 520 m 1
 265 520 l 1
 265 0 l 1
 65 0 l 1
 65 520 l 1
-65 760 m 1
 125 760 l 1
 125 570 l 1
 -65 570 l 1
 -65 760 l 1
205 760 m 1
 395 760 l 1
 395 570 l 1
 205 570 l 1
 205 760 l 1
EndSplineSet
EndChar

StartChar: i.loclTRK
Encoding: 1114113 -1 278
Width: 330
Flags: W
LayerCount: 2
Fore
SplineSet
65 520 m 1
 265 520 l 1
 265 0 l 1
 65 0 l 1
 65 520 l 1
70 760 m 1
 260 760 l 1
 260 570 l 1
 70 570 l 1
 70 760 l 1
EndSplineSet
EndChar

StartChar: uni1ECB
Encoding: 7883 7883 279
Width: 330
Flags: W
LayerCount: 2
Fore
SplineSet
65 750 m 1
 265 750 l 1
 265 590 l 1
 65 590 l 1
 65 750 l 1
65 520 m 1
 265 520 l 1
 265 0 l 1
 65 0 l 1
 65 520 l 1
70 -50 m 1
 260 -50 l 1
 260 -240 l 1
 70 -240 l 1
 70 -50 l 1
EndSplineSet
EndChar

StartChar: igrave
Encoding: 236 236 280
Width: 330
Flags: W
LayerCount: 2
Fore
SplineSet
65 520 m 1
 265 520 l 1
 265 0 l 1
 65 0 l 1
 65 520 l 1
-11 770 m 1
 219 770 l 1
 279 560 l 1
 109 560 l 1
 -11 770 l 1
EndSplineSet
EndChar

StartChar: uni1EC9
Encoding: 7881 7881 281
Width: 330
Flags: W
LayerCount: 2
Fore
SplineSet
65 520 m 1
 265 520 l 1
 265 0 l 1
 65 0 l 1
 65 520 l 1
185 620 m 0
 185 632 182 640 176 644 c 0
 170 648 158 650 140 650 c 0
 117 650 92 648 64 644 c 0
 37 639 10 633 -15 625 c 1
 -30 760 l 1
 -2 766 30 771 66 774 c 0
 101 778 134 780 165 780 c 0
 217 780 257 777 284 772 c 0
 312 766 332 756 343 743 c 0
 354 730 360 710 360 685 c 0
 360 666 358 645 353 622 c 0
 348 599 342 578 335 560 c 1
 175 560 l 1
 182 585 185 605 185 620 c 0
EndSplineSet
EndChar

StartChar: uni020B
Encoding: 523 523 282
Width: 330
Flags: W
LayerCount: 2
Fore
SplineSet
65 520 m 1
 265 520 l 1
 265 0 l 1
 65 0 l 1
 65 520 l 1
294 752 m 0
 332 732 362 706 383 673 c 0
 404 640 415 602 415 560 c 1
 245 560 l 1
 241 591 232 613 220 628 c 0
 206 643 188 650 165 650 c 0
 141 650 122 643 110 628 c 0
 96 613 88 591 85 560 c 1
 -85 560 l 1
 -85 602 -74 640 -53 673 c 0
 -32 706 -2 732 36 752 c 0
 74 770 117 780 165 780 c 0
 213 780 256 770 294 752 c 0
EndSplineSet
EndChar

StartChar: imacron
Encoding: 299 299 283
Width: 330
Flags: W
LayerCount: 2
Fore
SplineSet
65 520 m 1
 265 520 l 1
 265 0 l 1
 65 0 l 1
 65 520 l 1
-45 735 m 1
 375 735 l 1
 375 595 l 1
 -45 595 l 1
 -45 735 l 1
EndSplineSet
EndChar

StartChar: iogonek
Encoding: 303 303 284
Width: 330
Flags: W
LayerCount: 2
Fore
SplineSet
260 760 m 1
 260 570 l 1
 70 570 l 1
 70 760 l 1
 260 760 l 1
357 -200 m 1
 321 -213 279 -220 232 -220 c 0
 163 -220 110 -208 73 -184 c 0
 36 -160 17 -126 17 -82 c 0
 17 -63 21 -45 28 -28 c 0
 36 -11 48 7 65 25 c 1
 65 520 l 1
 265 520 l 1
 265 0 l 1
 217 -19 193 -38 193 -57 c 0
 193 -66 197 -73 206 -78 c 0
 215 -83 227 -85 244 -85 c 0
 259 -85 275 -83 292 -80 c 0
 310 -76 327 -71 342 -65 c 1
 357 -200 l 1
EndSplineSet
EndChar

StartChar: itilde
Encoding: 297 297 285
Width: 330
Flags: W
LayerCount: 2
Fore
SplineSet
65 520 m 1
 265 520 l 1
 265 0 l 1
 65 0 l 1
 65 520 l 1
142 602 m 0
 117 617 98 625 85 625 c 0
 76 625 70 621 68 612 c 0
 64 604 63 587 63 560 c 1
 -85 560 l 1
 -85 635 -75 690 -54 726 c 0
 -34 762 -3 780 40 780 c 0
 83 780 132 763 188 728 c 0
 213 713 232 705 245 705 c 0
 254 705 260 709 262 718 c 0
 266 726 267 743 267 770 c 1
 415 770 l 1
 415 695 405 640 384 604 c 0
 364 568 333 550 290 550 c 0
 247 550 198 567 142 602 c 0
EndSplineSet
EndChar

StartChar: j
Encoding: 106 106 286
Width: 375
Flags: W
LayerCount: 2
Fore
SplineSet
110 750 m 1
 310 750 l 1
 310 590 l 1
 110 590 l 1
 110 750 l 1
54 -77 m 0
 77 -72 92 -61 99 -44 c 0
 106 -28 110 0 110 40 c 2
 110 520 l 1
 310 520 l 1
 310 40 l 2
 310 -31 299 -85 278 -124 c 0
 256 -162 219 -189 168 -206 c 0
 117 -222 44 -230 -50 -230 c 1
 -60 -85 l 1
 -6 -85 32 -82 54 -77 c 0
EndSplineSet
EndChar

StartChar: uni0237
Encoding: 567 567 287
Width: 375
Flags: W
LayerCount: 2
Fore
SplineSet
54 -77 m 0
 77 -72 92 -61 99 -44 c 0
 106 -28 110 0 110 40 c 2
 110 520 l 1
 310 520 l 1
 310 40 l 2
 310 -31 299 -85 278 -124 c 0
 256 -162 219 -189 168 -206 c 0
 117 -222 44 -230 -50 -230 c 1
 -60 -85 l 1
 -6 -85 32 -82 54 -77 c 0
EndSplineSet
EndChar

StartChar: jcircumflex
Encoding: 309 309 288
Width: 375
Flags: W
LayerCount: 2
Fore
SplineSet
54 -77 m 0
 77 -72 92 -61 99 -44 c 0
 106 -28 110 0 110 40 c 2
 110 520 l 1
 310 520 l 1
 310 40 l 2
 310 -31 299 -85 278 -124 c 0
 256 -162 219 -189 168 -206 c 0
 117 -222 44 -230 -50 -230 c 1
 -60 -85 l 1
 -6 -85 32 -82 54 -77 c 0
38 770 m 1
 338 770 l 1
 458 560 l 1
 248 560 l 1
 189 700 l 1
 187 700 l 1
 128 560 l 1
 -82 560 l 1
 38 770 l 1
EndSplineSet
EndChar

StartChar: k
Encoding: 107 107 289
Width: 631
Flags: W
LayerCount: 2
Fore
SplineSet
59 750 m 1
 255 750 l 1
 255 325 l 1
 257 325 l 1
 389 520 l 1
 614 520 l 1
 419 270 l 1
 619 0 l 1
 394 0 l 1
 257 215 l 1
 255 215 l 1
 255 0 l 1
 59 0 l 1
 59 750 l 1
EndSplineSet
EndChar

StartChar: uni0137
Encoding: 311 311 290
Width: 631
Flags: W
LayerCount: 2
Fore
SplineSet
59 750 m 1
 255 750 l 1
 255 325 l 1
 257 325 l 1
 389 520 l 1
 614 520 l 1
 419 270 l 1
 619 0 l 1
 394 0 l 1
 257 215 l 1
 255 215 l 1
 255 0 l 1
 59 0 l 1
 59 750 l 1
325 -250 m 1
 155 -250 l 1
 215 -40 l 1
 445 -40 l 1
 325 -250 l 1
EndSplineSet
EndChar

StartChar: kgreenlandic
Encoding: 312 312 291
Width: 631
Flags: W
LayerCount: 2
Fore
SplineSet
59 520 m 1
 255 520 l 1
 255 325 l 1
 257 325 l 1
 389 520 l 1
 614 520 l 1
 419 270 l 1
 619 0 l 1
 394 0 l 1
 257 215 l 1
 255 215 l 1
 255 0 l 1
 59 0 l 1
 59 520 l 1
EndSplineSet
EndChar

StartChar: l
Encoding: 108 108 292
Width: 442
Flags: W
LayerCount: 2
Fore
SplineSet
266 750 m 1
 266 210 l 2
 266 178 270 157 276 146 c 0
 284 135 297 130 316 130 c 0
 345 130 375 135 406 145 c 1
 426 10 l 1
 377 -3 323 -10 266 -10 c 0
 197 -10 147 5 114 36 c 0
 82 66 66 114 66 180 c 2
 66 750 l 1
 266 750 l 1
EndSplineSet
EndChar

StartChar: lacute
Encoding: 314 314 293
Width: 442
Flags: W
LayerCount: 2
Fore
SplineSet
266 750 m 1
 266 210 l 2
 266 178 270 157 276 146 c 0
 284 135 297 130 316 130 c 0
 345 130 375 135 406 145 c 1
 426 10 l 1
 377 -3 323 -10 266 -10 c 0
 197 -10 147 5 114 36 c 0
 82 66 66 114 66 180 c 2
 66 750 l 1
 266 750 l 1
221 790 m 1
 51 790 l 1
 111 1000 l 1
 341 1000 l 1
 221 790 l 1
EndSplineSet
EndChar

StartChar: lcaron
Encoding: 318 318 294
Width: 571
Flags: W
LayerCount: 2
Fore
SplineSet
266 750 m 1
 266 210 l 2
 266 178 270 157 276 146 c 0
 284 135 297 130 316 130 c 0
 345 130 375 135 406 145 c 1
 426 10 l 1
 377 -3 323 -10 266 -10 c 0
 197 -10 147 5 114 36 c 0
 82 66 66 114 66 180 c 2
 66 750 l 1
 266 750 l 1
356 770 m 1
 566 770 l 1
 446 470 l 1
 296 470 l 1
 356 770 l 1
EndSplineSet
EndChar

StartChar: uni013C
Encoding: 316 316 295
Width: 442
Flags: W
LayerCount: 2
Fore
SplineSet
266 750 m 1
 266 210 l 2
 266 178 270 157 276 146 c 0
 284 135 297 130 316 130 c 0
 345 130 375 135 406 145 c 1
 426 10 l 1
 377 -3 323 -10 266 -10 c 0
 197 -10 147 5 114 36 c 0
 82 66 66 114 66 180 c 2
 66 750 l 1
 266 750 l 1
260 -250 m 1
 90 -250 l 1
 150 -40 l 1
 380 -40 l 1
 260 -250 l 1
EndSplineSet
EndChar

StartChar: ldot
Encoding: 320 320 296
Width: 570
Flags: W
LayerCount: 2
Fore
SplineSet
266 750 m 1
 266 210 l 2
 266 178 270 157 276 146 c 0
 284 135 297 130 316 130 c 0
 345 130 375 135 406 145 c 1
 426 10 l 1
 377 -3 323 -10 266 -10 c 0
 197 -10 147 5 114 36 c 0
 82 66 66 114 66 180 c 2
 66 750 l 1
 266 750 l 1
323 475 m 1
 523 475 l 1
 523 275 l 1
 323 275 l 1
 323 475 l 1
EndSplineSet
EndChar

StartChar: uni01C9
Encoding: 457 457 297
Width: 699
Flags: W
LayerCount: 2
Fore
SplineSet
266 750 m 1
 266 210 l 2
 266 178 270 157 276 146 c 0
 284 135 297 130 316 130 c 0
 345 130 375 135 406 145 c 1
 426 10 l 1
 377 -3 323 -10 266 -10 c 0
 197 -10 147 5 114 36 c 0
 82 66 66 114 66 180 c 2
 66 750 l 1
 266 750 l 1
434 750 m 1
 634 750 l 1
 634 590 l 1
 434 590 l 1
 434 750 l 1
378 -77 m 0
 401 -72 416 -61 423 -44 c 0
 430 -28 434 0 434 40 c 2
 434 520 l 1
 634 520 l 1
 634 40 l 2
 634 -31 623 -85 602 -124 c 0
 580 -162 543 -189 492 -206 c 0
 441 -222 368 -230 274 -230 c 1
 264 -85 l 1
 318 -85 356 -82 378 -77 c 0
EndSplineSet
EndChar

StartChar: lslash
Encoding: 322 322 298
Width: 538
Flags: W
LayerCount: 2
Fore
SplineSet
531 393 m 1
 62 207 l 1
 7 337 l 1
 476 523 l 1
 531 393 l 1
369 750 m 1
 369 210 l 2
 369 178 372 157 380 146 c 0
 386 135 400 130 419 130 c 0
 448 130 478 135 509 145 c 1
 529 10 l 1
 480 -3 426 -10 369 -10 c 0
 300 -10 250 5 218 36 c 0
 185 66 169 114 169 180 c 2
 169 750 l 1
 369 750 l 1
EndSplineSet
EndChar

StartChar: m
Encoding: 109 109 299
Width: 880
Flags: W
LayerCount: 2
Fore
SplineSet
791 480 m 0
 815 447 827 393 827 320 c 2
 827 0 l 1
 635 0 l 1
 635 280 l 2
 635 313 632 336 626 350 c 0
 620 363 610 370 595 370 c 0
 579 370 566 363 555 350 c 0
 544 337 539 320 539 300 c 2
 539 0 l 1
 347 0 l 1
 347 280 l 2
 347 313 344 336 338 350 c 0
 332 363 322 370 307 370 c 0
 291 370 278 363 267 350 c 0
 256 337 251 320 251 300 c 2
 251 0 l 1
 59 0 l 1
 59 520 l 1
 241 520 l 1
 243 460 l 1
 245 460 l 1
 266 485 287 502 310 514 c 0
 333 524 359 530 388 530 c 0
 450 530 492 507 515 460 c 1
 517 460 l 1
 540 485 564 502 590 514 c 0
 614 524 643 530 676 530 c 0
 729 530 767 513 791 480 c 0
EndSplineSet
EndChar

StartChar: n
Encoding: 110 110 300
Width: 632
Flags: W
LayerCount: 2
Fore
SplineSet
538 480 m 0
 566 447 579 393 579 320 c 2
 579 0 l 1
 383 0 l 1
 383 280 l 2
 383 313 379 336 370 350 c 0
 362 363 348 370 329 370 c 0
 308 370 290 364 276 350 c 0
 262 338 255 321 255 300 c 2
 255 0 l 1
 59 0 l 1
 59 520 l 1
 245 520 l 1
 247 460 l 1
 249 460 l 1
 272 485 297 502 322 514 c 0
 347 524 376 530 409 530 c 0
 468 530 512 513 538 480 c 0
EndSplineSet
EndChar

StartChar: nacute
Encoding: 324 324 301
Width: 632
Flags: W
LayerCount: 2
Fore
SplineSet
538 480 m 0
 566 447 579 393 579 320 c 2
 579 0 l 1
 383 0 l 1
 383 280 l 2
 383 313 379 336 370 350 c 0
 362 363 348 370 329 370 c 0
 308 370 290 364 276 350 c 0
 262 338 255 321 255 300 c 2
 255 0 l 1
 59 0 l 1
 59 520 l 1
 245 520 l 1
 247 460 l 1
 249 460 l 1
 272 485 297 502 322 514 c 0
 347 524 376 530 409 530 c 0
 468 530 512 513 538 480 c 0
372 560 m 1
 202 560 l 1
 262 770 l 1
 492 770 l 1
 372 560 l 1
EndSplineSet
EndChar

StartChar: ncaron
Encoding: 328 328 302
Width: 632
Flags: W
LayerCount: 2
Fore
SplineSet
538 480 m 0
 566 447 579 393 579 320 c 2
 579 0 l 1
 383 0 l 1
 383 280 l 2
 383 313 379 336 370 350 c 0
 362 363 348 370 329 370 c 0
 308 370 290 364 276 350 c 0
 262 338 255 321 255 300 c 2
 255 0 l 1
 59 0 l 1
 59 520 l 1
 245 520 l 1
 247 460 l 1
 249 460 l 1
 272 485 297 502 322 514 c 0
 347 524 376 530 409 530 c 0
 468 530 512 513 538 480 c 0
46 770 m 1
 256 770 l 1
 315 630 l 1
 317 630 l 1
 376 770 l 1
 586 770 l 1
 466 560 l 1
 166 560 l 1
 46 770 l 1
EndSplineSet
EndChar

StartChar: uni0146
Encoding: 326 326 303
Width: 632
Flags: W
LayerCount: 2
Fore
SplineSet
538 480 m 0
 566 447 579 393 579 320 c 2
 579 0 l 1
 383 0 l 1
 383 280 l 2
 383 313 379 336 370 350 c 0
 362 363 348 370 329 370 c 0
 308 370 290 364 276 350 c 0
 262 338 255 321 255 300 c 2
 255 0 l 1
 59 0 l 1
 59 520 l 1
 245 520 l 1
 247 460 l 1
 249 460 l 1
 272 485 297 502 322 514 c 0
 347 524 376 530 409 530 c 0
 468 530 512 513 538 480 c 0
341 -250 m 1
 171 -250 l 1
 231 -40 l 1
 461 -40 l 1
 341 -250 l 1
EndSplineSet
EndChar

StartChar: eng
Encoding: 331 331 304
Width: 632
Flags: W
LayerCount: 2
Fore
SplineSet
538 480 m 0
 566 447 579 393 579 320 c 2
 579 0 l 2
 578 -57 571 -102 557 -134 c 0
 543 -168 521 -192 490 -206 c 0
 460 -222 419 -229 367 -229 c 0
 323 -229 274 -224 221 -214 c 1
 241 -59 l 1
 270 -66 298 -70 324 -70 c 0
 347 -70 362 -64 370 -54 c 0
 379 -42 383 -21 383 10 c 2
 383 280 l 2
 383 313 379 336 370 350 c 0
 362 363 348 370 329 370 c 0
 308 370 290 364 276 350 c 0
 262 338 255 321 255 300 c 2
 255 0 l 1
 59 0 l 1
 59 520 l 1
 245 520 l 1
 247 460 l 1
 249 460 l 1
 272 485 297 502 322 514 c 0
 347 524 376 530 409 530 c 0
 468 530 512 513 538 480 c 0
EndSplineSet
EndChar

StartChar: uni01CC
Encoding: 460 460 305
Width: 1007
Flags: W
LayerCount: 2
Fore
SplineSet
538 480 m 0
 566 447 579 393 579 320 c 2
 579 0 l 1
 383 0 l 1
 383 280 l 2
 383 313 379 336 370 350 c 0
 362 363 348 370 329 370 c 0
 308 370 290 364 276 350 c 0
 262 338 255 321 255 300 c 2
 255 0 l 1
 59 0 l 1
 59 520 l 1
 245 520 l 1
 247 460 l 1
 249 460 l 1
 272 485 297 502 322 514 c 0
 347 524 376 530 409 530 c 0
 468 530 512 513 538 480 c 0
742 750 m 1
 942 750 l 1
 942 590 l 1
 742 590 l 1
 742 750 l 1
686 -77 m 0
 709 -72 724 -61 731 -44 c 0
 738 -28 742 0 742 40 c 2
 742 520 l 1
 942 520 l 1
 942 40 l 2
 942 -31 931 -85 910 -124 c 0
 888 -162 851 -189 800 -206 c 0
 749 -222 676 -230 582 -230 c 1
 572 -85 l 1
 626 -85 664 -82 686 -77 c 0
EndSplineSet
EndChar

StartChar: ntilde
Encoding: 241 241 306
Width: 632
Flags: W
LayerCount: 2
Fore
SplineSet
538 480 m 0
 566 447 579 393 579 320 c 2
 579 0 l 1
 383 0 l 1
 383 280 l 2
 383 313 379 336 370 350 c 0
 362 363 348 370 329 370 c 0
 308 370 290 364 276 350 c 0
 262 338 255 321 255 300 c 2
 255 0 l 1
 59 0 l 1
 59 520 l 1
 245 520 l 1
 247 460 l 1
 249 460 l 1
 272 485 297 502 322 514 c 0
 347 524 376 530 409 530 c 0
 468 530 512 513 538 480 c 0
293 602 m 0
 268 617 249 625 236 625 c 0
 227 625 222 621 218 612 c 0
 216 604 214 587 214 560 c 1
 66 560 l 1
 66 635 76 690 96 726 c 0
 117 762 148 780 191 780 c 0
 234 780 283 763 339 728 c 0
 364 713 383 705 396 705 c 0
 405 705 410 709 414 718 c 0
 416 726 418 743 418 770 c 1
 566 770 l 1
 566 695 556 640 536 604 c 0
 515 568 484 550 441 550 c 0
 398 550 349 567 293 602 c 0
EndSplineSet
EndChar

StartChar: o
Encoding: 111 111 307
Width: 610
Flags: W
LayerCount: 2
Fore
SplineSet
100 59 m 0
 53 105 30 172 30 260 c 0
 30 348 53 415 100 461 c 0
 147 507 215 530 305 530 c 0
 394 530 462 507 510 461 c 0
 556 415 580 348 580 260 c 0
 580 172 556 105 510 59 c 0
 462 13 394 -10 305 -10 c 0
 215 -10 147 13 100 59 c 0
365 162 m 0
 378 182 384 215 384 260 c 0
 384 305 378 338 365 358 c 0
 352 380 332 390 305 390 c 0
 278 390 258 380 245 358 c 0
 232 338 226 305 226 260 c 0
 226 215 232 182 245 162 c 0
 258 140 278 130 305 130 c 0
 332 130 352 140 365 162 c 0
EndSplineSet
EndChar

StartChar: oacute
Encoding: 243 243 308
Width: 610
Flags: W
LayerCount: 2
Fore
SplineSet
100 59 m 0
 53 105 30 172 30 260 c 0
 30 348 53 415 100 461 c 0
 147 507 215 530 305 530 c 0
 394 530 462 507 510 461 c 0
 556 415 580 348 580 260 c 0
 580 172 556 105 510 59 c 0
 462 13 394 -10 305 -10 c 0
 215 -10 147 13 100 59 c 0
365 162 m 0
 378 182 384 215 384 260 c 0
 384 305 378 338 365 358 c 0
 352 380 332 390 305 390 c 0
 278 390 258 380 245 358 c 0
 232 338 226 305 226 260 c 0
 226 215 232 182 245 162 c 0
 258 140 278 130 305 130 c 0
 332 130 352 140 365 162 c 0
360 560 m 1
 190 560 l 1
 250 770 l 1
 480 770 l 1
 360 560 l 1
EndSplineSet
EndChar

StartChar: obreve
Encoding: 335 335 309
Width: 610
Flags: W
LayerCount: 2
Fore
SplineSet
100 59 m 0
 53 105 30 172 30 260 c 0
 30 348 53 415 100 461 c 0
 147 507 215 530 305 530 c 0
 394 530 462 507 510 461 c 0
 556 415 580 348 580 260 c 0
 580 172 556 105 510 59 c 0
 462 13 394 -10 305 -10 c 0
 215 -10 147 13 100 59 c 0
365 162 m 0
 378 182 384 215 384 260 c 0
 384 305 378 338 365 358 c 0
 352 380 332 390 305 390 c 0
 278 390 258 380 245 358 c 0
 232 338 226 305 226 260 c 0
 226 215 232 182 245 162 c 0
 258 140 278 130 305 130 c 0
 332 130 352 140 365 162 c 0
175 578 m 0
 137 598 107 624 86 657 c 0
 65 690 54 728 54 770 c 1
 224 770 l 1
 227 739 236 717 248 702 c 0
 262 687 280 680 304 680 c 0
 327 680 346 687 358 702 c 0
 372 717 380 739 384 770 c 1
 554 770 l 1
 554 728 543 690 522 657 c 0
 501 624 471 598 433 578 c 0
 395 560 352 550 304 550 c 0
 256 550 213 560 175 578 c 0
EndSplineSet
EndChar

StartChar: ocircumflex
Encoding: 244 244 310
Width: 610
Flags: W
LayerCount: 2
Fore
SplineSet
100 59 m 0
 53 105 30 172 30 260 c 0
 30 348 53 415 100 461 c 0
 147 507 215 530 305 530 c 0
 394 530 462 507 510 461 c 0
 556 415 580 348 580 260 c 0
 580 172 556 105 510 59 c 0
 462 13 394 -10 305 -10 c 0
 215 -10 147 13 100 59 c 0
365 162 m 0
 378 182 384 215 384 260 c 0
 384 305 378 338 365 358 c 0
 352 380 332 390 305 390 c 0
 278 390 258 380 245 358 c 0
 232 338 226 305 226 260 c 0
 226 215 232 182 245 162 c 0
 258 140 278 130 305 130 c 0
 332 130 352 140 365 162 c 0
154 770 m 1
 454 770 l 1
 574 560 l 1
 364 560 l 1
 305 700 l 1
 303 700 l 1
 244 560 l 1
 34 560 l 1
 154 770 l 1
EndSplineSet
EndChar

StartChar: uni1ED1
Encoding: 7889 7889 311
Width: 610
Flags: W
LayerCount: 2
Fore
SplineSet
484 950 m 1
 714 950 l 1
 594 740 l 1
 471 740 l 1
 574 560 l 1
 364 560 l 1
 305 700 l 1
 303 700 l 1
 244 560 l 1
 34 560 l 1
 154 770 l 1
 433 770 l 1
 484 950 l 1
510 461 m 0
 556 415 580 348 580 260 c 0
 580 172 556 105 510 59 c 0
 462 13 394 -10 305 -10 c 0
 215 -10 147 13 100 59 c 0
 53 105 30 172 30 260 c 0
 30 348 53 415 100 461 c 0
 147 507 215 530 305 530 c 0
 394 530 462 507 510 461 c 0
365 162 m 0
 378 182 384 215 384 260 c 0
 384 305 378 338 365 358 c 0
 352 380 332 390 305 390 c 0
 278 390 258 380 245 358 c 0
 232 338 226 305 226 260 c 0
 226 215 232 182 245 162 c 0
 258 140 278 130 305 130 c 0
 332 130 352 140 365 162 c 0
EndSplineSet
EndChar

StartChar: uni1ED9
Encoding: 7897 7897 312
Width: 610
Flags: W
LayerCount: 2
Fore
SplineSet
100 59 m 0
 53 105 30 172 30 260 c 0
 30 348 53 415 100 461 c 0
 147 507 215 530 305 530 c 0
 394 530 462 507 510 461 c 0
 556 415 580 348 580 260 c 0
 580 172 556 105 510 59 c 0
 462 13 394 -10 305 -10 c 0
 215 -10 147 13 100 59 c 0
365 162 m 0
 378 182 384 215 384 260 c 0
 384 305 378 338 365 358 c 0
 352 380 332 390 305 390 c 0
 278 390 258 380 245 358 c 0
 232 338 226 305 226 260 c 0
 226 215 232 182 245 162 c 0
 258 140 278 130 305 130 c 0
 332 130 352 140 365 162 c 0
209 -50 m 1
 399 -50 l 1
 399 -240 l 1
 209 -240 l 1
 209 -50 l 1
154 770 m 1
 454 770 l 1
 574 560 l 1
 364 560 l 1
 305 700 l 1
 303 700 l 1
 244 560 l 1
 34 560 l 1
 154 770 l 1
EndSplineSet
EndChar

StartChar: uni1ED3
Encoding: 7891 7891 313
Width: 610
Flags: W
LayerCount: 2
Fore
SplineSet
34 560 m 1
 137 740 l 1
 14 740 l 1
 -106 950 l 1
 124 950 l 1
 175 770 l 1
 454 770 l 1
 574 560 l 1
 364 560 l 1
 305 700 l 1
 303 700 l 1
 244 560 l 1
 34 560 l 1
510 461 m 0
 556 415 580 348 580 260 c 0
 580 172 556 105 510 59 c 0
 462 13 394 -10 305 -10 c 0
 215 -10 147 13 100 59 c 0
 53 105 30 172 30 260 c 0
 30 348 53 415 100 461 c 0
 147 507 215 530 305 530 c 0
 394 530 462 507 510 461 c 0
365 162 m 0
 378 182 384 215 384 260 c 0
 384 305 378 338 365 358 c 0
 352 380 332 390 305 390 c 0
 278 390 258 380 245 358 c 0
 232 338 226 305 226 260 c 0
 226 215 232 182 245 162 c 0
 258 140 278 130 305 130 c 0
 332 130 352 140 365 162 c 0
EndSplineSet
EndChar

StartChar: uni1ED5
Encoding: 7893 7893 314
Width: 610
Flags: W
LayerCount: 2
Fore
SplineSet
538 952 m 0
 565 946 585 936 596 923 c 0
 607 910 613 890 613 865 c 0
 613 846 611 825 606 802 c 0
 601 779 595 758 588 740 c 1
 471 740 l 1
 574 560 l 1
 364 560 l 1
 305 700 l 1
 303 700 l 1
 244 560 l 1
 34 560 l 1
 154 770 l 1
 435 770 l 1
 437 781 438 791 438 800 c 0
 438 812 435 820 429 824 c 0
 423 828 411 830 393 830 c 0
 370 830 345 828 318 824 c 0
 290 819 263 813 238 805 c 1
 223 940 l 1
 251 946 283 951 318 954 c 0
 354 958 387 960 418 960 c 0
 470 960 510 957 538 952 c 0
510 461 m 0
 556 415 580 348 580 260 c 0
 580 172 556 105 510 59 c 0
 462 13 394 -10 305 -10 c 0
 215 -10 147 13 100 59 c 0
 53 105 30 172 30 260 c 0
 30 348 53 415 100 461 c 0
 147 507 215 530 305 530 c 0
 394 530 462 507 510 461 c 0
365 162 m 0
 378 182 384 215 384 260 c 0
 384 305 378 338 365 358 c 0
 352 380 332 390 305 390 c 0
 278 390 258 380 245 358 c 0
 232 338 226 305 226 260 c 0
 226 215 232 182 245 162 c 0
 258 140 278 130 305 130 c 0
 332 130 352 140 365 162 c 0
EndSplineSet
EndChar

StartChar: uni1ED7
Encoding: 7895 7895 315
Width: 610
Flags: W
LayerCount: 2
Fore
SplineSet
100 59 m 0
 53 105 30 172 30 260 c 0
 30 348 53 415 100 461 c 0
 147 507 215 530 305 530 c 0
 394 530 462 507 510 461 c 0
 556 415 580 348 580 260 c 0
 580 172 556 105 510 59 c 0
 462 13 394 -10 305 -10 c 0
 215 -10 147 13 100 59 c 0
365 162 m 0
 378 182 384 215 384 260 c 0
 384 305 378 338 365 358 c 0
 352 380 332 390 305 390 c 0
 278 390 258 380 245 358 c 0
 232 338 226 305 226 260 c 0
 226 215 232 182 245 162 c 0
 258 140 278 130 305 130 c 0
 332 130 352 140 365 162 c 0
154 770 m 1
 454 770 l 1
 574 560 l 1
 364 560 l 1
 305 700 l 1
 303 700 l 1
 244 560 l 1
 34 560 l 1
 154 770 l 1
281 852 m 0
 256 867 237 875 224 875 c 0
 215 875 210 871 206 862 c 0
 204 854 202 837 202 810 c 1
 54 810 l 1
 54 885 64 940 84 976 c 0
 105 1012 136 1030 179 1030 c 0
 222 1030 271 1013 327 978 c 0
 352 963 371 955 384 955 c 0
 393 955 398 959 402 968 c 0
 404 976 406 993 406 1020 c 1
 554 1020 l 1
 554 945 544 890 524 854 c 0
 503 818 472 800 429 800 c 0
 386 800 337 817 281 852 c 0
EndSplineSet
EndChar

StartChar: uni020D
Encoding: 525 525 316
Width: 610
Flags: W
LayerCount: 2
Fore
SplineSet
100 59 m 0
 53 105 30 172 30 260 c 0
 30 348 53 415 100 461 c 0
 147 507 215 530 305 530 c 0
 394 530 462 507 510 461 c 0
 556 415 580 348 580 260 c 0
 580 172 556 105 510 59 c 0
 462 13 394 -10 305 -10 c 0
 215 -10 147 13 100 59 c 0
365 162 m 0
 378 182 384 215 384 260 c 0
 384 305 378 338 365 358 c 0
 352 380 332 390 305 390 c 0
 278 390 258 380 245 358 c 0
 232 338 226 305 226 260 c 0
 226 215 232 182 245 162 c 0
 258 140 278 130 305 130 c 0
 332 130 352 140 365 162 c 0
-10 770 m 1
 220 770 l 1
 280 560 l 1
 110 560 l 1
 -10 770 l 1
260 770 m 1
 490 770 l 1
 550 560 l 1
 380 560 l 1
 260 770 l 1
EndSplineSet
EndChar

